<?xml version="1.0" encoding="utf-8" standalone="no"?>
<!DOCTYPE svg PUBLIC "-//W3C//DTD SVG 1.1//EN"
  "http://www.w3.org/Graphics/SVG/1.1/DTD/svg11.dtd">
<svg xmlns:xlink="http://www.w3.org/1999/xlink" width="360pt" height="432pt" viewBox="0 0 360 432" xmlns="http://www.w3.org/2000/svg" version="1.1">
 <metadata>
  <rdf:RDF xmlns:dc="http://purl.org/dc/elements/1.1/" xmlns:cc="http://creativecommons.org/ns#" xmlns:rdf="http://www.w3.org/1999/02/22-rdf-syntax-ns#">
   <cc:Work>
    <dc:type rdf:resource="http://purl.org/dc/dcmitype/StillImage"/>
    <dc:date>2025-02-05T17:05:45.217029</dc:date>
    <dc:format>image/svg+xml</dc:format>
    <dc:creator>
     <cc:Agent>
      <dc:title>Matplotlib v3.8.2, https://matplotlib.org/</dc:title>
     </cc:Agent>
    </dc:creator>
   </cc:Work>
  </rdf:RDF>
 </metadata>
 <defs>
  <style type="text/css">*{stroke-linejoin: round; stroke-linecap: butt}</style>
 </defs>
 <g id="figure_1">
  <g id="patch_1">
   <path d="M 0 432 
L 360 432 
L 360 0 
L 0 0 
z
" style="fill: #ffffff"/>
  </g>
  <g id="axes_1">
   <g id="matplotlib.axis_1"/>
   <g id="matplotlib.axis_2"/>
   <g id="line2d_1">
    <path d="M 57.681818 90.561951 
L 184.457713 90.561951 
L 184.542287 53.683902 
L 184.711434 90.561951 
L 311.318182 90.561951 
L 311.318182 90.561951 
" clip-path="url(#p80af04ed82)" style="fill: none; stroke: #808080; stroke-width: 3; stroke-linecap: square"/>
   </g>
  </g>
  <g id="axes_2">
   <g id="patch_2">
    <path d="M 45 189.763902 
L 324 189.763902 
L 324 100.519024 
L 45 100.519024 
z
" style="fill: #ffffff"/>
   </g>
   <g id="matplotlib.axis_3">
    <g id="xtick_1">
     <g id="line2d_2">
      <defs>
       <path id="mef9512cdcd" d="M 0 0 
L 0 3.5 
" style="stroke: #000000; stroke-width: 0.8"/>
      </defs>
      <g>
       <use xlink:href="#mef9512cdcd" x="57.681818" y="189.763902" style="stroke: #000000; stroke-width: 0.8"/>
      </g>
     </g>
     <g id="text_1">
      <!-- 0.0 -->
      <g transform="translate(49.730256 204.36234) scale(0.1 -0.1)">
       <defs>
        <path id="DejaVuSans-30" d="M 2034 4250 
Q 1547 4250 1301 3770 
Q 1056 3291 1056 2328 
Q 1056 1369 1301 889 
Q 1547 409 2034 409 
Q 2525 409 2770 889 
Q 3016 1369 3016 2328 
Q 3016 3291 2770 3770 
Q 2525 4250 2034 4250 
z
M 2034 4750 
Q 2819 4750 3233 4129 
Q 3647 3509 3647 2328 
Q 3647 1150 3233 529 
Q 2819 -91 2034 -91 
Q 1250 -91 836 529 
Q 422 1150 422 2328 
Q 422 3509 836 4129 
Q 1250 4750 2034 4750 
z
" transform="scale(0.015625)"/>
        <path id="DejaVuSans-2e" d="M 684 794 
L 1344 794 
L 1344 0 
L 684 0 
L 684 794 
z
" transform="scale(0.015625)"/>
       </defs>
       <use xlink:href="#DejaVuSans-30"/>
       <use xlink:href="#DejaVuSans-2e" x="63.623047"/>
       <use xlink:href="#DejaVuSans-30" x="95.410156"/>
      </g>
     </g>
    </g>
    <g id="xtick_2">
     <g id="line2d_3">
      <g>
       <use xlink:href="#mef9512cdcd" x="99.968641" y="189.763902" style="stroke: #000000; stroke-width: 0.8"/>
      </g>
     </g>
     <g id="text_2">
      <!-- 0.5 -->
      <g transform="translate(92.017079 204.36234) scale(0.1 -0.1)">
       <defs>
        <path id="DejaVuSans-35" d="M 691 4666 
L 3169 4666 
L 3169 4134 
L 1269 4134 
L 1269 2991 
Q 1406 3038 1543 3061 
Q 1681 3084 1819 3084 
Q 2600 3084 3056 2656 
Q 3513 2228 3513 1497 
Q 3513 744 3044 326 
Q 2575 -91 1722 -91 
Q 1428 -91 1123 -41 
Q 819 9 494 109 
L 494 744 
Q 775 591 1075 516 
Q 1375 441 1709 441 
Q 2250 441 2565 725 
Q 2881 1009 2881 1497 
Q 2881 1984 2565 2268 
Q 2250 2553 1709 2553 
Q 1456 2553 1204 2497 
Q 953 2441 691 2322 
L 691 4666 
z
" transform="scale(0.015625)"/>
       </defs>
       <use xlink:href="#DejaVuSans-30"/>
       <use xlink:href="#DejaVuSans-2e" x="63.623047"/>
       <use xlink:href="#DejaVuSans-35" x="95.410156"/>
      </g>
     </g>
    </g>
    <g id="xtick_3">
     <g id="line2d_4">
      <g>
       <use xlink:href="#mef9512cdcd" x="142.255464" y="189.763902" style="stroke: #000000; stroke-width: 0.8"/>
      </g>
     </g>
     <g id="text_3">
      <!-- 1.0 -->
      <g transform="translate(134.303901 204.36234) scale(0.1 -0.1)">
       <defs>
        <path id="DejaVuSans-31" d="M 794 531 
L 1825 531 
L 1825 4091 
L 703 3866 
L 703 4441 
L 1819 4666 
L 2450 4666 
L 2450 531 
L 3481 531 
L 3481 0 
L 794 0 
L 794 531 
z
" transform="scale(0.015625)"/>
       </defs>
       <use xlink:href="#DejaVuSans-31"/>
       <use xlink:href="#DejaVuSans-2e" x="63.623047"/>
       <use xlink:href="#DejaVuSans-30" x="95.410156"/>
      </g>
     </g>
    </g>
    <g id="xtick_4">
     <g id="line2d_5">
      <g>
       <use xlink:href="#mef9512cdcd" x="184.542287" y="189.763902" style="stroke: #000000; stroke-width: 0.8"/>
      </g>
     </g>
     <g id="text_4">
      <!-- 1.5 -->
      <g transform="translate(176.590724 204.36234) scale(0.1 -0.1)">
       <use xlink:href="#DejaVuSans-31"/>
       <use xlink:href="#DejaVuSans-2e" x="63.623047"/>
       <use xlink:href="#DejaVuSans-35" x="95.410156"/>
      </g>
     </g>
    </g>
    <g id="xtick_5">
     <g id="line2d_6">
      <g>
       <use xlink:href="#mef9512cdcd" x="226.82911" y="189.763902" style="stroke: #000000; stroke-width: 0.8"/>
      </g>
     </g>
     <g id="text_5">
      <!-- 2.0 -->
      <g transform="translate(218.877547 204.36234) scale(0.1 -0.1)">
       <defs>
        <path id="DejaVuSans-32" d="M 1228 531 
L 3431 531 
L 3431 0 
L 469 0 
L 469 531 
Q 828 903 1448 1529 
Q 2069 2156 2228 2338 
Q 2531 2678 2651 2914 
Q 2772 3150 2772 3378 
Q 2772 3750 2511 3984 
Q 2250 4219 1831 4219 
Q 1534 4219 1204 4116 
Q 875 4013 500 3803 
L 500 4441 
Q 881 4594 1212 4672 
Q 1544 4750 1819 4750 
Q 2544 4750 2975 4387 
Q 3406 4025 3406 3419 
Q 3406 3131 3298 2873 
Q 3191 2616 2906 2266 
Q 2828 2175 2409 1742 
Q 1991 1309 1228 531 
z
" transform="scale(0.015625)"/>
       </defs>
       <use xlink:href="#DejaVuSans-32"/>
       <use xlink:href="#DejaVuSans-2e" x="63.623047"/>
       <use xlink:href="#DejaVuSans-30" x="95.410156"/>
      </g>
     </g>
    </g>
    <g id="xtick_6">
     <g id="line2d_7">
      <g>
       <use xlink:href="#mef9512cdcd" x="269.115933" y="189.763902" style="stroke: #000000; stroke-width: 0.8"/>
      </g>
     </g>
     <g id="text_6">
      <!-- 2.5 -->
      <g transform="translate(261.16437 204.36234) scale(0.1 -0.1)">
       <use xlink:href="#DejaVuSans-32"/>
       <use xlink:href="#DejaVuSans-2e" x="63.623047"/>
       <use xlink:href="#DejaVuSans-35" x="95.410156"/>
      </g>
     </g>
    </g>
    <g id="xtick_7">
     <g id="line2d_8">
      <g>
       <use xlink:href="#mef9512cdcd" x="311.402755" y="189.763902" style="stroke: #000000; stroke-width: 0.8"/>
      </g>
     </g>
     <g id="text_7">
      <!-- 3.0 -->
      <g transform="translate(303.451193 204.36234) scale(0.1 -0.1)">
       <defs>
        <path id="DejaVuSans-33" d="M 2597 2516 
Q 3050 2419 3304 2112 
Q 3559 1806 3559 1356 
Q 3559 666 3084 287 
Q 2609 -91 1734 -91 
Q 1441 -91 1130 -33 
Q 819 25 488 141 
L 488 750 
Q 750 597 1062 519 
Q 1375 441 1716 441 
Q 2309 441 2620 675 
Q 2931 909 2931 1356 
Q 2931 1769 2642 2001 
Q 2353 2234 1838 2234 
L 1294 2234 
L 1294 2753 
L 1863 2753 
Q 2328 2753 2575 2939 
Q 2822 3125 2822 3475 
Q 2822 3834 2567 4026 
Q 2313 4219 1838 4219 
Q 1578 4219 1281 4162 
Q 984 4106 628 3988 
L 628 4550 
Q 988 4650 1302 4700 
Q 1616 4750 1894 4750 
Q 2613 4750 3031 4423 
Q 3450 4097 3450 3541 
Q 3450 3153 3228 2886 
Q 3006 2619 2597 2516 
z
" transform="scale(0.015625)"/>
       </defs>
       <use xlink:href="#DejaVuSans-33"/>
       <use xlink:href="#DejaVuSans-2e" x="63.623047"/>
       <use xlink:href="#DejaVuSans-30" x="95.410156"/>
      </g>
     </g>
    </g>
    <g id="text_8">
     <!-- time [s] -->
     <g transform="translate(165.108594 218.040465) scale(0.1 -0.1)">
      <defs>
       <path id="DejaVuSans-74" d="M 1172 4494 
L 1172 3500 
L 2356 3500 
L 2356 3053 
L 1172 3053 
L 1172 1153 
Q 1172 725 1289 603 
Q 1406 481 1766 481 
L 2356 481 
L 2356 0 
L 1766 0 
Q 1100 0 847 248 
Q 594 497 594 1153 
L 594 3053 
L 172 3053 
L 172 3500 
L 594 3500 
L 594 4494 
L 1172 4494 
z
" transform="scale(0.015625)"/>
       <path id="DejaVuSans-69" d="M 603 3500 
L 1178 3500 
L 1178 0 
L 603 0 
L 603 3500 
z
M 603 4863 
L 1178 4863 
L 1178 4134 
L 603 4134 
L 603 4863 
z
" transform="scale(0.015625)"/>
       <path id="DejaVuSans-6d" d="M 3328 2828 
Q 3544 3216 3844 3400 
Q 4144 3584 4550 3584 
Q 5097 3584 5394 3201 
Q 5691 2819 5691 2113 
L 5691 0 
L 5113 0 
L 5113 2094 
Q 5113 2597 4934 2840 
Q 4756 3084 4391 3084 
Q 3944 3084 3684 2787 
Q 3425 2491 3425 1978 
L 3425 0 
L 2847 0 
L 2847 2094 
Q 2847 2600 2669 2842 
Q 2491 3084 2119 3084 
Q 1678 3084 1418 2786 
Q 1159 2488 1159 1978 
L 1159 0 
L 581 0 
L 581 3500 
L 1159 3500 
L 1159 2956 
Q 1356 3278 1631 3431 
Q 1906 3584 2284 3584 
Q 2666 3584 2933 3390 
Q 3200 3197 3328 2828 
z
" transform="scale(0.015625)"/>
       <path id="DejaVuSans-65" d="M 3597 1894 
L 3597 1613 
L 953 1613 
Q 991 1019 1311 708 
Q 1631 397 2203 397 
Q 2534 397 2845 478 
Q 3156 559 3463 722 
L 3463 178 
Q 3153 47 2828 -22 
Q 2503 -91 2169 -91 
Q 1331 -91 842 396 
Q 353 884 353 1716 
Q 353 2575 817 3079 
Q 1281 3584 2069 3584 
Q 2775 3584 3186 3129 
Q 3597 2675 3597 1894 
z
M 3022 2063 
Q 3016 2534 2758 2815 
Q 2500 3097 2075 3097 
Q 1594 3097 1305 2825 
Q 1016 2553 972 2059 
L 3022 2063 
z
" transform="scale(0.015625)"/>
       <path id="DejaVuSans-20" transform="scale(0.015625)"/>
       <path id="DejaVuSans-5b" d="M 550 4863 
L 1875 4863 
L 1875 4416 
L 1125 4416 
L 1125 -397 
L 1875 -397 
L 1875 -844 
L 550 -844 
L 550 4863 
z
" transform="scale(0.015625)"/>
       <path id="DejaVuSans-73" d="M 2834 3397 
L 2834 2853 
Q 2591 2978 2328 3040 
Q 2066 3103 1784 3103 
Q 1356 3103 1142 2972 
Q 928 2841 928 2578 
Q 928 2378 1081 2264 
Q 1234 2150 1697 2047 
L 1894 2003 
Q 2506 1872 2764 1633 
Q 3022 1394 3022 966 
Q 3022 478 2636 193 
Q 2250 -91 1575 -91 
Q 1294 -91 989 -36 
Q 684 19 347 128 
L 347 722 
Q 666 556 975 473 
Q 1284 391 1588 391 
Q 1994 391 2212 530 
Q 2431 669 2431 922 
Q 2431 1156 2273 1281 
Q 2116 1406 1581 1522 
L 1381 1569 
Q 847 1681 609 1914 
Q 372 2147 372 2553 
Q 372 3047 722 3315 
Q 1072 3584 1716 3584 
Q 2034 3584 2315 3537 
Q 2597 3491 2834 3397 
z
" transform="scale(0.015625)"/>
       <path id="DejaVuSans-5d" d="M 1947 4863 
L 1947 -844 
L 622 -844 
L 622 -397 
L 1369 -397 
L 1369 4416 
L 622 4416 
L 622 4863 
L 1947 4863 
z
" transform="scale(0.015625)"/>
      </defs>
      <use xlink:href="#DejaVuSans-74"/>
      <use xlink:href="#DejaVuSans-69" x="39.208984"/>
      <use xlink:href="#DejaVuSans-6d" x="66.992188"/>
      <use xlink:href="#DejaVuSans-65" x="164.404297"/>
      <use xlink:href="#DejaVuSans-20" x="225.927734"/>
      <use xlink:href="#DejaVuSans-5b" x="257.714844"/>
      <use xlink:href="#DejaVuSans-73" x="296.728516"/>
      <use xlink:href="#DejaVuSans-5d" x="348.828125"/>
     </g>
    </g>
   </g>
   <g id="matplotlib.axis_4"/>
   <g id="line2d_9">
    <path d="M 57.681818 157.997164 
L 184.711434 157.92965 
L 184.880581 156.673423 
L 185.218876 151.078802 
L 187.248643 110.07782 
L 187.671512 106.442958 
L 188.009806 104.945084 
L 188.263527 104.57561 
L 188.432675 104.659772 
L 188.686395 105.241489 
L 189.02469 106.781417 
L 189.532132 110.467033 
L 190.208721 117.311286 
L 191.308178 131.112529 
L 193.591667 160.165543 
L 194.606551 170.307632 
L 195.452287 176.830398 
L 196.21345 181.124594 
L 196.890039 183.711847 
L 197.397481 184.931534 
L 197.820349 185.506281 
L 198.158644 185.695652 
L 198.496938 185.660494 
L 198.835233 185.416373 
L 199.258101 184.842113 
L 199.850117 183.594426 
L 200.61128 181.363264 
L 201.626163 177.598002 
L 203.571357 169.262154 
L 205.347404 162.021384 
L 206.531435 158.017332 
L 207.546318 155.285375 
L 208.476629 153.391136 
L 209.322365 152.171767 
L 210.083528 151.46219 
L 210.760117 151.115149 
L 211.436706 151.007937 
L 212.197869 151.137105 
L 213.043605 151.537892 
L 214.058489 152.290193 
L 215.496241 153.668188 
L 219.048334 157.193544 
L 220.486086 158.2518 
L 221.754691 158.919021 
L 223.023296 159.334687 
L 224.2919 159.521829 
L 225.729652 159.506982 
L 227.505699 159.254767 
L 231.057792 158.453947 
L 233.933296 157.923435 
L 236.470505 157.686985 
L 239.346009 157.65844 
L 244.251281 157.884462 
L 250.002289 158.069328 
L 257.106475 158.028777 
L 269.707948 157.987884 
L 311.318182 157.997225 
L 311.318182 157.997225 
" clip-path="url(#pf245d30720)" style="fill: none; stroke: #ffa500; stroke-width: 3; stroke-linecap: square"/>
   </g>
   <g id="line2d_10">
    <path d="M 57.681818 157.997164 
L 184.711434 157.92965 
L 184.880581 156.679326 
L 185.218876 151.204431 
L 186.910349 118.124974 
L 187.417791 113.375845 
L 187.756085 111.726787 
L 188.009806 111.199407 
L 188.178954 111.152382 
L 188.348101 111.32768 
L 188.601822 111.967731 
L 189.02469 113.893914 
L 189.616706 117.97204 
L 190.547016 126.356716 
L 193.676241 156.018332 
L 194.775698 163.969291 
L 195.790582 169.807131 
L 196.720892 173.962798 
L 197.566628 176.84716 
L 198.412365 178.985017 
L 199.173528 180.356804 
L 199.93469 181.281406 
L 200.61128 181.783258 
L 201.287869 182.029881 
L 202.049031 182.051753 
L 202.810194 181.851449 
L 203.740504 181.368595 
L 204.924535 180.474688 
L 206.531435 178.942598 
L 209.576086 175.643215 
L 213.043605 172.002804 
L 215.580815 169.664434 
L 217.948877 167.775552 
L 220.316939 166.161744 
L 222.769575 164.75342 
L 225.391358 163.505715 
L 228.182288 162.424291 
L 231.226939 161.482341 
L 234.694459 160.649697 
L 238.584846 159.949244 
L 243.151823 159.358937 
L 248.64911 158.879905 
L 255.584149 158.508065 
L 264.971824 158.240882 
L 279.349344 158.075622 
L 308.780972 158.004874 
L 311.318182 158.003476 
L 311.318182 158.003476 
" clip-path="url(#pf245d30720)" style="fill: none; stroke: #008000; stroke-width: 3; stroke-linecap: square"/>
   </g>
   <g id="patch_3">
    <path d="M 45 189.763902 
L 45 100.519024 
" style="fill: none; stroke: #000000; stroke-width: 0.8; stroke-linejoin: miter; stroke-linecap: square"/>
   </g>
   <g id="patch_4">
    <path d="M 45 189.763902 
L 324 189.763902 
" style="fill: none; stroke: #000000; stroke-width: 0.8; stroke-linejoin: miter; stroke-linecap: square"/>
   </g>
  </g>
  <g id="axes_3">
   <g id="matplotlib.axis_5"/>
   <g id="matplotlib.axis_6"/>
   <g id="line2d_11">
    <path d="M 57.681818 285.278049 
L 142.17089 285.278049 
L 142.340038 248.4 
L 226.744536 248.4 
L 226.913683 285.278049 
L 311.318182 285.278049 
L 311.318182 285.278049 
" clip-path="url(#pc73af6284d)" style="fill: none; stroke: #808080; stroke-width: 3; stroke-linecap: square"/>
   </g>
  </g>
  <g id="axes_4">
   <g id="patch_5">
    <path d="M 45 384.48 
L 324 384.48 
L 324 295.235122 
L 45 295.235122 
z
" style="fill: #ffffff"/>
   </g>
   <g id="matplotlib.axis_7">
    <g id="xtick_8">
     <g id="line2d_12">
      <g>
       <use xlink:href="#mef9512cdcd" x="57.681818" y="384.48" style="stroke: #000000; stroke-width: 0.8"/>
      </g>
     </g>
     <g id="text_9">
      <!-- 0.0 -->
      <g transform="translate(49.730256 399.078438) scale(0.1 -0.1)">
       <use xlink:href="#DejaVuSans-30"/>
       <use xlink:href="#DejaVuSans-2e" x="63.623047"/>
       <use xlink:href="#DejaVuSans-30" x="95.410156"/>
      </g>
     </g>
    </g>
    <g id="xtick_9">
     <g id="line2d_13">
      <g>
       <use xlink:href="#mef9512cdcd" x="99.968641" y="384.48" style="stroke: #000000; stroke-width: 0.8"/>
      </g>
     </g>
     <g id="text_10">
      <!-- 0.5 -->
      <g transform="translate(92.017079 399.078438) scale(0.1 -0.1)">
       <use xlink:href="#DejaVuSans-30"/>
       <use xlink:href="#DejaVuSans-2e" x="63.623047"/>
       <use xlink:href="#DejaVuSans-35" x="95.410156"/>
      </g>
     </g>
    </g>
    <g id="xtick_10">
     <g id="line2d_14">
      <g>
       <use xlink:href="#mef9512cdcd" x="142.255464" y="384.48" style="stroke: #000000; stroke-width: 0.8"/>
      </g>
     </g>
     <g id="text_11">
      <!-- 1.0 -->
      <g transform="translate(134.303901 399.078438) scale(0.1 -0.1)">
       <use xlink:href="#DejaVuSans-31"/>
       <use xlink:href="#DejaVuSans-2e" x="63.623047"/>
       <use xlink:href="#DejaVuSans-30" x="95.410156"/>
      </g>
     </g>
    </g>
    <g id="xtick_11">
     <g id="line2d_15">
      <g>
       <use xlink:href="#mef9512cdcd" x="184.542287" y="384.48" style="stroke: #000000; stroke-width: 0.8"/>
      </g>
     </g>
     <g id="text_12">
      <!-- 1.5 -->
      <g transform="translate(176.590724 399.078438) scale(0.1 -0.1)">
       <use xlink:href="#DejaVuSans-31"/>
       <use xlink:href="#DejaVuSans-2e" x="63.623047"/>
       <use xlink:href="#DejaVuSans-35" x="95.410156"/>
      </g>
     </g>
    </g>
    <g id="xtick_12">
     <g id="line2d_16">
      <g>
       <use xlink:href="#mef9512cdcd" x="226.82911" y="384.48" style="stroke: #000000; stroke-width: 0.8"/>
      </g>
     </g>
     <g id="text_13">
      <!-- 2.0 -->
      <g transform="translate(218.877547 399.078438) scale(0.1 -0.1)">
       <use xlink:href="#DejaVuSans-32"/>
       <use xlink:href="#DejaVuSans-2e" x="63.623047"/>
       <use xlink:href="#DejaVuSans-30" x="95.410156"/>
      </g>
     </g>
    </g>
    <g id="xtick_13">
     <g id="line2d_17">
      <g>
       <use xlink:href="#mef9512cdcd" x="269.115933" y="384.48" style="stroke: #000000; stroke-width: 0.8"/>
      </g>
     </g>
     <g id="text_14">
      <!-- 2.5 -->
      <g transform="translate(261.16437 399.078438) scale(0.1 -0.1)">
       <use xlink:href="#DejaVuSans-32"/>
       <use xlink:href="#DejaVuSans-2e" x="63.623047"/>
       <use xlink:href="#DejaVuSans-35" x="95.410156"/>
      </g>
     </g>
    </g>
    <g id="xtick_14">
     <g id="line2d_18">
      <g>
       <use xlink:href="#mef9512cdcd" x="311.402755" y="384.48" style="stroke: #000000; stroke-width: 0.8"/>
      </g>
     </g>
     <g id="text_15">
      <!-- 3.0 -->
      <g transform="translate(303.451193 399.078438) scale(0.1 -0.1)">
       <use xlink:href="#DejaVuSans-33"/>
       <use xlink:href="#DejaVuSans-2e" x="63.623047"/>
       <use xlink:href="#DejaVuSans-30" x="95.410156"/>
      </g>
     </g>
    </g>
    <g id="text_16">
     <!-- time [s] -->
     <g transform="translate(165.108594 412.756563) scale(0.1 -0.1)">
      <use xlink:href="#DejaVuSans-74"/>
      <use xlink:href="#DejaVuSans-69" x="39.208984"/>
      <use xlink:href="#DejaVuSans-6d" x="66.992188"/>
      <use xlink:href="#DejaVuSans-65" x="164.404297"/>
      <use xlink:href="#DejaVuSans-20" x="225.927734"/>
      <use xlink:href="#DejaVuSans-5b" x="257.714844"/>
      <use xlink:href="#DejaVuSans-73" x="296.728516"/>
      <use xlink:href="#DejaVuSans-5d" x="348.828125"/>
     </g>
    </g>
   </g>
   <g id="matplotlib.axis_8"/>
   <g id="line2d_19">
    <path d="M 57.681818 326.619337 
L 142.762906 326.551399 
L 143.1012 326.285285 
L 143.524069 325.578984 
L 144.031511 324.166127 
L 144.7081 321.472564 
L 145.807557 315.936698 
L 147.583604 307.009145 
L 148.513914 303.421386 
L 149.275077 301.294521 
L 149.951666 300.051503 
L 150.459108 299.513584 
L 150.966549 299.297785 
L 151.389418 299.348678 
L 151.89686 299.664054 
L 152.488875 300.345118 
L 153.250038 301.637541 
L 154.180348 303.700386 
L 155.702674 307.72272 
L 158.155309 314.203937 
L 159.423914 316.930328 
L 160.523371 318.770819 
L 161.453682 319.91978 
L 162.299418 320.643104 
L 163.145154 321.078709 
L 163.990891 321.254397 
L 164.836627 321.204934 
L 165.851511 320.903427 
L 167.035542 320.306729 
L 168.896162 319.082672 
L 171.85624 317.153397 
L 173.463139 316.378293 
L 174.985465 315.888436 
L 176.50779 315.631804 
L 178.199263 315.578357 
L 180.313605 315.75109 
L 189.447558 316.786273 
L 193.084225 316.784118 
L 207.630892 316.540623 
L 227.505699 316.748952 
L 227.843993 317.14233 
L 228.266862 318.022684 
L 228.774304 319.626796 
L 229.535466 322.912294 
L 231.142366 331.287283 
L 232.41097 337.265 
L 233.256707 340.313509 
L 234.01787 342.270215 
L 234.609885 343.25819 
L 235.117327 343.741384 
L 235.540195 343.899527 
L 235.963063 343.848807 
L 236.470505 343.53364 
L 237.062521 342.852814 
L 237.823684 341.560684 
L 238.753994 339.498167 
L 240.276319 335.476266 
L 242.728955 328.99545 
L 243.99756 326.269132 
L 245.097017 324.428642 
L 246.027327 323.279647 
L 246.873064 322.556272 
L 247.7188 322.1206 
L 248.564537 321.944839 
L 249.410273 321.994223 
L 250.425157 322.295637 
L 251.609188 322.892233 
L 253.469808 324.116161 
L 256.429886 326.04533 
L 258.036785 326.820421 
L 259.559111 327.31029 
L 261.081436 327.566946 
L 262.772909 327.620428 
L 264.88725 327.447737 
L 274.021204 326.412606 
L 277.657871 326.414744 
L 292.204538 326.65823 
L 311.318182 326.619739 
L 311.318182 326.619739 
" clip-path="url(#p9911f4aa58)" style="fill: none; stroke: #ffa500; stroke-width: 3; stroke-linecap: square"/>
   </g>
   <g id="line2d_20">
    <path d="M 57.681818 326.619337 
L 142.847479 326.508374 
L 143.185774 326.187928 
L 143.608642 325.425814 
L 144.116084 324.002945 
L 144.877247 321.075466 
L 148.344766 306.542852 
L 149.190503 304.334708 
L 149.951666 302.960011 
L 150.628255 302.205454 
L 151.22027 301.880479 
L 151.727712 301.830347 
L 152.319728 302.013283 
L 152.996317 302.504999 
L 153.75748 303.367133 
L 154.68779 304.783207 
L 155.871821 307.018925 
L 157.563294 310.745801 
L 164.921201 327.572226 
L 167.035542 331.59121 
L 169.06531 334.990293 
L 171.095077 337.958126 
L 173.124845 340.529339 
L 175.154612 342.745088 
L 177.268953 344.720616 
L 179.467868 346.463255 
L 181.751357 347.985307 
L 184.203992 349.345081 
L 186.825775 350.537085 
L 189.701279 351.590992 
L 192.830504 352.496899 
L 196.382597 353.287829 
L 200.442132 353.958113 
L 205.26283 354.519926 
L 211.098412 354.967952 
L 218.625466 355.311173 
L 227.505699 355.692769 
L 227.843993 356.081136 
L 228.266862 356.930803 
L 228.858877 358.742712 
L 229.704614 362.216349 
L 232.41097 374.003811 
L 233.34128 376.872553 
L 234.102443 378.576131 
L 234.779032 379.60848 
L 235.371048 380.159121 
L 235.963063 380.404839 
L 236.470505 380.393172 
L 237.062521 380.145637 
L 237.73911 379.590022 
L 238.500273 378.668243 
L 239.515157 377.045916 
L 240.783761 374.555737 
L 242.644381 370.355845 
L 248.564537 356.662651 
L 250.763451 352.278166 
L 252.877793 348.55803 
L 254.90756 345.436145 
L 256.937328 342.724413 
L 258.967095 340.383394 
L 260.996863 338.37092 
L 263.111204 336.579665 
L 265.310119 335.001449 
L 267.678181 333.577674 
L 270.21539 332.317906 
L 272.921747 331.223663 
L 275.881824 330.265499 
L 279.26477 329.411886 
L 283.070584 328.687923 
L 287.468414 328.08176 
L 292.796553 327.580116 
L 299.477871 327.18669 
L 308.358104 326.901054 
L 311.318182 326.842422 
L 311.318182 326.842422 
" clip-path="url(#p9911f4aa58)" style="fill: none; stroke: #008000; stroke-width: 3; stroke-linecap: square"/>
   </g>
   <g id="patch_6">
    <path d="M 45 384.48 
L 45 295.235122 
" style="fill: none; stroke: #000000; stroke-width: 0.8; stroke-linejoin: miter; stroke-linecap: square"/>
   </g>
   <g id="patch_7">
    <path d="M 45 384.48 
L 324 384.48 
" style="fill: none; stroke: #000000; stroke-width: 0.8; stroke-linejoin: miter; stroke-linecap: square"/>
   </g>
  </g>
  <g id="legend_1">
   <g id="patch_8">
    <path d="M 308.4 37.35625 
L 353 37.35625 
Q 355 37.35625 355 35.35625 
L 355 7 
Q 355 5 353 5 
L 308.4 5 
Q 306.4 5 306.4 7 
L 306.4 35.35625 
Q 306.4 37.35625 308.4 37.35625 
z
" style="fill: #ffffff; opacity: 0.8; stroke: #cccccc; stroke-linejoin: miter"/>
   </g>
   <g id="line2d_21">
    <path d="M 310.4 13.098437 
L 320.4 13.098437 
L 330.4 13.098437 
" style="fill: none; stroke: #ffa500; stroke-width: 3; stroke-linecap: square"/>
   </g>
   <g id="text_17">
    <!-- $V_G$ -->
    <g transform="translate(338.4 16.598437) scale(0.1 -0.1)">
     <defs>
      <path id="DejaVuSans-Oblique-56" d="M 1319 0 
L 500 4666 
L 1119 4666 
L 1797 653 
L 4063 4666 
L 4750 4666 
L 2053 0 
L 1319 0 
z
" transform="scale(0.015625)"/>
      <path id="DejaVuSans-Oblique-47" d="M 3494 697 
L 3738 1919 
L 2700 1919 
L 2797 2438 
L 4453 2438 
L 4050 384 
Q 3634 156 3143 32 
Q 2653 -91 2156 -91 
Q 1278 -91 783 396 
Q 288 884 288 1753 
Q 288 2475 589 3126 
Q 891 3778 1422 4213 
Q 1756 4484 2153 4617 
Q 2550 4750 3034 4750 
Q 3472 4750 3873 4639 
Q 4275 4528 4641 4306 
L 4513 3634 
Q 4231 3928 3853 4083 
Q 3475 4238 3047 4238 
Q 2550 4238 2172 4048 
Q 1794 3859 1497 3463 
Q 1244 3125 1098 2667 
Q 953 2209 953 1734 
Q 953 1081 1287 751 
Q 1622 422 2284 422 
Q 2616 422 2925 492 
Q 3234 563 3494 697 
z
" transform="scale(0.015625)"/>
     </defs>
     <use xlink:href="#DejaVuSans-Oblique-56" transform="translate(0 0.09375)"/>
     <use xlink:href="#DejaVuSans-Oblique-47" transform="translate(68.408203 -16.3125) scale(0.7)"/>
    </g>
   </g>
   <g id="line2d_22">
    <path d="M 310.4 27.776563 
L 320.4 27.776563 
L 330.4 27.776563 
" style="fill: none; stroke: #008000; stroke-width: 3; stroke-linecap: square"/>
   </g>
   <g id="text_18">
    <!-- $V_B$ -->
    <g transform="translate(338.4 31.276563) scale(0.1 -0.1)">
     <defs>
      <path id="DejaVuSans-Oblique-42" d="M 1081 4666 
L 2694 4666 
Q 3350 4666 3675 4422 
Q 4000 4178 4000 3688 
Q 4000 3238 3720 2911 
Q 3441 2584 2988 2516 
Q 3375 2428 3569 2181 
Q 3763 1934 3763 1522 
Q 3763 819 3242 409 
Q 2722 0 1819 0 
L 172 0 
L 1081 4666 
z
M 1234 2228 
L 903 519 
L 1919 519 
Q 2491 519 2800 781 
Q 3109 1044 3109 1522 
Q 3109 1891 2904 2059 
Q 2700 2228 2247 2228 
L 1234 2228 
z
M 1606 4147 
L 1331 2741 
L 2272 2741 
Q 2775 2741 3058 2959 
Q 3341 3178 3341 3566 
Q 3341 3869 3150 4008 
Q 2959 4147 2541 4147 
L 1606 4147 
z
" transform="scale(0.015625)"/>
     </defs>
     <use xlink:href="#DejaVuSans-Oblique-56" transform="translate(0 0.09375)"/>
     <use xlink:href="#DejaVuSans-Oblique-42" transform="translate(68.408203 -16.3125) scale(0.7)"/>
    </g>
   </g>
  </g>
 </g>
 <defs>
  <clipPath id="p80af04ed82">
   <rect x="45" y="51.84" width="279" height="40.565854"/>
  </clipPath>
  <clipPath id="pf245d30720">
   <rect x="45" y="100.519024" width="279" height="89.244878"/>
  </clipPath>
  <clipPath id="pc73af6284d">
   <rect x="45" y="246.556098" width="279" height="40.565854"/>
  </clipPath>
  <clipPath id="p9911f4aa58">
   <rect x="45" y="295.235122" width="279" height="89.244878"/>
  </clipPath>
 </defs>
</svg>
