<?xml version="1.0" encoding="utf-8" standalone="no"?>
<!DOCTYPE svg PUBLIC "-//W3C//DTD SVG 1.1//EN"
  "http://www.w3.org/Graphics/SVG/1.1/DTD/svg11.dtd">
<svg xmlns:xlink="http://www.w3.org/1999/xlink" width="864pt" height="432pt" viewBox="0 0 864 432" xmlns="http://www.w3.org/2000/svg" version="1.1">
 <metadata>
  <rdf:RDF xmlns:dc="http://purl.org/dc/elements/1.1/" xmlns:cc="http://creativecommons.org/ns#" xmlns:rdf="http://www.w3.org/1999/02/22-rdf-syntax-ns#">
   <cc:Work>
    <dc:type rdf:resource="http://purl.org/dc/dcmitype/StillImage"/>
    <dc:date>2024-06-12T16:46:04.441507</dc:date>
    <dc:format>image/svg+xml</dc:format>
    <dc:creator>
     <cc:Agent>
      <dc:title>Matplotlib v3.8.4, https://matplotlib.org/</dc:title>
     </cc:Agent>
    </dc:creator>
   </cc:Work>
  </rdf:RDF>
 </metadata>
 <defs>
  <style type="text/css">*{stroke-linejoin: round; stroke-linecap: butt}</style>
 </defs>
 <g id="figure_1">
  <g id="patch_1">
   <path d="M 0 432 
L 864 432 
L 864 0 
L 0 0 
z
" style="fill: #ffffff"/>
  </g>
  <g id="axes_1">
   <g id="patch_2">
    <path d="M 56.16 163.963636 
L 379.137427 163.963636 
L 379.137427 10.8 
L 56.16 10.8 
z
" style="fill: #ffffff"/>
   </g>
   <g id="matplotlib.axis_1">
    <g id="xtick_1">
     <g id="line2d_1">
      <defs>
       <path id="mf056969f89" d="M 0 0 
L 0 3.5 
" style="stroke: #000000; stroke-width: 0.8"/>
      </defs>
      <g>
       <use xlink:href="#mf056969f89" x="56.16" y="163.963636" style="stroke: #000000; stroke-width: 0.8"/>
      </g>
     </g>
     <g id="text_1">
      <!-- −0.4 -->
      <g transform="translate(44.018594 178.562074) scale(0.1 -0.1)">
       <defs>
        <path id="DejaVuSans-2212" d="M 678 2272 
L 4684 2272 
L 4684 1741 
L 678 1741 
L 678 2272 
z
" transform="scale(0.015625)"/>
        <path id="DejaVuSans-30" d="M 2034 4250 
Q 1547 4250 1301 3770 
Q 1056 3291 1056 2328 
Q 1056 1369 1301 889 
Q 1547 409 2034 409 
Q 2525 409 2770 889 
Q 3016 1369 3016 2328 
Q 3016 3291 2770 3770 
Q 2525 4250 2034 4250 
z
M 2034 4750 
Q 2819 4750 3233 4129 
Q 3647 3509 3647 2328 
Q 3647 1150 3233 529 
Q 2819 -91 2034 -91 
Q 1250 -91 836 529 
Q 422 1150 422 2328 
Q 422 3509 836 4129 
Q 1250 4750 2034 4750 
z
" transform="scale(0.015625)"/>
        <path id="DejaVuSans-2e" d="M 684 794 
L 1344 794 
L 1344 0 
L 684 0 
L 684 794 
z
" transform="scale(0.015625)"/>
        <path id="DejaVuSans-34" d="M 2419 4116 
L 825 1625 
L 2419 1625 
L 2419 4116 
z
M 2253 4666 
L 3047 4666 
L 3047 1625 
L 3713 1625 
L 3713 1100 
L 3047 1100 
L 3047 0 
L 2419 0 
L 2419 1100 
L 313 1100 
L 313 1709 
L 2253 4666 
z
" transform="scale(0.015625)"/>
       </defs>
       <use xlink:href="#DejaVuSans-2212"/>
       <use xlink:href="#DejaVuSans-30" x="83.789062"/>
       <use xlink:href="#DejaVuSans-2e" x="147.412109"/>
       <use xlink:href="#DejaVuSans-34" x="179.199219"/>
      </g>
     </g>
    </g>
    <g id="xtick_2">
     <g id="line2d_2">
      <g>
       <use xlink:href="#mf056969f89" x="96.532178" y="163.963636" style="stroke: #000000; stroke-width: 0.8"/>
      </g>
     </g>
     <g id="text_2">
      <!-- −0.3 -->
      <g transform="translate(84.390772 178.562074) scale(0.1 -0.1)">
       <defs>
        <path id="DejaVuSans-33" d="M 2597 2516 
Q 3050 2419 3304 2112 
Q 3559 1806 3559 1356 
Q 3559 666 3084 287 
Q 2609 -91 1734 -91 
Q 1441 -91 1130 -33 
Q 819 25 488 141 
L 488 750 
Q 750 597 1062 519 
Q 1375 441 1716 441 
Q 2309 441 2620 675 
Q 2931 909 2931 1356 
Q 2931 1769 2642 2001 
Q 2353 2234 1838 2234 
L 1294 2234 
L 1294 2753 
L 1863 2753 
Q 2328 2753 2575 2939 
Q 2822 3125 2822 3475 
Q 2822 3834 2567 4026 
Q 2313 4219 1838 4219 
Q 1578 4219 1281 4162 
Q 984 4106 628 3988 
L 628 4550 
Q 988 4650 1302 4700 
Q 1616 4750 1894 4750 
Q 2613 4750 3031 4423 
Q 3450 4097 3450 3541 
Q 3450 3153 3228 2886 
Q 3006 2619 2597 2516 
z
" transform="scale(0.015625)"/>
       </defs>
       <use xlink:href="#DejaVuSans-2212"/>
       <use xlink:href="#DejaVuSans-30" x="83.789062"/>
       <use xlink:href="#DejaVuSans-2e" x="147.412109"/>
       <use xlink:href="#DejaVuSans-33" x="179.199219"/>
      </g>
     </g>
    </g>
    <g id="xtick_3">
     <g id="line2d_3">
      <g>
       <use xlink:href="#mf056969f89" x="136.904357" y="163.963636" style="stroke: #000000; stroke-width: 0.8"/>
      </g>
     </g>
     <g id="text_3">
      <!-- −0.2 -->
      <g transform="translate(124.762951 178.562074) scale(0.1 -0.1)">
       <defs>
        <path id="DejaVuSans-32" d="M 1228 531 
L 3431 531 
L 3431 0 
L 469 0 
L 469 531 
Q 828 903 1448 1529 
Q 2069 2156 2228 2338 
Q 2531 2678 2651 2914 
Q 2772 3150 2772 3378 
Q 2772 3750 2511 3984 
Q 2250 4219 1831 4219 
Q 1534 4219 1204 4116 
Q 875 4013 500 3803 
L 500 4441 
Q 881 4594 1212 4672 
Q 1544 4750 1819 4750 
Q 2544 4750 2975 4387 
Q 3406 4025 3406 3419 
Q 3406 3131 3298 2873 
Q 3191 2616 2906 2266 
Q 2828 2175 2409 1742 
Q 1991 1309 1228 531 
z
" transform="scale(0.015625)"/>
       </defs>
       <use xlink:href="#DejaVuSans-2212"/>
       <use xlink:href="#DejaVuSans-30" x="83.789062"/>
       <use xlink:href="#DejaVuSans-2e" x="147.412109"/>
       <use xlink:href="#DejaVuSans-32" x="179.199219"/>
      </g>
     </g>
    </g>
    <g id="xtick_4">
     <g id="line2d_4">
      <g>
       <use xlink:href="#mf056969f89" x="177.276535" y="163.963636" style="stroke: #000000; stroke-width: 0.8"/>
      </g>
     </g>
     <g id="text_4">
      <!-- −0.1 -->
      <g transform="translate(165.135129 178.562074) scale(0.1 -0.1)">
       <defs>
        <path id="DejaVuSans-31" d="M 794 531 
L 1825 531 
L 1825 4091 
L 703 3866 
L 703 4441 
L 1819 4666 
L 2450 4666 
L 2450 531 
L 3481 531 
L 3481 0 
L 794 0 
L 794 531 
z
" transform="scale(0.015625)"/>
       </defs>
       <use xlink:href="#DejaVuSans-2212"/>
       <use xlink:href="#DejaVuSans-30" x="83.789062"/>
       <use xlink:href="#DejaVuSans-2e" x="147.412109"/>
       <use xlink:href="#DejaVuSans-31" x="179.199219"/>
      </g>
     </g>
    </g>
    <g id="xtick_5">
     <g id="line2d_5">
      <g>
       <use xlink:href="#mf056969f89" x="217.648714" y="163.963636" style="stroke: #000000; stroke-width: 0.8"/>
      </g>
     </g>
     <g id="text_5">
      <!-- 0.0 -->
      <g transform="translate(209.697151 178.562074) scale(0.1 -0.1)">
       <use xlink:href="#DejaVuSans-30"/>
       <use xlink:href="#DejaVuSans-2e" x="63.623047"/>
       <use xlink:href="#DejaVuSans-30" x="95.410156"/>
      </g>
     </g>
    </g>
    <g id="xtick_6">
     <g id="line2d_6">
      <g>
       <use xlink:href="#mf056969f89" x="258.020892" y="163.963636" style="stroke: #000000; stroke-width: 0.8"/>
      </g>
     </g>
     <g id="text_6">
      <!-- 0.1 -->
      <g transform="translate(250.069329 178.562074) scale(0.1 -0.1)">
       <use xlink:href="#DejaVuSans-30"/>
       <use xlink:href="#DejaVuSans-2e" x="63.623047"/>
       <use xlink:href="#DejaVuSans-31" x="95.410156"/>
      </g>
     </g>
    </g>
    <g id="xtick_7">
     <g id="line2d_7">
      <g>
       <use xlink:href="#mf056969f89" x="298.39307" y="163.963636" style="stroke: #000000; stroke-width: 0.8"/>
      </g>
     </g>
     <g id="text_7">
      <!-- 0.2 -->
      <g transform="translate(290.441508 178.562074) scale(0.1 -0.1)">
       <use xlink:href="#DejaVuSans-30"/>
       <use xlink:href="#DejaVuSans-2e" x="63.623047"/>
       <use xlink:href="#DejaVuSans-32" x="95.410156"/>
      </g>
     </g>
    </g>
    <g id="xtick_8">
     <g id="line2d_8">
      <g>
       <use xlink:href="#mf056969f89" x="338.765249" y="163.963636" style="stroke: #000000; stroke-width: 0.8"/>
      </g>
     </g>
     <g id="text_8">
      <!-- 0.3 -->
      <g transform="translate(330.813686 178.562074) scale(0.1 -0.1)">
       <use xlink:href="#DejaVuSans-30"/>
       <use xlink:href="#DejaVuSans-2e" x="63.623047"/>
       <use xlink:href="#DejaVuSans-33" x="95.410156"/>
      </g>
     </g>
    </g>
    <g id="xtick_9">
     <g id="line2d_9">
      <g>
       <use xlink:href="#mf056969f89" x="379.137427" y="163.963636" style="stroke: #000000; stroke-width: 0.8"/>
      </g>
     </g>
     <g id="text_9">
      <!-- 0.4 -->
      <g transform="translate(371.185865 178.562074) scale(0.1 -0.1)">
       <use xlink:href="#DejaVuSans-30"/>
       <use xlink:href="#DejaVuSans-2e" x="63.623047"/>
       <use xlink:href="#DejaVuSans-34" x="95.410156"/>
      </g>
     </g>
    </g>
   </g>
   <g id="matplotlib.axis_2">
    <g id="ytick_1">
     <g id="line2d_10">
      <defs>
       <path id="ma3c787921d" d="M 0 0 
L -3.5 0 
" style="stroke: #000000; stroke-width: 0.8"/>
      </defs>
      <g>
       <use xlink:href="#ma3c787921d" x="56.16" y="157.001653" style="stroke: #000000; stroke-width: 0.8"/>
      </g>
     </g>
     <g id="text_10">
      <!-- 0.0 -->
      <g transform="translate(33.256875 160.800872) scale(0.1 -0.1)">
       <use xlink:href="#DejaVuSans-30"/>
       <use xlink:href="#DejaVuSans-2e" x="63.623047"/>
       <use xlink:href="#DejaVuSans-30" x="95.410156"/>
      </g>
     </g>
    </g>
    <g id="ytick_2">
     <g id="line2d_11">
      <g>
       <use xlink:href="#ma3c787921d" x="56.16" y="129.153719" style="stroke: #000000; stroke-width: 0.8"/>
      </g>
     </g>
     <g id="text_11">
      <!-- 0.2 -->
      <g transform="translate(33.256875 132.952938) scale(0.1 -0.1)">
       <use xlink:href="#DejaVuSans-30"/>
       <use xlink:href="#DejaVuSans-2e" x="63.623047"/>
       <use xlink:href="#DejaVuSans-32" x="95.410156"/>
      </g>
     </g>
    </g>
    <g id="ytick_3">
     <g id="line2d_12">
      <g>
       <use xlink:href="#ma3c787921d" x="56.16" y="101.305785" style="stroke: #000000; stroke-width: 0.8"/>
      </g>
     </g>
     <g id="text_12">
      <!-- 0.4 -->
      <g transform="translate(33.256875 105.105004) scale(0.1 -0.1)">
       <use xlink:href="#DejaVuSans-30"/>
       <use xlink:href="#DejaVuSans-2e" x="63.623047"/>
       <use xlink:href="#DejaVuSans-34" x="95.410156"/>
      </g>
     </g>
    </g>
    <g id="ytick_4">
     <g id="line2d_13">
      <g>
       <use xlink:href="#ma3c787921d" x="56.16" y="73.457851" style="stroke: #000000; stroke-width: 0.8"/>
      </g>
     </g>
     <g id="text_13">
      <!-- 0.6 -->
      <g transform="translate(33.256875 77.25707) scale(0.1 -0.1)">
       <defs>
        <path id="DejaVuSans-36" d="M 2113 2584 
Q 1688 2584 1439 2293 
Q 1191 2003 1191 1497 
Q 1191 994 1439 701 
Q 1688 409 2113 409 
Q 2538 409 2786 701 
Q 3034 994 3034 1497 
Q 3034 2003 2786 2293 
Q 2538 2584 2113 2584 
z
M 3366 4563 
L 3366 3988 
Q 3128 4100 2886 4159 
Q 2644 4219 2406 4219 
Q 1781 4219 1451 3797 
Q 1122 3375 1075 2522 
Q 1259 2794 1537 2939 
Q 1816 3084 2150 3084 
Q 2853 3084 3261 2657 
Q 3669 2231 3669 1497 
Q 3669 778 3244 343 
Q 2819 -91 2113 -91 
Q 1303 -91 875 529 
Q 447 1150 447 2328 
Q 447 3434 972 4092 
Q 1497 4750 2381 4750 
Q 2619 4750 2861 4703 
Q 3103 4656 3366 4563 
z
" transform="scale(0.015625)"/>
       </defs>
       <use xlink:href="#DejaVuSans-30"/>
       <use xlink:href="#DejaVuSans-2e" x="63.623047"/>
       <use xlink:href="#DejaVuSans-36" x="95.410156"/>
      </g>
     </g>
    </g>
    <g id="ytick_5">
     <g id="line2d_14">
      <g>
       <use xlink:href="#ma3c787921d" x="56.16" y="45.609917" style="stroke: #000000; stroke-width: 0.8"/>
      </g>
     </g>
     <g id="text_14">
      <!-- 0.8 -->
      <g transform="translate(33.256875 49.409136) scale(0.1 -0.1)">
       <defs>
        <path id="DejaVuSans-38" d="M 2034 2216 
Q 1584 2216 1326 1975 
Q 1069 1734 1069 1313 
Q 1069 891 1326 650 
Q 1584 409 2034 409 
Q 2484 409 2743 651 
Q 3003 894 3003 1313 
Q 3003 1734 2745 1975 
Q 2488 2216 2034 2216 
z
M 1403 2484 
Q 997 2584 770 2862 
Q 544 3141 544 3541 
Q 544 4100 942 4425 
Q 1341 4750 2034 4750 
Q 2731 4750 3128 4425 
Q 3525 4100 3525 3541 
Q 3525 3141 3298 2862 
Q 3072 2584 2669 2484 
Q 3125 2378 3379 2068 
Q 3634 1759 3634 1313 
Q 3634 634 3220 271 
Q 2806 -91 2034 -91 
Q 1263 -91 848 271 
Q 434 634 434 1313 
Q 434 1759 690 2068 
Q 947 2378 1403 2484 
z
M 1172 3481 
Q 1172 3119 1398 2916 
Q 1625 2713 2034 2713 
Q 2441 2713 2670 2916 
Q 2900 3119 2900 3481 
Q 2900 3844 2670 4047 
Q 2441 4250 2034 4250 
Q 1625 4250 1398 4047 
Q 1172 3844 1172 3481 
z
" transform="scale(0.015625)"/>
       </defs>
       <use xlink:href="#DejaVuSans-30"/>
       <use xlink:href="#DejaVuSans-2e" x="63.623047"/>
       <use xlink:href="#DejaVuSans-38" x="95.410156"/>
      </g>
     </g>
    </g>
    <g id="ytick_6">
     <g id="line2d_15">
      <g>
       <use xlink:href="#ma3c787921d" x="56.16" y="17.761983" style="stroke: #000000; stroke-width: 0.8"/>
      </g>
     </g>
     <g id="text_15">
      <!-- 1.0 -->
      <g transform="translate(33.256875 21.561202) scale(0.1 -0.1)">
       <use xlink:href="#DejaVuSans-31"/>
       <use xlink:href="#DejaVuSans-2e" x="63.623047"/>
       <use xlink:href="#DejaVuSans-30" x="95.410156"/>
      </g>
     </g>
    </g>
   </g>
   <g id="line2d_16">
    <path d="M 56.122981 157.001653 
L 153.016209 157.001653 
L 153.137326 17.761983 
L 282.20718 17.761983 
L 282.328296 157.001653 
L 379.14078 157.001653 
L 379.14078 157.001653 
" clip-path="url(#pa229885092)" style="fill: none; stroke: #808080; stroke-width: 4; stroke-linecap: square"/>
   </g>
   <g id="line2d_17">
    <path d="M 217.648714 163.963636 
L 217.648714 10.8 
" clip-path="url(#pa229885092)" style="fill: none; stroke-dasharray: 1,1.65; stroke-dashoffset: 0; stroke: #808080"/>
   </g>
   <g id="patch_3">
    <path d="M 56.16 163.963636 
L 56.16 10.8 
" style="fill: none; stroke: #000000; stroke-width: 0.8; stroke-linejoin: miter; stroke-linecap: square"/>
   </g>
   <g id="patch_4">
    <path d="M 379.137427 163.963636 
L 379.137427 10.8 
" style="fill: none; stroke: #000000; stroke-width: 0.8; stroke-linejoin: miter; stroke-linecap: square"/>
   </g>
   <g id="patch_5">
    <path d="M 56.16 163.963636 
L 379.137427 163.963636 
" style="fill: none; stroke: #000000; stroke-width: 0.8; stroke-linejoin: miter; stroke-linecap: square"/>
   </g>
   <g id="patch_6">
    <path d="M 56.16 10.8 
L 379.137427 10.8 
" style="fill: none; stroke: #000000; stroke-width: 0.8; stroke-linejoin: miter; stroke-linecap: square"/>
   </g>
  </g>
  <g id="axes_2">
   <g id="patch_7">
    <path d="M 56.16 347.76 
L 379.137427 347.76 
L 379.137427 194.596364 
L 56.16 194.596364 
z
" style="fill: #ffffff"/>
   </g>
   <g id="matplotlib.axis_3">
    <g id="xtick_10">
     <g id="line2d_18">
      <g>
       <use xlink:href="#mf056969f89" x="56.16" y="347.76" style="stroke: #000000; stroke-width: 0.8"/>
      </g>
     </g>
     <g id="text_16">
      <!-- −0.4 -->
      <g transform="translate(44.018594 362.358438) scale(0.1 -0.1)">
       <use xlink:href="#DejaVuSans-2212"/>
       <use xlink:href="#DejaVuSans-30" x="83.789062"/>
       <use xlink:href="#DejaVuSans-2e" x="147.412109"/>
       <use xlink:href="#DejaVuSans-34" x="179.199219"/>
      </g>
     </g>
    </g>
    <g id="xtick_11">
     <g id="line2d_19">
      <g>
       <use xlink:href="#mf056969f89" x="96.532178" y="347.76" style="stroke: #000000; stroke-width: 0.8"/>
      </g>
     </g>
     <g id="text_17">
      <!-- −0.3 -->
      <g transform="translate(84.390772 362.358438) scale(0.1 -0.1)">
       <use xlink:href="#DejaVuSans-2212"/>
       <use xlink:href="#DejaVuSans-30" x="83.789062"/>
       <use xlink:href="#DejaVuSans-2e" x="147.412109"/>
       <use xlink:href="#DejaVuSans-33" x="179.199219"/>
      </g>
     </g>
    </g>
    <g id="xtick_12">
     <g id="line2d_20">
      <g>
       <use xlink:href="#mf056969f89" x="136.904357" y="347.76" style="stroke: #000000; stroke-width: 0.8"/>
      </g>
     </g>
     <g id="text_18">
      <!-- −0.2 -->
      <g transform="translate(124.762951 362.358438) scale(0.1 -0.1)">
       <use xlink:href="#DejaVuSans-2212"/>
       <use xlink:href="#DejaVuSans-30" x="83.789062"/>
       <use xlink:href="#DejaVuSans-2e" x="147.412109"/>
       <use xlink:href="#DejaVuSans-32" x="179.199219"/>
      </g>
     </g>
    </g>
    <g id="xtick_13">
     <g id="line2d_21">
      <g>
       <use xlink:href="#mf056969f89" x="177.276535" y="347.76" style="stroke: #000000; stroke-width: 0.8"/>
      </g>
     </g>
     <g id="text_19">
      <!-- −0.1 -->
      <g transform="translate(165.135129 362.358438) scale(0.1 -0.1)">
       <use xlink:href="#DejaVuSans-2212"/>
       <use xlink:href="#DejaVuSans-30" x="83.789062"/>
       <use xlink:href="#DejaVuSans-2e" x="147.412109"/>
       <use xlink:href="#DejaVuSans-31" x="179.199219"/>
      </g>
     </g>
    </g>
    <g id="xtick_14">
     <g id="line2d_22">
      <g>
       <use xlink:href="#mf056969f89" x="217.648714" y="347.76" style="stroke: #000000; stroke-width: 0.8"/>
      </g>
     </g>
     <g id="text_20">
      <!-- 0.0 -->
      <g transform="translate(209.697151 362.358438) scale(0.1 -0.1)">
       <use xlink:href="#DejaVuSans-30"/>
       <use xlink:href="#DejaVuSans-2e" x="63.623047"/>
       <use xlink:href="#DejaVuSans-30" x="95.410156"/>
      </g>
     </g>
    </g>
    <g id="xtick_15">
     <g id="line2d_23">
      <g>
       <use xlink:href="#mf056969f89" x="258.020892" y="347.76" style="stroke: #000000; stroke-width: 0.8"/>
      </g>
     </g>
     <g id="text_21">
      <!-- 0.1 -->
      <g transform="translate(250.069329 362.358438) scale(0.1 -0.1)">
       <use xlink:href="#DejaVuSans-30"/>
       <use xlink:href="#DejaVuSans-2e" x="63.623047"/>
       <use xlink:href="#DejaVuSans-31" x="95.410156"/>
      </g>
     </g>
    </g>
    <g id="xtick_16">
     <g id="line2d_24">
      <g>
       <use xlink:href="#mf056969f89" x="298.39307" y="347.76" style="stroke: #000000; stroke-width: 0.8"/>
      </g>
     </g>
     <g id="text_22">
      <!-- 0.2 -->
      <g transform="translate(290.441508 362.358438) scale(0.1 -0.1)">
       <use xlink:href="#DejaVuSans-30"/>
       <use xlink:href="#DejaVuSans-2e" x="63.623047"/>
       <use xlink:href="#DejaVuSans-32" x="95.410156"/>
      </g>
     </g>
    </g>
    <g id="xtick_17">
     <g id="line2d_25">
      <g>
       <use xlink:href="#mf056969f89" x="338.765249" y="347.76" style="stroke: #000000; stroke-width: 0.8"/>
      </g>
     </g>
     <g id="text_23">
      <!-- 0.3 -->
      <g transform="translate(330.813686 362.358438) scale(0.1 -0.1)">
       <use xlink:href="#DejaVuSans-30"/>
       <use xlink:href="#DejaVuSans-2e" x="63.623047"/>
       <use xlink:href="#DejaVuSans-33" x="95.410156"/>
      </g>
     </g>
    </g>
    <g id="xtick_18">
     <g id="line2d_26">
      <g>
       <use xlink:href="#mf056969f89" x="379.137427" y="347.76" style="stroke: #000000; stroke-width: 0.8"/>
      </g>
     </g>
     <g id="text_24">
      <!-- 0.4 -->
      <g transform="translate(371.185865 362.358438) scale(0.1 -0.1)">
       <use xlink:href="#DejaVuSans-30"/>
       <use xlink:href="#DejaVuSans-2e" x="63.623047"/>
       <use xlink:href="#DejaVuSans-34" x="95.410156"/>
      </g>
     </g>
    </g>
    <g id="text_25">
     <!-- space [mm] -->
     <g transform="translate(187.748714 376.036563) scale(0.1 -0.1)">
      <defs>
       <path id="DejaVuSans-73" d="M 2834 3397 
L 2834 2853 
Q 2591 2978 2328 3040 
Q 2066 3103 1784 3103 
Q 1356 3103 1142 2972 
Q 928 2841 928 2578 
Q 928 2378 1081 2264 
Q 1234 2150 1697 2047 
L 1894 2003 
Q 2506 1872 2764 1633 
Q 3022 1394 3022 966 
Q 3022 478 2636 193 
Q 2250 -91 1575 -91 
Q 1294 -91 989 -36 
Q 684 19 347 128 
L 347 722 
Q 666 556 975 473 
Q 1284 391 1588 391 
Q 1994 391 2212 530 
Q 2431 669 2431 922 
Q 2431 1156 2273 1281 
Q 2116 1406 1581 1522 
L 1381 1569 
Q 847 1681 609 1914 
Q 372 2147 372 2553 
Q 372 3047 722 3315 
Q 1072 3584 1716 3584 
Q 2034 3584 2315 3537 
Q 2597 3491 2834 3397 
z
" transform="scale(0.015625)"/>
       <path id="DejaVuSans-70" d="M 1159 525 
L 1159 -1331 
L 581 -1331 
L 581 3500 
L 1159 3500 
L 1159 2969 
Q 1341 3281 1617 3432 
Q 1894 3584 2278 3584 
Q 2916 3584 3314 3078 
Q 3713 2572 3713 1747 
Q 3713 922 3314 415 
Q 2916 -91 2278 -91 
Q 1894 -91 1617 61 
Q 1341 213 1159 525 
z
M 3116 1747 
Q 3116 2381 2855 2742 
Q 2594 3103 2138 3103 
Q 1681 3103 1420 2742 
Q 1159 2381 1159 1747 
Q 1159 1113 1420 752 
Q 1681 391 2138 391 
Q 2594 391 2855 752 
Q 3116 1113 3116 1747 
z
" transform="scale(0.015625)"/>
       <path id="DejaVuSans-61" d="M 2194 1759 
Q 1497 1759 1228 1600 
Q 959 1441 959 1056 
Q 959 750 1161 570 
Q 1363 391 1709 391 
Q 2188 391 2477 730 
Q 2766 1069 2766 1631 
L 2766 1759 
L 2194 1759 
z
M 3341 1997 
L 3341 0 
L 2766 0 
L 2766 531 
Q 2569 213 2275 61 
Q 1981 -91 1556 -91 
Q 1019 -91 701 211 
Q 384 513 384 1019 
Q 384 1609 779 1909 
Q 1175 2209 1959 2209 
L 2766 2209 
L 2766 2266 
Q 2766 2663 2505 2880 
Q 2244 3097 1772 3097 
Q 1472 3097 1187 3025 
Q 903 2953 641 2809 
L 641 3341 
Q 956 3463 1253 3523 
Q 1550 3584 1831 3584 
Q 2591 3584 2966 3190 
Q 3341 2797 3341 1997 
z
" transform="scale(0.015625)"/>
       <path id="DejaVuSans-63" d="M 3122 3366 
L 3122 2828 
Q 2878 2963 2633 3030 
Q 2388 3097 2138 3097 
Q 1578 3097 1268 2742 
Q 959 2388 959 1747 
Q 959 1106 1268 751 
Q 1578 397 2138 397 
Q 2388 397 2633 464 
Q 2878 531 3122 666 
L 3122 134 
Q 2881 22 2623 -34 
Q 2366 -91 2075 -91 
Q 1284 -91 818 406 
Q 353 903 353 1747 
Q 353 2603 823 3093 
Q 1294 3584 2113 3584 
Q 2378 3584 2631 3529 
Q 2884 3475 3122 3366 
z
" transform="scale(0.015625)"/>
       <path id="DejaVuSans-65" d="M 3597 1894 
L 3597 1613 
L 953 1613 
Q 991 1019 1311 708 
Q 1631 397 2203 397 
Q 2534 397 2845 478 
Q 3156 559 3463 722 
L 3463 178 
Q 3153 47 2828 -22 
Q 2503 -91 2169 -91 
Q 1331 -91 842 396 
Q 353 884 353 1716 
Q 353 2575 817 3079 
Q 1281 3584 2069 3584 
Q 2775 3584 3186 3129 
Q 3597 2675 3597 1894 
z
M 3022 2063 
Q 3016 2534 2758 2815 
Q 2500 3097 2075 3097 
Q 1594 3097 1305 2825 
Q 1016 2553 972 2059 
L 3022 2063 
z
" transform="scale(0.015625)"/>
       <path id="DejaVuSans-20" transform="scale(0.015625)"/>
       <path id="DejaVuSans-5b" d="M 550 4863 
L 1875 4863 
L 1875 4416 
L 1125 4416 
L 1125 -397 
L 1875 -397 
L 1875 -844 
L 550 -844 
L 550 4863 
z
" transform="scale(0.015625)"/>
       <path id="DejaVuSans-6d" d="M 3328 2828 
Q 3544 3216 3844 3400 
Q 4144 3584 4550 3584 
Q 5097 3584 5394 3201 
Q 5691 2819 5691 2113 
L 5691 0 
L 5113 0 
L 5113 2094 
Q 5113 2597 4934 2840 
Q 4756 3084 4391 3084 
Q 3944 3084 3684 2787 
Q 3425 2491 3425 1978 
L 3425 0 
L 2847 0 
L 2847 2094 
Q 2847 2600 2669 2842 
Q 2491 3084 2119 3084 
Q 1678 3084 1418 2786 
Q 1159 2488 1159 1978 
L 1159 0 
L 581 0 
L 581 3500 
L 1159 3500 
L 1159 2956 
Q 1356 3278 1631 3431 
Q 1906 3584 2284 3584 
Q 2666 3584 2933 3390 
Q 3200 3197 3328 2828 
z
" transform="scale(0.015625)"/>
       <path id="DejaVuSans-5d" d="M 1947 4863 
L 1947 -844 
L 622 -844 
L 622 -397 
L 1369 -397 
L 1369 4416 
L 622 4416 
L 622 4863 
L 1947 4863 
z
" transform="scale(0.015625)"/>
      </defs>
      <use xlink:href="#DejaVuSans-73"/>
      <use xlink:href="#DejaVuSans-70" x="52.099609"/>
      <use xlink:href="#DejaVuSans-61" x="115.576172"/>
      <use xlink:href="#DejaVuSans-63" x="176.855469"/>
      <use xlink:href="#DejaVuSans-65" x="231.835938"/>
      <use xlink:href="#DejaVuSans-20" x="293.359375"/>
      <use xlink:href="#DejaVuSans-5b" x="325.146484"/>
      <use xlink:href="#DejaVuSans-6d" x="364.160156"/>
      <use xlink:href="#DejaVuSans-6d" x="461.572266"/>
      <use xlink:href="#DejaVuSans-5d" x="558.984375"/>
     </g>
    </g>
   </g>
   <g id="matplotlib.axis_4">
    <g id="ytick_7">
     <g id="line2d_27">
      <g>
       <use xlink:href="#ma3c787921d" x="56.16" y="340.798017" style="stroke: #000000; stroke-width: 0.8"/>
      </g>
     </g>
     <g id="text_26">
      <!-- 0 -->
      <g transform="translate(42.7975 344.597235) scale(0.1 -0.1)">
       <use xlink:href="#DejaVuSans-30"/>
      </g>
     </g>
    </g>
    <g id="ytick_8">
     <g id="line2d_28">
      <g>
       <use xlink:href="#ma3c787921d" x="56.16" y="303.724972" style="stroke: #000000; stroke-width: 0.8"/>
      </g>
     </g>
     <g id="text_27">
      <!-- 200 -->
      <g transform="translate(30.0725 307.52419) scale(0.1 -0.1)">
       <use xlink:href="#DejaVuSans-32"/>
       <use xlink:href="#DejaVuSans-30" x="63.623047"/>
       <use xlink:href="#DejaVuSans-30" x="127.246094"/>
      </g>
     </g>
    </g>
    <g id="ytick_9">
     <g id="line2d_29">
      <g>
       <use xlink:href="#ma3c787921d" x="56.16" y="266.651927" style="stroke: #000000; stroke-width: 0.8"/>
      </g>
     </g>
     <g id="text_28">
      <!-- 400 -->
      <g transform="translate(30.0725 270.451145) scale(0.1 -0.1)">
       <use xlink:href="#DejaVuSans-34"/>
       <use xlink:href="#DejaVuSans-30" x="63.623047"/>
       <use xlink:href="#DejaVuSans-30" x="127.246094"/>
      </g>
     </g>
    </g>
    <g id="ytick_10">
     <g id="line2d_30">
      <g>
       <use xlink:href="#ma3c787921d" x="56.16" y="229.578882" style="stroke: #000000; stroke-width: 0.8"/>
      </g>
     </g>
     <g id="text_29">
      <!-- 600 -->
      <g transform="translate(30.0725 233.3781) scale(0.1 -0.1)">
       <use xlink:href="#DejaVuSans-36"/>
       <use xlink:href="#DejaVuSans-30" x="63.623047"/>
       <use xlink:href="#DejaVuSans-30" x="127.246094"/>
      </g>
     </g>
    </g>
    <g id="text_30">
     <!-- $R(t)$ -->
     <g transform="translate(23.992812 280.528182) rotate(-90) scale(0.1 -0.1)">
      <defs>
       <path id="DejaVuSans-Oblique-52" d="M 1613 4147 
L 1294 2491 
L 2106 2491 
Q 2584 2491 2879 2755 
Q 3175 3019 3175 3444 
Q 3175 3784 2976 3965 
Q 2778 4147 2406 4147 
L 1613 4147 
z
M 2772 2241 
Q 2972 2194 3105 2009 
Q 3238 1825 3413 1275 
L 3809 0 
L 3144 0 
L 2778 1197 
Q 2638 1659 2453 1815 
Q 2269 1972 1888 1972 
L 1191 1972 
L 806 0 
L 172 0 
L 1081 4666 
L 2503 4666 
Q 3150 4666 3495 4373 
Q 3841 4081 3841 3531 
Q 3841 3044 3547 2687 
Q 3253 2331 2772 2241 
z
" transform="scale(0.015625)"/>
       <path id="DejaVuSans-28" d="M 1984 4856 
Q 1566 4138 1362 3434 
Q 1159 2731 1159 2009 
Q 1159 1288 1364 580 
Q 1569 -128 1984 -844 
L 1484 -844 
Q 1016 -109 783 600 
Q 550 1309 550 2009 
Q 550 2706 781 3412 
Q 1013 4119 1484 4856 
L 1984 4856 
z
" transform="scale(0.015625)"/>
       <path id="DejaVuSans-Oblique-74" d="M 2706 3500 
L 2619 3053 
L 1472 3053 
L 1100 1153 
Q 1081 1047 1072 975 
Q 1063 903 1063 863 
Q 1063 663 1183 572 
Q 1303 481 1569 481 
L 2150 481 
L 2053 0 
L 1503 0 
Q 991 0 739 200 
Q 488 400 488 806 
Q 488 878 497 964 
Q 506 1050 525 1153 
L 897 3053 
L 409 3053 
L 500 3500 
L 978 3500 
L 1172 4494 
L 1747 4494 
L 1556 3500 
L 2706 3500 
z
" transform="scale(0.015625)"/>
       <path id="DejaVuSans-29" d="M 513 4856 
L 1013 4856 
Q 1481 4119 1714 3412 
Q 1947 2706 1947 2009 
Q 1947 1309 1714 600 
Q 1481 -109 1013 -844 
L 513 -844 
Q 928 -128 1133 580 
Q 1338 1288 1338 2009 
Q 1338 2731 1133 3434 
Q 928 4138 513 4856 
z
" transform="scale(0.015625)"/>
      </defs>
      <use xlink:href="#DejaVuSans-Oblique-52" transform="translate(0 0.125)"/>
      <use xlink:href="#DejaVuSans-28" transform="translate(69.482422 0.125)"/>
      <use xlink:href="#DejaVuSans-Oblique-74" transform="translate(108.496094 0.125)"/>
      <use xlink:href="#DejaVuSans-29" transform="translate(147.705078 0.125)"/>
     </g>
    </g>
   </g>
   <g id="line2d_31">
    <path d="M 56.122981 340.798017 
L 109.737234 340.686919 
L 111.109888 339.904658 
L 115.470083 337.098755 
L 118.578741 334.825873 
L 123.504147 330.564212 
L 126.935782 327.280112 
L 130.004067 324.064115 
L 131.013372 322.960076 
L 133.799052 319.771668 
L 135.373567 317.920534 
L 138.239992 314.501071 
L 139.208924 313.262978 
L 140.460462 311.751752 
L 143.165398 308.265634 
L 144.376563 306.748812 
L 145.42624 305.327275 
L 146.798894 303.624096 
L 150.028668 299.378619 
L 151.280205 297.78722 
L 152.410626 296.383702 
L 153.379559 295.101442 
L 154.469608 293.785443 
L 155.519284 292.40692 
L 156.568961 291.189514 
L 159.435385 287.681736 
L 160.485062 286.506846 
L 161.453994 285.344239 
L 162.463299 284.250828 
L 163.391859 283.190328 
L 164.441536 282.082513 
L 165.370096 281.078361 
L 166.460145 279.976616 
L 167.388705 279.024783 
L 168.438381 278.015106 
L 169.366941 277.12587 
L 170.45699 276.132939 
L 171.38555 275.296279 
L 172.475599 274.367947 
L 173.404159 273.589622 
L 174.494208 272.730336 
L 175.422768 272.01496 
L 176.512817 271.226516 
L 177.481749 270.540076 
L 178.531426 269.853201 
L 179.500358 269.230493 
L 180.550035 268.611131 
L 181.559339 268.023824 
L 182.609016 267.481751 
L 183.658693 266.935497 
L 184.667997 266.493099 
L 185.798418 265.971562 
L 186.848095 265.598544 
L 191.329406 264.184422 
L 192.863549 263.839336 
L 198.031188 263.106668 
L 200.29203 263.011535 
L 203.80441 263.108844 
L 205.903763 263.283746 
L 208.285721 263.586672 
L 211.515496 264.185616 
L 214.624153 264.918852 
L 218.742116 266.15473 
L 222.214123 267.421227 
L 226.210969 269.127614 
L 230.450047 271.243598 
L 234.164288 273.376687 
L 239.695276 277.043933 
L 245.952964 282.01049 
L 253.744794 289.399846 
L 260.002482 296.286334 
L 263.232256 300.144101 
L 264.201188 301.336913 
L 265.573842 303.016166 
L 268.319151 306.492014 
L 269.691805 308.188465 
L 274.657583 314.674864 
L 277.039541 317.783658 
L 289.474172 332.916227 
L 290.402732 333.948419 
L 291.573525 335.23434 
L 292.502085 336.207975 
L 293.632506 337.356977 
L 294.520694 338.249687 
L 295.691488 339.382889 
L 296.620048 340.313588 
L 297.22563 340.798017 
L 379.14078 340.798017 
L 379.14078 340.798017 
" clip-path="url(#pe4721dc92d)" style="fill: none; stroke: #1f77b4; stroke-width: 4; stroke-linecap: square"/>
   </g>
   <g id="line2d_32">
    <path d="M 56.122981 340.798017 
L 112.482542 340.711596 
L 115.308595 338.761029 
L 118.538369 336.222896 
L 121.364421 333.701196 
L 124.755684 330.332252 
L 127.985459 326.751678 
L 130.811511 323.359209 
L 134.606496 318.41545 
L 138.239992 313.314831 
L 141.55051 308.414479 
L 148.656014 297.360677 
L 161.575111 277.183613 
L 164.804885 272.540687 
L 168.761359 267.23671 
L 172.475599 262.723095 
L 176.109095 258.812697 
L 178.692915 256.372909 
L 181.841944 253.773755 
L 184.102786 252.17393 
L 186.363628 250.804293 
L 188.866704 249.557193 
L 191.531267 248.522472 
L 193.711365 247.896202 
L 195.891463 247.464207 
L 198.07156 247.219701 
L 200.332402 247.15562 
L 202.754733 247.292401 
L 205.580785 247.702644 
L 208.245349 248.314 
L 210.990657 249.163011 
L 214.139687 250.385224 
L 217.207973 251.813596 
L 220.518491 253.598432 
L 223.909754 255.677512 
L 227.704739 258.285814 
L 231.41898 261.123705 
L 234.971731 264.119092 
L 238.362994 267.217229 
L 242.238723 271.088537 
L 246.43743 275.660227 
L 250.636136 280.654761 
L 254.915587 286.187295 
L 259.03355 291.911139 
L 263.151512 298.003841 
L 266.704263 303.568435 
L 276.878052 320.19667 
L 282.20718 328.937231 
L 287.617052 337.506569 
L 289.877894 340.798017 
L 379.181152 340.798017 
L 379.181152 340.798017 
" clip-path="url(#pe4721dc92d)" style="fill: none; stroke: #ff7f0e; stroke-width: 4; stroke-linecap: square"/>
   </g>
   <g id="line2d_33">
    <path d="M 56.042237 340.798017 
L 116.116038 340.717189 
L 118.780602 338.699642 
L 121.566282 336.314045 
L 124.473079 333.516717 
L 127.258759 330.541555 
L 130.407789 326.82133 
L 133.435703 322.910646 
L 136.948082 317.97154 
L 140.460462 312.64328 
L 144.336191 306.374203 
L 148.57527 299.141269 
L 154.267747 289.059247 
L 164.441536 271.140553 
L 169.407314 263.003897 
L 172.919693 257.640077 
L 176.18984 253.061969 
L 179.217753 249.21552 
L 182.12455 245.884731 
L 184.667997 243.2855 
L 187.211444 241.008968 
L 189.633775 239.131572 
L 191.934989 237.621646 
L 194.236203 236.377468 
L 196.416301 235.437414 
L 198.596399 234.731026 
L 200.897613 234.227998 
L 203.198827 233.965931 
L 205.500041 233.938986 
L 207.801255 234.132873 
L 210.102469 234.53996 
L 212.5248 235.187447 
L 215.068247 236.095257 
L 217.732811 237.283869 
L 220.518491 238.770192 
L 223.425288 240.572852 
L 226.453202 242.710241 
L 229.723348 245.3031 
L 232.993495 248.184491 
L 236.384757 251.468238 
L 239.897137 255.189048 
L 243.530633 259.384861 
L 246.921896 263.629772 
L 250.676509 268.68924 
L 254.673354 274.504569 
L 258.549083 280.55854 
L 262.909279 287.827701 
L 267.632824 296.203757 
L 272.356368 305.01307 
L 279.623361 319.073083 
L 290.523849 340.022598 
L 291.008315 340.798017 
L 379.181152 340.798017 
L 379.181152 340.798017 
" clip-path="url(#pe4721dc92d)" style="fill: none; stroke: #2ca02c; stroke-width: 4; stroke-linecap: square"/>
   </g>
   <g id="line2d_34">
    <path d="M 56.122981 340.798017 
L 119.588045 340.756727 
L 122.333354 338.54908 
L 125.078662 336.055655 
L 127.985459 333.09193 
L 130.730767 329.987938 
L 133.637563 326.376824 
L 136.867338 321.984924 
L 140.097112 317.205174 
L 143.488375 311.807436 
L 147.364104 305.216302 
L 151.885788 297.066765 
L 158.022359 285.499778 
L 168.196148 266.258589 
L 172.717832 258.198158 
L 176.593561 251.737959 
L 179.984824 246.518552 
L 183.05311 242.196195 
L 185.959907 238.488356 
L 188.543726 235.529043 
L 191.127546 232.901754 
L 193.549876 230.747626 
L 195.972207 228.894461 
L 198.233049 227.43943 
L 200.493891 226.247802 
L 202.754733 225.316729 
L 205.015575 224.642174 
L 207.276417 224.217162 
L 209.537259 224.035578 
L 211.798101 224.088799 
L 214.058943 224.369243 
L 216.319785 224.86794 
L 218.742116 225.635139 
L 221.164446 226.633341 
L 223.748266 227.94312 
L 226.493574 229.599092 
L 229.238882 231.515677 
L 232.145679 233.819366 
L 235.213964 236.550759 
L 238.28225 239.582726 
L 241.512024 243.096564 
L 244.741798 246.938823 
L 248.133061 251.326255 
L 251.524324 256.07919 
L 254.915587 261.195533 
L 258.629828 267.210134 
L 262.505557 273.933103 
L 266.542775 281.400767 
L 271.064459 290.298836 
L 276.393586 301.33799 
L 285.436954 320.738513 
L 294.480322 339.997562 
L 294.964788 340.798017 
L 379.261897 340.798017 
L 379.261897 340.798017 
" clip-path="url(#pe4721dc92d)" style="fill: none; stroke: #d62728; stroke-width: 4; stroke-linecap: square"/>
   </g>
   <g id="line2d_35">
    <path d="M 55.961492 340.798017 
L 122.777448 340.798017 
L 124.190474 339.675056 
L 126.814665 337.359479 
L 129.640718 334.560225 
L 132.46677 331.440319 
L 135.292823 327.997534 
L 138.320736 323.953552 
L 141.34865 319.555126 
L 144.780285 314.162928 
L 148.413781 308.023444 
L 152.450999 300.756924 
L 157.29566 291.560606 
L 165.168235 276.037041 
L 172.637088 261.472374 
L 177.279888 252.91005 
L 181.115245 246.296095 
L 184.54688 240.819367 
L 187.574794 236.38569 
L 190.400846 232.614929 
L 193.025038 229.453236 
L 195.64923 226.632154 
L 198.07156 224.338354 
L 200.493891 222.347529 
L 202.714361 220.790635 
L 204.934831 219.489709 
L 207.1553 218.442779 
L 209.37577 217.646546 
L 211.59624 217.09661 
L 213.81671 216.787687 
L 216.03718 216.713833 
L 218.257649 216.868662 
L 220.478119 217.245565 
L 222.698589 217.837914 
L 225.12092 218.722237 
L 227.54325 219.847239 
L 229.965581 221.205865 
L 232.589773 222.934257 
L 235.213964 224.922709 
L 238.040017 227.348271 
L 240.866069 230.065016 
L 243.893983 233.293763 
L 246.921896 236.85058 
L 250.15167 241.003022 
L 253.381445 245.526524 
L 256.611219 250.415968 
L 260.042854 256.007896 
L 263.67635 262.365053 
L 267.511707 269.543353 
L 271.548925 277.580312 
L 275.989864 286.920653 
L 281.238248 298.496511 
L 289.312683 316.941939 
L 297.790841 336.16908 
L 299.80945 340.58881 
L 300.011311 340.798017 
L 379.14078 340.798017 
L 379.14078 340.798017 
" clip-path="url(#pe4721dc92d)" style="fill: none; stroke: #9467bd; stroke-width: 4; stroke-linecap: square"/>
   </g>
   <g id="line2d_36">
    <path d="M 56.042237 340.798017 
L 126.047594 340.696753 
L 128.712158 338.430056 
L 131.376722 335.886925 
L 134.283518 332.78557 
L 137.190315 329.343632 
L 140.097112 325.558528 
L 143.246142 321.08246 
L 146.395172 316.228601 
L 150.028668 310.19645 
L 153.904397 303.303522 
L 158.264592 295.088153 
L 164.078186 283.612639 
L 178.127704 255.695624 
L 182.487899 247.645271 
L 186.121395 241.358829 
L 189.512658 235.915643 
L 192.661688 231.281568 
L 195.568485 227.394547 
L 198.233049 224.182542 
L 200.897613 221.318342 
L 203.319943 219.025141 
L 205.742274 217.03171 
L 208.164605 215.338873 
L 210.344702 214.073178 
L 212.5248 213.04946 
L 214.704898 212.265226 
L 216.884995 211.717538 
L 219.065093 211.401871 
L 221.245191 211.313811 
L 223.425288 211.44903 
L 225.605386 211.802133 
L 227.785483 212.368392 
L 230.207814 213.242756 
L 232.630145 214.368459 
L 235.052476 215.741105 
L 237.717039 217.529476 
L 240.381603 219.604981 
L 243.046167 221.966309 
L 245.952964 224.861319 
L 248.859761 228.090913 
L 251.766557 231.648307 
L 254.915587 235.875117 
L 258.064617 240.481008 
L 261.213647 245.467064 
L 264.60491 251.244676 
L 268.238406 257.897662 
L 272.114135 265.488772 
L 276.232098 274.06145 
L 280.834526 284.178177 
L 286.405887 296.995629 
L 297.790841 323.946401 
L 303.846668 337.891194 
L 305.057833 340.589394 
L 305.300066 340.798017 
L 379.181152 340.798017 
L 379.181152 340.798017 
" clip-path="url(#pe4721dc92d)" style="fill: none; stroke: #8c564b; stroke-width: 4; stroke-linecap: square"/>
   </g>
   <g id="line2d_37">
    <path d="M 56.001864 340.798017 
L 128.914019 340.69594 
L 131.740071 338.275684 
L 134.566124 335.547067 
L 137.392176 332.497027 
L 140.218229 329.116556 
L 143.044281 325.406515 
L 146.152939 320.968308 
L 149.544202 315.72316 
L 152.935465 310.073603 
L 156.609333 303.53286 
L 161.131017 295.006181 
L 166.783122 283.829887 
L 182.609016 252.176295 
L 186.848095 244.339592 
L 190.521963 237.991431 
L 193.913226 232.561935 
L 197.021884 227.985675 
L 199.847936 224.185811 
L 202.673989 220.754279 
L 205.217436 217.99341 
L 207.760883 215.548722 
L 210.30433 213.423603 
L 212.565172 211.804654 
L 214.826014 210.440989 
L 217.086856 209.332627 
L 219.347698 208.477575 
L 221.60854 207.873008 
L 223.869382 207.515785 
L 226.130224 207.402419 
L 228.391066 207.528147 
L 230.651908 207.888829 
L 232.91275 208.481211 
L 235.173592 209.302582 
L 237.434434 210.350636 
L 239.695276 211.623452 
L 242.238723 213.3175 
L 244.782171 215.284336 
L 247.325618 217.523204 
L 249.869065 220.034772 
L 252.695118 223.147384 
L 255.52117 226.594949 
L 258.629828 230.759651 
L 261.738486 235.314555 
L 264.847143 240.260407 
L 268.238406 246.097572 
L 271.912274 252.902193 
L 275.586143 260.170864 
L 279.542616 268.487431 
L 284.0643 278.536291 
L 289.716405 291.677686 
L 298.194563 312.049867 
L 305.824904 330.159625 
L 310.346588 340.428399 
L 310.629194 340.798017 
L 379.302269 340.798017 
L 379.302269 340.798017 
" clip-path="url(#pe4721dc92d)" style="fill: none; stroke: #e377c2; stroke-width: 4; stroke-linecap: square"/>
   </g>
   <g id="line2d_38">
    <path d="M 55.961492 340.798017 
L 131.53821 340.693281 
L 134.12203 338.486762 
L 137.028826 335.698009 
L 139.935623 332.580665 
L 142.84242 329.125435 
L 145.749217 325.338913 
L 148.978991 320.752027 
L 152.208766 315.77506 
L 155.761517 309.89165 
L 159.637246 303.02541 
L 164.15893 294.531761 
L 169.649547 283.706357 
L 186.444373 250.220104 
L 190.643079 242.499739 
L 194.518809 235.829889 
L 198.07156 230.174914 
L 201.301334 225.459194 
L 204.208131 221.591791 
L 207.114928 218.098866 
L 209.698748 215.32097 
L 212.282567 212.858883 
L 214.866386 210.71678 
L 217.127228 209.107224 
L 219.38807 207.745934 
L 221.648912 206.632711 
L 223.909754 205.766715 
L 226.170596 205.145966 
L 228.431438 204.768542 
L 230.69228 204.632294 
L 232.953122 204.733892 
L 235.213964 205.071061 
L 237.474806 205.642641 
L 239.735648 206.445756 
L 241.99649 207.477465 
L 244.257332 208.73731 
L 246.841152 210.456176 
L 249.424971 212.467843 
L 252.008791 214.771475 
L 254.59261 217.369125 
L 257.499407 220.636322 
L 260.406204 224.266851 
L 263.313 228.261876 
L 266.542775 233.113319 
L 269.772549 238.395732 
L 273.002323 244.103056 
L 276.555075 250.835656 
L 280.430804 258.68053 
L 284.629511 267.691848 
L 289.151195 277.918166 
L 295.287766 292.40306 
L 311.436637 330.871836 
L 315.635344 340.244337 
L 315.958321 340.798017 
L 379.261897 340.798017 
L 379.261897 340.798017 
" clip-path="url(#pe4721dc92d)" style="fill: none; stroke: #7f7f7f; stroke-width: 4; stroke-linecap: square"/>
   </g>
   <g id="line2d_39">
    <path d="M 55.92112 340.798017 
L 133.677936 340.798017 
L 134.041285 340.680836 
L 136.948082 338.194739 
L 139.854879 335.3939 
L 142.761676 332.271324 
L 145.668473 328.822694 
L 148.57527 325.047984 
L 151.845416 320.418632 
L 155.115562 315.398968 
L 158.749058 309.408451 
L 162.745904 302.371767 
L 167.106099 294.243907 
L 172.556343 283.594424 
L 189.633775 249.808755 
L 193.99397 241.825793 
L 197.990816 234.974623 
L 201.624312 229.205046 
L 204.894458 224.430564 
L 207.801255 220.546499 
L 210.708052 217.02084 
L 213.614849 213.869059 
L 216.158296 211.426214 
L 218.701743 209.282436 
L 221.245191 207.441091 
L 223.788638 205.904019 
L 225.968735 204.828952 
L 228.148833 203.977665 
L 230.328931 203.349431 
L 232.509028 202.943878 
L 234.689126 202.759911 
L 236.869224 202.79699 
L 239.049321 203.054065 
L 241.229419 203.530501 
L 243.409517 204.223972 
L 245.589614 205.133321 
L 247.769712 206.257405 
L 250.313159 207.840637 
L 252.856606 209.715969 
L 255.400054 211.884174 
L 257.943501 214.344707 
L 260.486948 217.09584 
L 263.393745 220.588655 
L 266.300542 224.449044 
L 269.207339 228.67363 
L 272.477485 233.852776 
L 275.747631 239.470856 
L 279.381127 246.200323 
L 283.014624 253.395232 
L 287.011469 261.792232 
L 291.735014 272.273366 
L 297.185258 284.935111 
L 317.532836 332.77485 
L 321.166332 340.631914 
L 321.529682 340.798017 
L 379.302269 340.798017 
L 379.302269 340.798017 
" clip-path="url(#pe4721dc92d)" style="fill: none; stroke: #bcbd22; stroke-width: 4; stroke-linecap: square"/>
   </g>
   <g id="line2d_40">
    <path d="M 55.961492 340.798017 
L 135.898405 340.798017 
L 136.705849 340.273699 
L 139.531902 337.842328 
L 142.357954 335.116053 
L 145.184007 332.090325 
L 148.010059 328.76311 
L 151.239833 324.595222 
L 154.469608 320.047171 
L 157.699382 315.137069 
L 161.332878 309.211042 
L 165.370096 302.182069 
L 169.811035 294.001068 
L 175.46314 283.099892 
L 192.823177 249.216005 
L 197.264117 241.197252 
L 201.301334 234.362057 
L 204.934831 228.650396 
L 208.164605 223.965733 
L 211.394379 219.680846 
L 214.220432 216.278336 
L 217.046484 213.212765 
L 219.872537 210.493967 
L 222.294867 208.445148 
L 224.717198 206.659814 
L 227.139529 205.140282 
L 229.561859 203.888028 
L 231.98419 202.903861 
L 234.406521 202.188162 
L 236.828851 201.740967 
L 239.251182 201.562085 
L 241.269791 201.617736 
L 243.692122 201.929978 
L 246.114452 202.509672 
L 248.536783 203.35671 
L 250.959114 204.471014 
L 253.381445 205.852485 
L 255.803775 207.500929 
L 258.226106 209.415499 
L 260.648437 211.595838 
L 263.474489 214.474206 
L 266.300542 217.710961 
L 269.126594 221.302615 
L 271.952647 225.243659 
L 275.182421 230.164566 
L 278.412195 235.515031 
L 281.641969 241.273715 
L 285.275466 248.206904 
L 289.312683 256.420514 
L 293.753623 265.986422 
L 299.002006 277.847333 
L 306.67272 295.807035 
L 316.765765 319.356437 
L 322.014148 331.021271 
L 326.455087 340.358963 
L 326.858809 340.798017 
L 379.342641 340.798017 
L 379.342641 340.798017 
" clip-path="url(#pe4721dc92d)" style="fill: none; stroke: #17becf; stroke-width: 4; stroke-linecap: square"/>
   </g>
   <g id="line2d_41">
    <path d="M 217.648714 347.76 
L 217.648714 194.596364 
" clip-path="url(#pe4721dc92d)" style="fill: none; stroke-dasharray: 1,1.65; stroke-dashoffset: 0; stroke: #808080"/>
   </g>
   <g id="patch_8">
    <path d="M 56.16 347.76 
L 56.16 194.596364 
" style="fill: none; stroke: #000000; stroke-width: 0.8; stroke-linejoin: miter; stroke-linecap: square"/>
   </g>
   <g id="patch_9">
    <path d="M 379.137427 347.76 
L 379.137427 194.596364 
" style="fill: none; stroke: #000000; stroke-width: 0.8; stroke-linejoin: miter; stroke-linecap: square"/>
   </g>
   <g id="patch_10">
    <path d="M 56.16 347.76 
L 379.137427 347.76 
" style="fill: none; stroke: #000000; stroke-width: 0.8; stroke-linejoin: miter; stroke-linecap: square"/>
   </g>
   <g id="patch_11">
    <path d="M 56.16 194.596364 
L 379.137427 194.596364 
" style="fill: none; stroke: #000000; stroke-width: 0.8; stroke-linejoin: miter; stroke-linecap: square"/>
   </g>
  </g>
  <g id="axes_3">
   <g id="patch_12">
    <path d="M 454.622573 347.76 
L 777.6 347.76 
L 777.6 10.8 
L 454.622573 10.8 
z
" style="fill: #ffffff"/>
   </g>
   <g id="matplotlib.axis_5">
    <g id="xtick_19">
     <g id="line2d_42">
      <g>
       <use xlink:href="#mf056969f89" x="469.303365" y="347.76" style="stroke: #000000; stroke-width: 0.8"/>
      </g>
     </g>
     <g id="text_31">
      <!-- $\mathdefault{10^{-1}}$ -->
      <g transform="translate(457.553365 362.358438) scale(0.1 -0.1)">
       <use xlink:href="#DejaVuSans-31" transform="translate(0 0.684375)"/>
       <use xlink:href="#DejaVuSans-30" transform="translate(63.623047 0.684375)"/>
       <use xlink:href="#DejaVuSans-2212" transform="translate(128.203125 38.965625) scale(0.7)"/>
       <use xlink:href="#DejaVuSans-31" transform="translate(186.855469 38.965625) scale(0.7)"/>
      </g>
     </g>
    </g>
    <g id="xtick_20">
     <g id="line2d_43">
      <g>
       <use xlink:href="#mf056969f89" x="762.919208" y="347.76" style="stroke: #000000; stroke-width: 0.8"/>
      </g>
     </g>
     <g id="text_32">
      <!-- $\mathdefault{10^{0}}$ -->
      <g transform="translate(754.119208 362.358438) scale(0.1 -0.1)">
       <use xlink:href="#DejaVuSans-31" transform="translate(0 0.765625)"/>
       <use xlink:href="#DejaVuSans-30" transform="translate(63.623047 0.765625)"/>
       <use xlink:href="#DejaVuSans-30" transform="translate(128.203125 39.046875) scale(0.7)"/>
      </g>
     </g>
    </g>
    <g id="xtick_21">
     <g id="line2d_44">
      <defs>
       <path id="m6e72007420" d="M 0 0 
L 0 2 
" style="stroke: #000000; stroke-width: 0.6"/>
      </defs>
      <g>
       <use xlink:href="#m6e72007420" x="455.868241" y="347.76" style="stroke: #000000; stroke-width: 0.6"/>
      </g>
     </g>
    </g>
    <g id="xtick_22">
     <g id="line2d_45">
      <g>
       <use xlink:href="#m6e72007420" x="557.690541" y="347.76" style="stroke: #000000; stroke-width: 0.6"/>
      </g>
     </g>
    </g>
    <g id="xtick_23">
     <g id="line2d_46">
      <g>
       <use xlink:href="#m6e72007420" x="609.393724" y="347.76" style="stroke: #000000; stroke-width: 0.6"/>
      </g>
     </g>
    </g>
    <g id="xtick_24">
     <g id="line2d_47">
      <g>
       <use xlink:href="#m6e72007420" x="646.077717" y="347.76" style="stroke: #000000; stroke-width: 0.6"/>
      </g>
     </g>
    </g>
    <g id="xtick_25">
     <g id="line2d_48">
      <g>
       <use xlink:href="#m6e72007420" x="674.532032" y="347.76" style="stroke: #000000; stroke-width: 0.6"/>
      </g>
     </g>
    </g>
    <g id="xtick_26">
     <g id="line2d_49">
      <g>
       <use xlink:href="#m6e72007420" x="697.7809" y="347.76" style="stroke: #000000; stroke-width: 0.6"/>
      </g>
     </g>
    </g>
    <g id="xtick_27">
     <g id="line2d_50">
      <g>
       <use xlink:href="#m6e72007420" x="717.437538" y="347.76" style="stroke: #000000; stroke-width: 0.6"/>
      </g>
     </g>
    </g>
    <g id="xtick_28">
     <g id="line2d_51">
      <g>
       <use xlink:href="#m6e72007420" x="734.464893" y="347.76" style="stroke: #000000; stroke-width: 0.6"/>
      </g>
     </g>
    </g>
    <g id="xtick_29">
     <g id="line2d_52">
      <g>
       <use xlink:href="#m6e72007420" x="749.484084" y="347.76" style="stroke: #000000; stroke-width: 0.6"/>
      </g>
     </g>
    </g>
    <g id="text_33">
     <!-- v [mm/s] -->
     <g transform="translate(593.631599 376.036563) scale(0.1 -0.1)">
      <defs>
       <path id="DejaVuSans-76" d="M 191 3500 
L 800 3500 
L 1894 563 
L 2988 3500 
L 3597 3500 
L 2284 0 
L 1503 0 
L 191 3500 
z
" transform="scale(0.015625)"/>
       <path id="DejaVuSans-2f" d="M 1625 4666 
L 2156 4666 
L 531 -594 
L 0 -594 
L 1625 4666 
z
" transform="scale(0.015625)"/>
      </defs>
      <use xlink:href="#DejaVuSans-76"/>
      <use xlink:href="#DejaVuSans-20" x="59.179688"/>
      <use xlink:href="#DejaVuSans-5b" x="90.966797"/>
      <use xlink:href="#DejaVuSans-6d" x="129.980469"/>
      <use xlink:href="#DejaVuSans-6d" x="227.392578"/>
      <use xlink:href="#DejaVuSans-2f" x="324.804688"/>
      <use xlink:href="#DejaVuSans-73" x="358.496094"/>
      <use xlink:href="#DejaVuSans-5d" x="410.595703"/>
     </g>
    </g>
   </g>
   <g id="matplotlib.axis_6">
    <g id="ytick_11">
     <g id="line2d_53">
      <g>
       <use xlink:href="#ma3c787921d" x="454.622573" y="347.76" style="stroke: #000000; stroke-width: 0.8"/>
      </g>
     </g>
     <g id="text_34">
      <!-- −0.20 -->
      <g transform="translate(416.97726 351.559219) scale(0.1 -0.1)">
       <use xlink:href="#DejaVuSans-2212"/>
       <use xlink:href="#DejaVuSans-30" x="83.789062"/>
       <use xlink:href="#DejaVuSans-2e" x="147.412109"/>
       <use xlink:href="#DejaVuSans-32" x="179.199219"/>
       <use xlink:href="#DejaVuSans-30" x="242.822266"/>
      </g>
     </g>
    </g>
    <g id="ytick_12">
     <g id="line2d_54">
      <g>
       <use xlink:href="#ma3c787921d" x="454.622573" y="310.32" style="stroke: #000000; stroke-width: 0.8"/>
      </g>
     </g>
     <g id="text_35">
      <!-- −0.15 -->
      <g transform="translate(416.97726 314.119219) scale(0.1 -0.1)">
       <defs>
        <path id="DejaVuSans-35" d="M 691 4666 
L 3169 4666 
L 3169 4134 
L 1269 4134 
L 1269 2991 
Q 1406 3038 1543 3061 
Q 1681 3084 1819 3084 
Q 2600 3084 3056 2656 
Q 3513 2228 3513 1497 
Q 3513 744 3044 326 
Q 2575 -91 1722 -91 
Q 1428 -91 1123 -41 
Q 819 9 494 109 
L 494 744 
Q 775 591 1075 516 
Q 1375 441 1709 441 
Q 2250 441 2565 725 
Q 2881 1009 2881 1497 
Q 2881 1984 2565 2268 
Q 2250 2553 1709 2553 
Q 1456 2553 1204 2497 
Q 953 2441 691 2322 
L 691 4666 
z
" transform="scale(0.015625)"/>
       </defs>
       <use xlink:href="#DejaVuSans-2212"/>
       <use xlink:href="#DejaVuSans-30" x="83.789062"/>
       <use xlink:href="#DejaVuSans-2e" x="147.412109"/>
       <use xlink:href="#DejaVuSans-31" x="179.199219"/>
       <use xlink:href="#DejaVuSans-35" x="242.822266"/>
      </g>
     </g>
    </g>
    <g id="ytick_13">
     <g id="line2d_55">
      <g>
       <use xlink:href="#ma3c787921d" x="454.622573" y="272.88" style="stroke: #000000; stroke-width: 0.8"/>
      </g>
     </g>
     <g id="text_36">
      <!-- −0.10 -->
      <g transform="translate(416.97726 276.679219) scale(0.1 -0.1)">
       <use xlink:href="#DejaVuSans-2212"/>
       <use xlink:href="#DejaVuSans-30" x="83.789062"/>
       <use xlink:href="#DejaVuSans-2e" x="147.412109"/>
       <use xlink:href="#DejaVuSans-31" x="179.199219"/>
       <use xlink:href="#DejaVuSans-30" x="242.822266"/>
      </g>
     </g>
    </g>
    <g id="ytick_14">
     <g id="line2d_56">
      <g>
       <use xlink:href="#ma3c787921d" x="454.622573" y="235.44" style="stroke: #000000; stroke-width: 0.8"/>
      </g>
     </g>
     <g id="text_37">
      <!-- −0.05 -->
      <g transform="translate(416.97726 239.239219) scale(0.1 -0.1)">
       <use xlink:href="#DejaVuSans-2212"/>
       <use xlink:href="#DejaVuSans-30" x="83.789062"/>
       <use xlink:href="#DejaVuSans-2e" x="147.412109"/>
       <use xlink:href="#DejaVuSans-30" x="179.199219"/>
       <use xlink:href="#DejaVuSans-35" x="242.822266"/>
      </g>
     </g>
    </g>
    <g id="ytick_15">
     <g id="line2d_57">
      <g>
       <use xlink:href="#ma3c787921d" x="454.622573" y="198" style="stroke: #000000; stroke-width: 0.8"/>
      </g>
     </g>
     <g id="text_38">
      <!-- 0.00 -->
      <g transform="translate(425.356948 201.799219) scale(0.1 -0.1)">
       <use xlink:href="#DejaVuSans-30"/>
       <use xlink:href="#DejaVuSans-2e" x="63.623047"/>
       <use xlink:href="#DejaVuSans-30" x="95.410156"/>
       <use xlink:href="#DejaVuSans-30" x="159.033203"/>
      </g>
     </g>
    </g>
    <g id="ytick_16">
     <g id="line2d_58">
      <g>
       <use xlink:href="#ma3c787921d" x="454.622573" y="160.56" style="stroke: #000000; stroke-width: 0.8"/>
      </g>
     </g>
     <g id="text_39">
      <!-- 0.05 -->
      <g transform="translate(425.356948 164.359219) scale(0.1 -0.1)">
       <use xlink:href="#DejaVuSans-30"/>
       <use xlink:href="#DejaVuSans-2e" x="63.623047"/>
       <use xlink:href="#DejaVuSans-30" x="95.410156"/>
       <use xlink:href="#DejaVuSans-35" x="159.033203"/>
      </g>
     </g>
    </g>
    <g id="ytick_17">
     <g id="line2d_59">
      <g>
       <use xlink:href="#ma3c787921d" x="454.622573" y="123.12" style="stroke: #000000; stroke-width: 0.8"/>
      </g>
     </g>
     <g id="text_40">
      <!-- 0.10 -->
      <g transform="translate(425.356948 126.919219) scale(0.1 -0.1)">
       <use xlink:href="#DejaVuSans-30"/>
       <use xlink:href="#DejaVuSans-2e" x="63.623047"/>
       <use xlink:href="#DejaVuSans-31" x="95.410156"/>
       <use xlink:href="#DejaVuSans-30" x="159.033203"/>
      </g>
     </g>
    </g>
    <g id="ytick_18">
     <g id="line2d_60">
      <g>
       <use xlink:href="#ma3c787921d" x="454.622573" y="85.68" style="stroke: #000000; stroke-width: 0.8"/>
      </g>
     </g>
     <g id="text_41">
      <!-- 0.15 -->
      <g transform="translate(425.356948 89.479219) scale(0.1 -0.1)">
       <use xlink:href="#DejaVuSans-30"/>
       <use xlink:href="#DejaVuSans-2e" x="63.623047"/>
       <use xlink:href="#DejaVuSans-31" x="95.410156"/>
       <use xlink:href="#DejaVuSans-35" x="159.033203"/>
      </g>
     </g>
    </g>
    <g id="ytick_19">
     <g id="line2d_61">
      <g>
       <use xlink:href="#ma3c787921d" x="454.622573" y="48.24" style="stroke: #000000; stroke-width: 0.8"/>
      </g>
     </g>
     <g id="text_42">
      <!-- 0.20 -->
      <g transform="translate(425.356948 52.039219) scale(0.1 -0.1)">
       <use xlink:href="#DejaVuSans-30"/>
       <use xlink:href="#DejaVuSans-2e" x="63.623047"/>
       <use xlink:href="#DejaVuSans-32" x="95.410156"/>
       <use xlink:href="#DejaVuSans-30" x="159.033203"/>
      </g>
     </g>
    </g>
    <g id="ytick_20">
     <g id="line2d_62">
      <g>
       <use xlink:href="#ma3c787921d" x="454.622573" y="10.8" style="stroke: #000000; stroke-width: 0.8"/>
      </g>
     </g>
     <g id="text_43">
      <!-- 0.25 -->
      <g transform="translate(425.356948 14.599219) scale(0.1 -0.1)">
       <use xlink:href="#DejaVuSans-30"/>
       <use xlink:href="#DejaVuSans-2e" x="63.623047"/>
       <use xlink:href="#DejaVuSans-32" x="95.410156"/>
       <use xlink:href="#DejaVuSans-35" x="159.033203"/>
      </g>
     </g>
    </g>
    <g id="text_44">
     <!-- anticipation [$mm$] -->
     <g transform="translate(410.87726 224.08) rotate(-90) scale(0.1 -0.1)">
      <defs>
       <path id="DejaVuSans-6e" d="M 3513 2113 
L 3513 0 
L 2938 0 
L 2938 2094 
Q 2938 2591 2744 2837 
Q 2550 3084 2163 3084 
Q 1697 3084 1428 2787 
Q 1159 2491 1159 1978 
L 1159 0 
L 581 0 
L 581 3500 
L 1159 3500 
L 1159 2956 
Q 1366 3272 1645 3428 
Q 1925 3584 2291 3584 
Q 2894 3584 3203 3211 
Q 3513 2838 3513 2113 
z
" transform="scale(0.015625)"/>
       <path id="DejaVuSans-74" d="M 1172 4494 
L 1172 3500 
L 2356 3500 
L 2356 3053 
L 1172 3053 
L 1172 1153 
Q 1172 725 1289 603 
Q 1406 481 1766 481 
L 2356 481 
L 2356 0 
L 1766 0 
Q 1100 0 847 248 
Q 594 497 594 1153 
L 594 3053 
L 172 3053 
L 172 3500 
L 594 3500 
L 594 4494 
L 1172 4494 
z
" transform="scale(0.015625)"/>
       <path id="DejaVuSans-69" d="M 603 3500 
L 1178 3500 
L 1178 0 
L 603 0 
L 603 3500 
z
M 603 4863 
L 1178 4863 
L 1178 4134 
L 603 4134 
L 603 4863 
z
" transform="scale(0.015625)"/>
       <path id="DejaVuSans-6f" d="M 1959 3097 
Q 1497 3097 1228 2736 
Q 959 2375 959 1747 
Q 959 1119 1226 758 
Q 1494 397 1959 397 
Q 2419 397 2687 759 
Q 2956 1122 2956 1747 
Q 2956 2369 2687 2733 
Q 2419 3097 1959 3097 
z
M 1959 3584 
Q 2709 3584 3137 3096 
Q 3566 2609 3566 1747 
Q 3566 888 3137 398 
Q 2709 -91 1959 -91 
Q 1206 -91 779 398 
Q 353 888 353 1747 
Q 353 2609 779 3096 
Q 1206 3584 1959 3584 
z
" transform="scale(0.015625)"/>
       <path id="DejaVuSans-Oblique-6d" d="M 5747 2113 
L 5338 0 
L 4763 0 
L 5166 2094 
Q 5191 2228 5203 2325 
Q 5216 2422 5216 2491 
Q 5216 2772 5059 2928 
Q 4903 3084 4622 3084 
Q 4203 3084 3875 2770 
Q 3547 2456 3450 1953 
L 3066 0 
L 2491 0 
L 2900 2094 
Q 2925 2209 2937 2307 
Q 2950 2406 2950 2484 
Q 2950 2769 2794 2926 
Q 2638 3084 2363 3084 
Q 1938 3084 1609 2770 
Q 1281 2456 1184 1953 
L 800 0 
L 225 0 
L 909 3500 
L 1484 3500 
L 1375 2956 
Q 1609 3263 1923 3423 
Q 2238 3584 2597 3584 
Q 2978 3584 3223 3384 
Q 3469 3184 3519 2828 
Q 3781 3197 4126 3390 
Q 4472 3584 4856 3584 
Q 5306 3584 5551 3325 
Q 5797 3066 5797 2591 
Q 5797 2488 5784 2364 
Q 5772 2241 5747 2113 
z
" transform="scale(0.015625)"/>
      </defs>
      <use xlink:href="#DejaVuSans-61" transform="translate(0 0.015625)"/>
      <use xlink:href="#DejaVuSans-6e" transform="translate(61.279297 0.015625)"/>
      <use xlink:href="#DejaVuSans-74" transform="translate(124.658203 0.015625)"/>
      <use xlink:href="#DejaVuSans-69" transform="translate(163.867188 0.015625)"/>
      <use xlink:href="#DejaVuSans-63" transform="translate(191.650391 0.015625)"/>
      <use xlink:href="#DejaVuSans-69" transform="translate(246.630859 0.015625)"/>
      <use xlink:href="#DejaVuSans-70" transform="translate(274.414062 0.015625)"/>
      <use xlink:href="#DejaVuSans-61" transform="translate(337.890625 0.015625)"/>
      <use xlink:href="#DejaVuSans-74" transform="translate(399.169922 0.015625)"/>
      <use xlink:href="#DejaVuSans-69" transform="translate(438.378906 0.015625)"/>
      <use xlink:href="#DejaVuSans-6f" transform="translate(466.162109 0.015625)"/>
      <use xlink:href="#DejaVuSans-6e" transform="translate(527.34375 0.015625)"/>
      <use xlink:href="#DejaVuSans-20" transform="translate(590.722656 0.015625)"/>
      <use xlink:href="#DejaVuSans-5b" transform="translate(622.509766 0.015625)"/>
      <use xlink:href="#DejaVuSans-Oblique-6d" transform="translate(661.523438 0.015625)"/>
      <use xlink:href="#DejaVuSans-Oblique-6d" transform="translate(758.935547 0.015625)"/>
      <use xlink:href="#DejaVuSans-5d" transform="translate(856.347656 0.015625)"/>
     </g>
    </g>
   </g>
   <g id="line2d_63">
    <path d="M 454.622573 198 
L 777.6 198 
" clip-path="url(#p2f6c31adc7)" style="fill: none; stroke-dasharray: 1,1.65; stroke-dashoffset: 0; stroke: #808080"/>
   </g>
   <g id="line2d_64">
    <path d="M 469.303365 165.882699 
L 557.690541 165.433419 
L 609.393724 173.894859 
L 646.077717 184.153419 
L 674.532032 194.262219 
L 697.7809 204.221259 
L 717.437538 213.731019 
L 734.464893 222.192459 
L 749.484084 230.953419 
L 762.919208 238.815819 
" clip-path="url(#p2f6c31adc7)" style="fill: none; stroke: #000000; stroke-width: 4; stroke-linecap: square"/>
   </g>
   <g id="line2d_65">
    <path d="M 469.303365 204.670539 
L 557.690541 211.559499 
L 609.393724 218.373579 
L 646.077717 225.187659 
L 674.532032 232.076619 
L 697.7809 238.815819 
L 717.437538 245.180619 
L 734.464893 251.545419 
L 749.484084 257.910219 
L 762.919208 264.275019 
" clip-path="url(#p2f6c31adc7)" style="fill: none; stroke-dasharray: 4,6.6; stroke-dashoffset: 0; stroke: #000000; stroke-width: 4"/>
   </g>
   <g id="patch_13">
    <path d="M 454.622573 347.76 
L 454.622573 10.8 
" style="fill: none; stroke: #000000; stroke-width: 0.8; stroke-linejoin: miter; stroke-linecap: square"/>
   </g>
   <g id="patch_14">
    <path d="M 777.6 347.76 
L 777.6 10.8 
" style="fill: none; stroke: #000000; stroke-width: 0.8; stroke-linejoin: miter; stroke-linecap: square"/>
   </g>
   <g id="patch_15">
    <path d="M 454.622573 347.76 
L 777.6 347.76 
" style="fill: none; stroke: #000000; stroke-width: 0.8; stroke-linejoin: miter; stroke-linecap: square"/>
   </g>
   <g id="patch_16">
    <path d="M 454.622573 10.8 
L 777.6 10.8 
" style="fill: none; stroke: #000000; stroke-width: 0.8; stroke-linejoin: miter; stroke-linecap: square"/>
   </g>
   <g id="legend_1">
    <g id="patch_17">
     <path d="M 650.56875 48.15625 
L 770.6 48.15625 
Q 772.6 48.15625 772.6 46.15625 
L 772.6 17.8 
Q 772.6 15.8 770.6 15.8 
L 650.56875 15.8 
Q 648.56875 15.8 648.56875 17.8 
L 648.56875 46.15625 
Q 648.56875 48.15625 650.56875 48.15625 
z
" style="fill: #ffffff; opacity: 0.8; stroke: #cccccc; stroke-linejoin: miter"/>
    </g>
    <g id="line2d_66">
     <path d="M 652.56875 23.898438 
L 662.56875 23.898438 
L 672.56875 23.898438 
" style="fill: none; stroke: #000000; stroke-width: 4; stroke-linecap: square"/>
    </g>
    <g id="text_45">
     <!-- forward inhibition -->
     <g transform="translate(680.56875 27.398438) scale(0.1 -0.1)">
      <defs>
       <path id="DejaVuSans-66" d="M 2375 4863 
L 2375 4384 
L 1825 4384 
Q 1516 4384 1395 4259 
Q 1275 4134 1275 3809 
L 1275 3500 
L 2222 3500 
L 2222 3053 
L 1275 3053 
L 1275 0 
L 697 0 
L 697 3053 
L 147 3053 
L 147 3500 
L 697 3500 
L 697 3744 
Q 697 4328 969 4595 
Q 1241 4863 1831 4863 
L 2375 4863 
z
" transform="scale(0.015625)"/>
       <path id="DejaVuSans-72" d="M 2631 2963 
Q 2534 3019 2420 3045 
Q 2306 3072 2169 3072 
Q 1681 3072 1420 2755 
Q 1159 2438 1159 1844 
L 1159 0 
L 581 0 
L 581 3500 
L 1159 3500 
L 1159 2956 
Q 1341 3275 1631 3429 
Q 1922 3584 2338 3584 
Q 2397 3584 2469 3576 
Q 2541 3569 2628 3553 
L 2631 2963 
z
" transform="scale(0.015625)"/>
       <path id="DejaVuSans-77" d="M 269 3500 
L 844 3500 
L 1563 769 
L 2278 3500 
L 2956 3500 
L 3675 769 
L 4391 3500 
L 4966 3500 
L 4050 0 
L 3372 0 
L 2619 2869 
L 1863 0 
L 1184 0 
L 269 3500 
z
" transform="scale(0.015625)"/>
       <path id="DejaVuSans-64" d="M 2906 2969 
L 2906 4863 
L 3481 4863 
L 3481 0 
L 2906 0 
L 2906 525 
Q 2725 213 2448 61 
Q 2172 -91 1784 -91 
Q 1150 -91 751 415 
Q 353 922 353 1747 
Q 353 2572 751 3078 
Q 1150 3584 1784 3584 
Q 2172 3584 2448 3432 
Q 2725 3281 2906 2969 
z
M 947 1747 
Q 947 1113 1208 752 
Q 1469 391 1925 391 
Q 2381 391 2643 752 
Q 2906 1113 2906 1747 
Q 2906 2381 2643 2742 
Q 2381 3103 1925 3103 
Q 1469 3103 1208 2742 
Q 947 2381 947 1747 
z
" transform="scale(0.015625)"/>
       <path id="DejaVuSans-68" d="M 3513 2113 
L 3513 0 
L 2938 0 
L 2938 2094 
Q 2938 2591 2744 2837 
Q 2550 3084 2163 3084 
Q 1697 3084 1428 2787 
Q 1159 2491 1159 1978 
L 1159 0 
L 581 0 
L 581 4863 
L 1159 4863 
L 1159 2956 
Q 1366 3272 1645 3428 
Q 1925 3584 2291 3584 
Q 2894 3584 3203 3211 
Q 3513 2838 3513 2113 
z
" transform="scale(0.015625)"/>
       <path id="DejaVuSans-62" d="M 3116 1747 
Q 3116 2381 2855 2742 
Q 2594 3103 2138 3103 
Q 1681 3103 1420 2742 
Q 1159 2381 1159 1747 
Q 1159 1113 1420 752 
Q 1681 391 2138 391 
Q 2594 391 2855 752 
Q 3116 1113 3116 1747 
z
M 1159 2969 
Q 1341 3281 1617 3432 
Q 1894 3584 2278 3584 
Q 2916 3584 3314 3078 
Q 3713 2572 3713 1747 
Q 3713 922 3314 415 
Q 2916 -91 2278 -91 
Q 1894 -91 1617 61 
Q 1341 213 1159 525 
L 1159 0 
L 581 0 
L 581 4863 
L 1159 4863 
L 1159 2969 
z
" transform="scale(0.015625)"/>
      </defs>
      <use xlink:href="#DejaVuSans-66"/>
      <use xlink:href="#DejaVuSans-6f" x="35.205078"/>
      <use xlink:href="#DejaVuSans-72" x="96.386719"/>
      <use xlink:href="#DejaVuSans-77" x="137.5"/>
      <use xlink:href="#DejaVuSans-61" x="219.287109"/>
      <use xlink:href="#DejaVuSans-72" x="280.566406"/>
      <use xlink:href="#DejaVuSans-64" x="319.929688"/>
      <use xlink:href="#DejaVuSans-20" x="383.40625"/>
      <use xlink:href="#DejaVuSans-69" x="415.193359"/>
      <use xlink:href="#DejaVuSans-6e" x="442.976562"/>
      <use xlink:href="#DejaVuSans-68" x="506.355469"/>
      <use xlink:href="#DejaVuSans-69" x="569.734375"/>
      <use xlink:href="#DejaVuSans-62" x="597.517578"/>
      <use xlink:href="#DejaVuSans-69" x="660.994141"/>
      <use xlink:href="#DejaVuSans-74" x="688.777344"/>
      <use xlink:href="#DejaVuSans-69" x="727.986328"/>
      <use xlink:href="#DejaVuSans-6f" x="755.769531"/>
      <use xlink:href="#DejaVuSans-6e" x="816.951172"/>
     </g>
    </g>
    <g id="line2d_67">
     <path d="M 652.56875 38.576563 
L 662.56875 38.576563 
L 672.56875 38.576563 
" style="fill: none; stroke-dasharray: 4,6.6; stroke-dashoffset: 0; stroke: #000000; stroke-width: 4"/>
    </g>
    <g id="text_46">
     <!-- bipolar only -->
     <g transform="translate(680.56875 42.076563) scale(0.1 -0.1)">
      <defs>
       <path id="DejaVuSans-6c" d="M 603 4863 
L 1178 4863 
L 1178 0 
L 603 0 
L 603 4863 
z
" transform="scale(0.015625)"/>
       <path id="DejaVuSans-79" d="M 2059 -325 
Q 1816 -950 1584 -1140 
Q 1353 -1331 966 -1331 
L 506 -1331 
L 506 -850 
L 844 -850 
Q 1081 -850 1212 -737 
Q 1344 -625 1503 -206 
L 1606 56 
L 191 3500 
L 800 3500 
L 1894 763 
L 2988 3500 
L 3597 3500 
L 2059 -325 
z
" transform="scale(0.015625)"/>
      </defs>
      <use xlink:href="#DejaVuSans-62"/>
      <use xlink:href="#DejaVuSans-69" x="63.476562"/>
      <use xlink:href="#DejaVuSans-70" x="91.259766"/>
      <use xlink:href="#DejaVuSans-6f" x="154.736328"/>
      <use xlink:href="#DejaVuSans-6c" x="215.917969"/>
      <use xlink:href="#DejaVuSans-61" x="243.701172"/>
      <use xlink:href="#DejaVuSans-72" x="304.980469"/>
      <use xlink:href="#DejaVuSans-20" x="346.09375"/>
      <use xlink:href="#DejaVuSans-6f" x="377.880859"/>
      <use xlink:href="#DejaVuSans-6e" x="439.0625"/>
      <use xlink:href="#DejaVuSans-6c" x="502.441406"/>
      <use xlink:href="#DejaVuSans-79" x="530.224609"/>
     </g>
    </g>
   </g>
   <g id="PathCollection_1">
    <defs>
     <path id="md3f74c71ae" d="M 0 3.872983 
C 1.027127 3.872983 2.012324 3.464901 2.738613 2.738613 
C 3.464901 2.012324 3.872983 1.027127 3.872983 0 
C 3.872983 -1.027127 3.464901 -2.012324 2.738613 -2.738613 
C 2.012324 -3.464901 1.027127 -3.872983 0 -3.872983 
C -1.027127 -3.872983 -2.012324 -3.464901 -2.738613 -2.738613 
C -3.464901 -2.012324 -3.872983 -1.027127 -3.872983 0 
C -3.872983 1.027127 -3.464901 2.012324 -2.738613 2.738613 
C -2.012324 3.464901 -1.027127 3.872983 0 3.872983 
z
" style="stroke: #1f77b4"/>
    </defs>
    <g clip-path="url(#p2f6c31adc7)">
     <use xlink:href="#md3f74c71ae" x="469.303365" y="165.882699" style="fill: #1f77b4; stroke: #1f77b4"/>
    </g>
   </g>
   <g id="PathCollection_2">
    <g clip-path="url(#p2f6c31adc7)">
     <use xlink:href="#md3f74c71ae" x="469.303365" y="204.670539" style="fill: #1f77b4; stroke: #1f77b4"/>
    </g>
   </g>
   <g id="PathCollection_3">
    <defs>
     <path id="mfcac721315" d="M 0 3.872983 
C 1.027127 3.872983 2.012324 3.464901 2.738613 2.738613 
C 3.464901 2.012324 3.872983 1.027127 3.872983 0 
C 3.872983 -1.027127 3.464901 -2.012324 2.738613 -2.738613 
C 2.012324 -3.464901 1.027127 -3.872983 0 -3.872983 
C -1.027127 -3.872983 -2.012324 -3.464901 -2.738613 -2.738613 
C -3.464901 -2.012324 -3.872983 -1.027127 -3.872983 0 
C -3.872983 1.027127 -3.464901 2.012324 -2.738613 2.738613 
C -2.012324 3.464901 -1.027127 3.872983 0 3.872983 
z
" style="stroke: #ff7f0e"/>
    </defs>
    <g clip-path="url(#p2f6c31adc7)">
     <use xlink:href="#mfcac721315" x="557.690541" y="165.433419" style="fill: #ff7f0e; stroke: #ff7f0e"/>
    </g>
   </g>
   <g id="PathCollection_4">
    <g clip-path="url(#p2f6c31adc7)">
     <use xlink:href="#mfcac721315" x="557.690541" y="211.559499" style="fill: #ff7f0e; stroke: #ff7f0e"/>
    </g>
   </g>
   <g id="PathCollection_5">
    <defs>
     <path id="m55d7c154b7" d="M 0 3.872983 
C 1.027127 3.872983 2.012324 3.464901 2.738613 2.738613 
C 3.464901 2.012324 3.872983 1.027127 3.872983 0 
C 3.872983 -1.027127 3.464901 -2.012324 2.738613 -2.738613 
C 2.012324 -3.464901 1.027127 -3.872983 0 -3.872983 
C -1.027127 -3.872983 -2.012324 -3.464901 -2.738613 -2.738613 
C -3.464901 -2.012324 -3.872983 -1.027127 -3.872983 0 
C -3.872983 1.027127 -3.464901 2.012324 -2.738613 2.738613 
C -2.012324 3.464901 -1.027127 3.872983 0 3.872983 
z
" style="stroke: #2ca02c"/>
    </defs>
    <g clip-path="url(#p2f6c31adc7)">
     <use xlink:href="#m55d7c154b7" x="609.393724" y="173.894859" style="fill: #2ca02c; stroke: #2ca02c"/>
    </g>
   </g>
   <g id="PathCollection_6">
    <g clip-path="url(#p2f6c31adc7)">
     <use xlink:href="#m55d7c154b7" x="609.393724" y="218.373579" style="fill: #2ca02c; stroke: #2ca02c"/>
    </g>
   </g>
   <g id="PathCollection_7">
    <defs>
     <path id="m0bc7f20f81" d="M 0 3.872983 
C 1.027127 3.872983 2.012324 3.464901 2.738613 2.738613 
C 3.464901 2.012324 3.872983 1.027127 3.872983 0 
C 3.872983 -1.027127 3.464901 -2.012324 2.738613 -2.738613 
C 2.012324 -3.464901 1.027127 -3.872983 0 -3.872983 
C -1.027127 -3.872983 -2.012324 -3.464901 -2.738613 -2.738613 
C -3.464901 -2.012324 -3.872983 -1.027127 -3.872983 0 
C -3.872983 1.027127 -3.464901 2.012324 -2.738613 2.738613 
C -2.012324 3.464901 -1.027127 3.872983 0 3.872983 
z
" style="stroke: #d62728"/>
    </defs>
    <g clip-path="url(#p2f6c31adc7)">
     <use xlink:href="#m0bc7f20f81" x="646.077717" y="184.153419" style="fill: #d62728; stroke: #d62728"/>
    </g>
   </g>
   <g id="PathCollection_8">
    <g clip-path="url(#p2f6c31adc7)">
     <use xlink:href="#m0bc7f20f81" x="646.077717" y="225.187659" style="fill: #d62728; stroke: #d62728"/>
    </g>
   </g>
   <g id="PathCollection_9">
    <defs>
     <path id="m21c2411352" d="M 0 3.872983 
C 1.027127 3.872983 2.012324 3.464901 2.738613 2.738613 
C 3.464901 2.012324 3.872983 1.027127 3.872983 0 
C 3.872983 -1.027127 3.464901 -2.012324 2.738613 -2.738613 
C 2.012324 -3.464901 1.027127 -3.872983 0 -3.872983 
C -1.027127 -3.872983 -2.012324 -3.464901 -2.738613 -2.738613 
C -3.464901 -2.012324 -3.872983 -1.027127 -3.872983 0 
C -3.872983 1.027127 -3.464901 2.012324 -2.738613 2.738613 
C -2.012324 3.464901 -1.027127 3.872983 0 3.872983 
z
" style="stroke: #9467bd"/>
    </defs>
    <g clip-path="url(#p2f6c31adc7)">
     <use xlink:href="#m21c2411352" x="674.532032" y="194.262219" style="fill: #9467bd; stroke: #9467bd"/>
    </g>
   </g>
   <g id="PathCollection_10">
    <g clip-path="url(#p2f6c31adc7)">
     <use xlink:href="#m21c2411352" x="674.532032" y="232.076619" style="fill: #9467bd; stroke: #9467bd"/>
    </g>
   </g>
   <g id="PathCollection_11">
    <defs>
     <path id="ma31ec7008c" d="M 0 3.872983 
C 1.027127 3.872983 2.012324 3.464901 2.738613 2.738613 
C 3.464901 2.012324 3.872983 1.027127 3.872983 0 
C 3.872983 -1.027127 3.464901 -2.012324 2.738613 -2.738613 
C 2.012324 -3.464901 1.027127 -3.872983 0 -3.872983 
C -1.027127 -3.872983 -2.012324 -3.464901 -2.738613 -2.738613 
C -3.464901 -2.012324 -3.872983 -1.027127 -3.872983 0 
C -3.872983 1.027127 -3.464901 2.012324 -2.738613 2.738613 
C -2.012324 3.464901 -1.027127 3.872983 0 3.872983 
z
" style="stroke: #8c564b"/>
    </defs>
    <g clip-path="url(#p2f6c31adc7)">
     <use xlink:href="#ma31ec7008c" x="697.7809" y="204.221259" style="fill: #8c564b; stroke: #8c564b"/>
    </g>
   </g>
   <g id="PathCollection_12">
    <g clip-path="url(#p2f6c31adc7)">
     <use xlink:href="#ma31ec7008c" x="697.7809" y="238.815819" style="fill: #8c564b; stroke: #8c564b"/>
    </g>
   </g>
   <g id="PathCollection_13">
    <defs>
     <path id="m7c2358732a" d="M 0 3.872983 
C 1.027127 3.872983 2.012324 3.464901 2.738613 2.738613 
C 3.464901 2.012324 3.872983 1.027127 3.872983 0 
C 3.872983 -1.027127 3.464901 -2.012324 2.738613 -2.738613 
C 2.012324 -3.464901 1.027127 -3.872983 0 -3.872983 
C -1.027127 -3.872983 -2.012324 -3.464901 -2.738613 -2.738613 
C -3.464901 -2.012324 -3.872983 -1.027127 -3.872983 0 
C -3.872983 1.027127 -3.464901 2.012324 -2.738613 2.738613 
C -2.012324 3.464901 -1.027127 3.872983 0 3.872983 
z
" style="stroke: #e377c2"/>
    </defs>
    <g clip-path="url(#p2f6c31adc7)">
     <use xlink:href="#m7c2358732a" x="717.437538" y="213.731019" style="fill: #e377c2; stroke: #e377c2"/>
    </g>
   </g>
   <g id="PathCollection_14">
    <g clip-path="url(#p2f6c31adc7)">
     <use xlink:href="#m7c2358732a" x="717.437538" y="245.180619" style="fill: #e377c2; stroke: #e377c2"/>
    </g>
   </g>
   <g id="PathCollection_15">
    <defs>
     <path id="m61168f01fa" d="M 0 3.872983 
C 1.027127 3.872983 2.012324 3.464901 2.738613 2.738613 
C 3.464901 2.012324 3.872983 1.027127 3.872983 0 
C 3.872983 -1.027127 3.464901 -2.012324 2.738613 -2.738613 
C 2.012324 -3.464901 1.027127 -3.872983 0 -3.872983 
C -1.027127 -3.872983 -2.012324 -3.464901 -2.738613 -2.738613 
C -3.464901 -2.012324 -3.872983 -1.027127 -3.872983 0 
C -3.872983 1.027127 -3.464901 2.012324 -2.738613 2.738613 
C -2.012324 3.464901 -1.027127 3.872983 0 3.872983 
z
" style="stroke: #7f7f7f"/>
    </defs>
    <g clip-path="url(#p2f6c31adc7)">
     <use xlink:href="#m61168f01fa" x="734.464893" y="222.192459" style="fill: #7f7f7f; stroke: #7f7f7f"/>
    </g>
   </g>
   <g id="PathCollection_16">
    <g clip-path="url(#p2f6c31adc7)">
     <use xlink:href="#m61168f01fa" x="734.464893" y="251.545419" style="fill: #7f7f7f; stroke: #7f7f7f"/>
    </g>
   </g>
   <g id="PathCollection_17">
    <defs>
     <path id="m146b43facd" d="M 0 3.872983 
C 1.027127 3.872983 2.012324 3.464901 2.738613 2.738613 
C 3.464901 2.012324 3.872983 1.027127 3.872983 0 
C 3.872983 -1.027127 3.464901 -2.012324 2.738613 -2.738613 
C 2.012324 -3.464901 1.027127 -3.872983 0 -3.872983 
C -1.027127 -3.872983 -2.012324 -3.464901 -2.738613 -2.738613 
C -3.464901 -2.012324 -3.872983 -1.027127 -3.872983 0 
C -3.872983 1.027127 -3.464901 2.012324 -2.738613 2.738613 
C -2.012324 3.464901 -1.027127 3.872983 0 3.872983 
z
" style="stroke: #bcbd22"/>
    </defs>
    <g clip-path="url(#p2f6c31adc7)">
     <use xlink:href="#m146b43facd" x="749.484084" y="230.953419" style="fill: #bcbd22; stroke: #bcbd22"/>
    </g>
   </g>
   <g id="PathCollection_18">
    <g clip-path="url(#p2f6c31adc7)">
     <use xlink:href="#m146b43facd" x="749.484084" y="257.910219" style="fill: #bcbd22; stroke: #bcbd22"/>
    </g>
   </g>
   <g id="PathCollection_19">
    <defs>
     <path id="mf3e622f277" d="M 0 3.872983 
C 1.027127 3.872983 2.012324 3.464901 2.738613 2.738613 
C 3.464901 2.012324 3.872983 1.027127 3.872983 0 
C 3.872983 -1.027127 3.464901 -2.012324 2.738613 -2.738613 
C 2.012324 -3.464901 1.027127 -3.872983 0 -3.872983 
C -1.027127 -3.872983 -2.012324 -3.464901 -2.738613 -2.738613 
C -3.464901 -2.012324 -3.872983 -1.027127 -3.872983 0 
C -3.872983 1.027127 -3.464901 2.012324 -2.738613 2.738613 
C -2.012324 3.464901 -1.027127 3.872983 0 3.872983 
z
" style="stroke: #17becf"/>
    </defs>
    <g clip-path="url(#p2f6c31adc7)">
     <use xlink:href="#mf3e622f277" x="762.919208" y="238.815819" style="fill: #17becf; stroke: #17becf"/>
    </g>
   </g>
   <g id="PathCollection_20">
    <g clip-path="url(#p2f6c31adc7)">
     <use xlink:href="#mf3e622f277" x="762.919208" y="264.275019" style="fill: #17becf; stroke: #17becf"/>
    </g>
   </g>
  </g>
  <g id="legend_2">
   <g id="patch_18">
    <path d="M 788.442188 154.78125 
L 857 154.78125 
Q 859 154.78125 859 152.78125 
L 859 7 
Q 859 5 857 5 
L 788.442188 5 
Q 786.442188 5 786.442188 7 
L 786.442188 152.78125 
Q 786.442188 154.78125 788.442188 154.78125 
z
" style="fill: #ffffff; opacity: 0.8; stroke: #cccccc; stroke-linejoin: miter"/>
   </g>
   <g id="line2d_68">
    <path d="M 790.442188 13.098438 
L 800.442188 13.098438 
L 810.442188 13.098438 
" style="fill: none; stroke: #1f77b4; stroke-width: 4; stroke-linecap: square"/>
   </g>
   <g id="text_47">
    <!-- v = 0.1 -->
    <g transform="translate(818.442188 16.598438) scale(0.1 -0.1)">
     <defs>
      <path id="DejaVuSans-3d" d="M 678 2906 
L 4684 2906 
L 4684 2381 
L 678 2381 
L 678 2906 
z
M 678 1631 
L 4684 1631 
L 4684 1100 
L 678 1100 
L 678 1631 
z
" transform="scale(0.015625)"/>
     </defs>
     <use xlink:href="#DejaVuSans-76"/>
     <use xlink:href="#DejaVuSans-20" x="59.179688"/>
     <use xlink:href="#DejaVuSans-3d" x="90.966797"/>
     <use xlink:href="#DejaVuSans-20" x="174.755859"/>
     <use xlink:href="#DejaVuSans-30" x="206.542969"/>
     <use xlink:href="#DejaVuSans-2e" x="270.166016"/>
     <use xlink:href="#DejaVuSans-31" x="301.953125"/>
    </g>
   </g>
   <g id="line2d_69">
    <path d="M 790.442188 27.776563 
L 800.442188 27.776563 
L 810.442188 27.776563 
" style="fill: none; stroke: #ff7f0e; stroke-width: 4; stroke-linecap: square"/>
   </g>
   <g id="text_48">
    <!-- v = 0.2 -->
    <g transform="translate(818.442188 31.276563) scale(0.1 -0.1)">
     <use xlink:href="#DejaVuSans-76"/>
     <use xlink:href="#DejaVuSans-20" x="59.179688"/>
     <use xlink:href="#DejaVuSans-3d" x="90.966797"/>
     <use xlink:href="#DejaVuSans-20" x="174.755859"/>
     <use xlink:href="#DejaVuSans-30" x="206.542969"/>
     <use xlink:href="#DejaVuSans-2e" x="270.166016"/>
     <use xlink:href="#DejaVuSans-32" x="301.953125"/>
    </g>
   </g>
   <g id="line2d_70">
    <path d="M 790.442188 42.454688 
L 800.442188 42.454688 
L 810.442188 42.454688 
" style="fill: none; stroke: #2ca02c; stroke-width: 4; stroke-linecap: square"/>
   </g>
   <g id="text_49">
    <!-- v = 0.3 -->
    <g transform="translate(818.442188 45.954688) scale(0.1 -0.1)">
     <use xlink:href="#DejaVuSans-76"/>
     <use xlink:href="#DejaVuSans-20" x="59.179688"/>
     <use xlink:href="#DejaVuSans-3d" x="90.966797"/>
     <use xlink:href="#DejaVuSans-20" x="174.755859"/>
     <use xlink:href="#DejaVuSans-30" x="206.542969"/>
     <use xlink:href="#DejaVuSans-2e" x="270.166016"/>
     <use xlink:href="#DejaVuSans-33" x="301.953125"/>
    </g>
   </g>
   <g id="line2d_71">
    <path d="M 790.442188 57.132813 
L 800.442188 57.132813 
L 810.442188 57.132813 
" style="fill: none; stroke: #d62728; stroke-width: 4; stroke-linecap: square"/>
   </g>
   <g id="text_50">
    <!-- v = 0.4 -->
    <g transform="translate(818.442188 60.632813) scale(0.1 -0.1)">
     <use xlink:href="#DejaVuSans-76"/>
     <use xlink:href="#DejaVuSans-20" x="59.179688"/>
     <use xlink:href="#DejaVuSans-3d" x="90.966797"/>
     <use xlink:href="#DejaVuSans-20" x="174.755859"/>
     <use xlink:href="#DejaVuSans-30" x="206.542969"/>
     <use xlink:href="#DejaVuSans-2e" x="270.166016"/>
     <use xlink:href="#DejaVuSans-34" x="301.953125"/>
    </g>
   </g>
   <g id="line2d_72">
    <path d="M 790.442188 71.810938 
L 800.442188 71.810938 
L 810.442188 71.810938 
" style="fill: none; stroke: #9467bd; stroke-width: 4; stroke-linecap: square"/>
   </g>
   <g id="text_51">
    <!-- v = 0.5 -->
    <g transform="translate(818.442188 75.310938) scale(0.1 -0.1)">
     <use xlink:href="#DejaVuSans-76"/>
     <use xlink:href="#DejaVuSans-20" x="59.179688"/>
     <use xlink:href="#DejaVuSans-3d" x="90.966797"/>
     <use xlink:href="#DejaVuSans-20" x="174.755859"/>
     <use xlink:href="#DejaVuSans-30" x="206.542969"/>
     <use xlink:href="#DejaVuSans-2e" x="270.166016"/>
     <use xlink:href="#DejaVuSans-35" x="301.953125"/>
    </g>
   </g>
   <g id="line2d_73">
    <path d="M 790.442188 86.489063 
L 800.442188 86.489063 
L 810.442188 86.489063 
" style="fill: none; stroke: #8c564b; stroke-width: 4; stroke-linecap: square"/>
   </g>
   <g id="text_52">
    <!-- v = 0.6 -->
    <g transform="translate(818.442188 89.989063) scale(0.1 -0.1)">
     <use xlink:href="#DejaVuSans-76"/>
     <use xlink:href="#DejaVuSans-20" x="59.179688"/>
     <use xlink:href="#DejaVuSans-3d" x="90.966797"/>
     <use xlink:href="#DejaVuSans-20" x="174.755859"/>
     <use xlink:href="#DejaVuSans-30" x="206.542969"/>
     <use xlink:href="#DejaVuSans-2e" x="270.166016"/>
     <use xlink:href="#DejaVuSans-36" x="301.953125"/>
    </g>
   </g>
   <g id="line2d_74">
    <path d="M 790.442188 101.167188 
L 800.442188 101.167188 
L 810.442188 101.167188 
" style="fill: none; stroke: #e377c2; stroke-width: 4; stroke-linecap: square"/>
   </g>
   <g id="text_53">
    <!-- v = 0.7 -->
    <g transform="translate(818.442188 104.667188) scale(0.1 -0.1)">
     <defs>
      <path id="DejaVuSans-37" d="M 525 4666 
L 3525 4666 
L 3525 4397 
L 1831 0 
L 1172 0 
L 2766 4134 
L 525 4134 
L 525 4666 
z
" transform="scale(0.015625)"/>
     </defs>
     <use xlink:href="#DejaVuSans-76"/>
     <use xlink:href="#DejaVuSans-20" x="59.179688"/>
     <use xlink:href="#DejaVuSans-3d" x="90.966797"/>
     <use xlink:href="#DejaVuSans-20" x="174.755859"/>
     <use xlink:href="#DejaVuSans-30" x="206.542969"/>
     <use xlink:href="#DejaVuSans-2e" x="270.166016"/>
     <use xlink:href="#DejaVuSans-37" x="301.953125"/>
    </g>
   </g>
   <g id="line2d_75">
    <path d="M 790.442188 115.845313 
L 800.442188 115.845313 
L 810.442188 115.845313 
" style="fill: none; stroke: #7f7f7f; stroke-width: 4; stroke-linecap: square"/>
   </g>
   <g id="text_54">
    <!-- v = 0.8 -->
    <g transform="translate(818.442188 119.345313) scale(0.1 -0.1)">
     <use xlink:href="#DejaVuSans-76"/>
     <use xlink:href="#DejaVuSans-20" x="59.179688"/>
     <use xlink:href="#DejaVuSans-3d" x="90.966797"/>
     <use xlink:href="#DejaVuSans-20" x="174.755859"/>
     <use xlink:href="#DejaVuSans-30" x="206.542969"/>
     <use xlink:href="#DejaVuSans-2e" x="270.166016"/>
     <use xlink:href="#DejaVuSans-38" x="301.953125"/>
    </g>
   </g>
   <g id="line2d_76">
    <path d="M 790.442188 130.523438 
L 800.442188 130.523438 
L 810.442188 130.523438 
" style="fill: none; stroke: #bcbd22; stroke-width: 4; stroke-linecap: square"/>
   </g>
   <g id="text_55">
    <!-- v = 0.9 -->
    <g transform="translate(818.442188 134.023438) scale(0.1 -0.1)">
     <defs>
      <path id="DejaVuSans-39" d="M 703 97 
L 703 672 
Q 941 559 1184 500 
Q 1428 441 1663 441 
Q 2288 441 2617 861 
Q 2947 1281 2994 2138 
Q 2813 1869 2534 1725 
Q 2256 1581 1919 1581 
Q 1219 1581 811 2004 
Q 403 2428 403 3163 
Q 403 3881 828 4315 
Q 1253 4750 1959 4750 
Q 2769 4750 3195 4129 
Q 3622 3509 3622 2328 
Q 3622 1225 3098 567 
Q 2575 -91 1691 -91 
Q 1453 -91 1209 -44 
Q 966 3 703 97 
z
M 1959 2075 
Q 2384 2075 2632 2365 
Q 2881 2656 2881 3163 
Q 2881 3666 2632 3958 
Q 2384 4250 1959 4250 
Q 1534 4250 1286 3958 
Q 1038 3666 1038 3163 
Q 1038 2656 1286 2365 
Q 1534 2075 1959 2075 
z
" transform="scale(0.015625)"/>
     </defs>
     <use xlink:href="#DejaVuSans-76"/>
     <use xlink:href="#DejaVuSans-20" x="59.179688"/>
     <use xlink:href="#DejaVuSans-3d" x="90.966797"/>
     <use xlink:href="#DejaVuSans-20" x="174.755859"/>
     <use xlink:href="#DejaVuSans-30" x="206.542969"/>
     <use xlink:href="#DejaVuSans-2e" x="270.166016"/>
     <use xlink:href="#DejaVuSans-39" x="301.953125"/>
    </g>
   </g>
   <g id="line2d_77">
    <path d="M 790.442188 145.201563 
L 800.442188 145.201563 
L 810.442188 145.201563 
" style="fill: none; stroke: #17becf; stroke-width: 4; stroke-linecap: square"/>
   </g>
   <g id="text_56">
    <!-- v = 1.0 -->
    <g transform="translate(818.442188 148.701563) scale(0.1 -0.1)">
     <use xlink:href="#DejaVuSans-76"/>
     <use xlink:href="#DejaVuSans-20" x="59.179688"/>
     <use xlink:href="#DejaVuSans-3d" x="90.966797"/>
     <use xlink:href="#DejaVuSans-20" x="174.755859"/>
     <use xlink:href="#DejaVuSans-31" x="206.542969"/>
     <use xlink:href="#DejaVuSans-2e" x="270.166016"/>
     <use xlink:href="#DejaVuSans-30" x="301.953125"/>
    </g>
   </g>
  </g>
 </g>
 <defs>
  <clipPath id="pa229885092">
   <rect x="56.16" y="10.8" width="322.977427" height="153.163636"/>
  </clipPath>
  <clipPath id="pe4721dc92d">
   <rect x="56.16" y="194.596364" width="322.977427" height="153.163636"/>
  </clipPath>
  <clipPath id="p2f6c31adc7">
   <rect x="454.622573" y="10.8" width="322.977427" height="336.96"/>
  </clipPath>
 </defs>
</svg>
