<?xml version="1.0" encoding="utf-8" standalone="no"?>
<!DOCTYPE svg PUBLIC "-//W3C//DTD SVG 1.1//EN"
  "http://www.w3.org/Graphics/SVG/1.1/DTD/svg11.dtd">
<svg xmlns:xlink="http://www.w3.org/1999/xlink" width="864pt" height="432pt" viewBox="0 0 864 432" xmlns="http://www.w3.org/2000/svg" version="1.1">
 <metadata>
  <rdf:RDF xmlns:dc="http://purl.org/dc/elements/1.1/" xmlns:cc="http://creativecommons.org/ns#" xmlns:rdf="http://www.w3.org/1999/02/22-rdf-syntax-ns#">
   <cc:Work>
    <dc:type rdf:resource="http://purl.org/dc/dcmitype/StillImage"/>
    <dc:date>2024-06-11T13:34:58.588355</dc:date>
    <dc:format>image/svg+xml</dc:format>
    <dc:creator>
     <cc:Agent>
      <dc:title>Matplotlib v3.8.4, https://matplotlib.org/</dc:title>
     </cc:Agent>
    </dc:creator>
   </cc:Work>
  </rdf:RDF>
 </metadata>
 <defs>
  <style type="text/css">*{stroke-linejoin: round; stroke-linecap: butt}</style>
 </defs>
 <g id="figure_1">
  <g id="patch_1">
   <path d="M 0 432 
L 864 432 
L 864 0 
L 0 0 
z
" style="fill: #ffffff"/>
  </g>
  <g id="axes_1">
   <g id="patch_2">
    <path d="M 56.16 163.963636 
L 379.137427 163.963636 
L 379.137427 10.8 
L 56.16 10.8 
z
" style="fill: #ffffff"/>
   </g>
   <g id="matplotlib.axis_1">
    <g id="xtick_1">
     <g id="line2d_1">
      <defs>
       <path id="ma04236c5b8" d="M 0 0 
L 0 3.5 
" style="stroke: #000000; stroke-width: 0.8"/>
      </defs>
      <g>
       <use xlink:href="#ma04236c5b8" x="56.16" y="163.963636" style="stroke: #000000; stroke-width: 0.8"/>
      </g>
     </g>
     <g id="text_1">
      <!-- −0.4 -->
      <g transform="translate(44.018594 178.562074) scale(0.1 -0.1)">
       <defs>
        <path id="DejaVuSans-2212" d="M 678 2272 
L 4684 2272 
L 4684 1741 
L 678 1741 
L 678 2272 
z
" transform="scale(0.015625)"/>
        <path id="DejaVuSans-30" d="M 2034 4250 
Q 1547 4250 1301 3770 
Q 1056 3291 1056 2328 
Q 1056 1369 1301 889 
Q 1547 409 2034 409 
Q 2525 409 2770 889 
Q 3016 1369 3016 2328 
Q 3016 3291 2770 3770 
Q 2525 4250 2034 4250 
z
M 2034 4750 
Q 2819 4750 3233 4129 
Q 3647 3509 3647 2328 
Q 3647 1150 3233 529 
Q 2819 -91 2034 -91 
Q 1250 -91 836 529 
Q 422 1150 422 2328 
Q 422 3509 836 4129 
Q 1250 4750 2034 4750 
z
" transform="scale(0.015625)"/>
        <path id="DejaVuSans-2e" d="M 684 794 
L 1344 794 
L 1344 0 
L 684 0 
L 684 794 
z
" transform="scale(0.015625)"/>
        <path id="DejaVuSans-34" d="M 2419 4116 
L 825 1625 
L 2419 1625 
L 2419 4116 
z
M 2253 4666 
L 3047 4666 
L 3047 1625 
L 3713 1625 
L 3713 1100 
L 3047 1100 
L 3047 0 
L 2419 0 
L 2419 1100 
L 313 1100 
L 313 1709 
L 2253 4666 
z
" transform="scale(0.015625)"/>
       </defs>
       <use xlink:href="#DejaVuSans-2212"/>
       <use xlink:href="#DejaVuSans-30" x="83.789062"/>
       <use xlink:href="#DejaVuSans-2e" x="147.412109"/>
       <use xlink:href="#DejaVuSans-34" x="179.199219"/>
      </g>
     </g>
    </g>
    <g id="xtick_2">
     <g id="line2d_2">
      <g>
       <use xlink:href="#ma04236c5b8" x="96.532178" y="163.963636" style="stroke: #000000; stroke-width: 0.8"/>
      </g>
     </g>
     <g id="text_2">
      <!-- −0.3 -->
      <g transform="translate(84.390772 178.562074) scale(0.1 -0.1)">
       <defs>
        <path id="DejaVuSans-33" d="M 2597 2516 
Q 3050 2419 3304 2112 
Q 3559 1806 3559 1356 
Q 3559 666 3084 287 
Q 2609 -91 1734 -91 
Q 1441 -91 1130 -33 
Q 819 25 488 141 
L 488 750 
Q 750 597 1062 519 
Q 1375 441 1716 441 
Q 2309 441 2620 675 
Q 2931 909 2931 1356 
Q 2931 1769 2642 2001 
Q 2353 2234 1838 2234 
L 1294 2234 
L 1294 2753 
L 1863 2753 
Q 2328 2753 2575 2939 
Q 2822 3125 2822 3475 
Q 2822 3834 2567 4026 
Q 2313 4219 1838 4219 
Q 1578 4219 1281 4162 
Q 984 4106 628 3988 
L 628 4550 
Q 988 4650 1302 4700 
Q 1616 4750 1894 4750 
Q 2613 4750 3031 4423 
Q 3450 4097 3450 3541 
Q 3450 3153 3228 2886 
Q 3006 2619 2597 2516 
z
" transform="scale(0.015625)"/>
       </defs>
       <use xlink:href="#DejaVuSans-2212"/>
       <use xlink:href="#DejaVuSans-30" x="83.789062"/>
       <use xlink:href="#DejaVuSans-2e" x="147.412109"/>
       <use xlink:href="#DejaVuSans-33" x="179.199219"/>
      </g>
     </g>
    </g>
    <g id="xtick_3">
     <g id="line2d_3">
      <g>
       <use xlink:href="#ma04236c5b8" x="136.904357" y="163.963636" style="stroke: #000000; stroke-width: 0.8"/>
      </g>
     </g>
     <g id="text_3">
      <!-- −0.2 -->
      <g transform="translate(124.762951 178.562074) scale(0.1 -0.1)">
       <defs>
        <path id="DejaVuSans-32" d="M 1228 531 
L 3431 531 
L 3431 0 
L 469 0 
L 469 531 
Q 828 903 1448 1529 
Q 2069 2156 2228 2338 
Q 2531 2678 2651 2914 
Q 2772 3150 2772 3378 
Q 2772 3750 2511 3984 
Q 2250 4219 1831 4219 
Q 1534 4219 1204 4116 
Q 875 4013 500 3803 
L 500 4441 
Q 881 4594 1212 4672 
Q 1544 4750 1819 4750 
Q 2544 4750 2975 4387 
Q 3406 4025 3406 3419 
Q 3406 3131 3298 2873 
Q 3191 2616 2906 2266 
Q 2828 2175 2409 1742 
Q 1991 1309 1228 531 
z
" transform="scale(0.015625)"/>
       </defs>
       <use xlink:href="#DejaVuSans-2212"/>
       <use xlink:href="#DejaVuSans-30" x="83.789062"/>
       <use xlink:href="#DejaVuSans-2e" x="147.412109"/>
       <use xlink:href="#DejaVuSans-32" x="179.199219"/>
      </g>
     </g>
    </g>
    <g id="xtick_4">
     <g id="line2d_4">
      <g>
       <use xlink:href="#ma04236c5b8" x="177.276535" y="163.963636" style="stroke: #000000; stroke-width: 0.8"/>
      </g>
     </g>
     <g id="text_4">
      <!-- −0.1 -->
      <g transform="translate(165.135129 178.562074) scale(0.1 -0.1)">
       <defs>
        <path id="DejaVuSans-31" d="M 794 531 
L 1825 531 
L 1825 4091 
L 703 3866 
L 703 4441 
L 1819 4666 
L 2450 4666 
L 2450 531 
L 3481 531 
L 3481 0 
L 794 0 
L 794 531 
z
" transform="scale(0.015625)"/>
       </defs>
       <use xlink:href="#DejaVuSans-2212"/>
       <use xlink:href="#DejaVuSans-30" x="83.789062"/>
       <use xlink:href="#DejaVuSans-2e" x="147.412109"/>
       <use xlink:href="#DejaVuSans-31" x="179.199219"/>
      </g>
     </g>
    </g>
    <g id="xtick_5">
     <g id="line2d_5">
      <g>
       <use xlink:href="#ma04236c5b8" x="217.648714" y="163.963636" style="stroke: #000000; stroke-width: 0.8"/>
      </g>
     </g>
     <g id="text_5">
      <!-- 0.0 -->
      <g transform="translate(209.697151 178.562074) scale(0.1 -0.1)">
       <use xlink:href="#DejaVuSans-30"/>
       <use xlink:href="#DejaVuSans-2e" x="63.623047"/>
       <use xlink:href="#DejaVuSans-30" x="95.410156"/>
      </g>
     </g>
    </g>
    <g id="xtick_6">
     <g id="line2d_6">
      <g>
       <use xlink:href="#ma04236c5b8" x="258.020892" y="163.963636" style="stroke: #000000; stroke-width: 0.8"/>
      </g>
     </g>
     <g id="text_6">
      <!-- 0.1 -->
      <g transform="translate(250.069329 178.562074) scale(0.1 -0.1)">
       <use xlink:href="#DejaVuSans-30"/>
       <use xlink:href="#DejaVuSans-2e" x="63.623047"/>
       <use xlink:href="#DejaVuSans-31" x="95.410156"/>
      </g>
     </g>
    </g>
    <g id="xtick_7">
     <g id="line2d_7">
      <g>
       <use xlink:href="#ma04236c5b8" x="298.39307" y="163.963636" style="stroke: #000000; stroke-width: 0.8"/>
      </g>
     </g>
     <g id="text_7">
      <!-- 0.2 -->
      <g transform="translate(290.441508 178.562074) scale(0.1 -0.1)">
       <use xlink:href="#DejaVuSans-30"/>
       <use xlink:href="#DejaVuSans-2e" x="63.623047"/>
       <use xlink:href="#DejaVuSans-32" x="95.410156"/>
      </g>
     </g>
    </g>
    <g id="xtick_8">
     <g id="line2d_8">
      <g>
       <use xlink:href="#ma04236c5b8" x="338.765249" y="163.963636" style="stroke: #000000; stroke-width: 0.8"/>
      </g>
     </g>
     <g id="text_8">
      <!-- 0.3 -->
      <g transform="translate(330.813686 178.562074) scale(0.1 -0.1)">
       <use xlink:href="#DejaVuSans-30"/>
       <use xlink:href="#DejaVuSans-2e" x="63.623047"/>
       <use xlink:href="#DejaVuSans-33" x="95.410156"/>
      </g>
     </g>
    </g>
    <g id="xtick_9">
     <g id="line2d_9">
      <g>
       <use xlink:href="#ma04236c5b8" x="379.137427" y="163.963636" style="stroke: #000000; stroke-width: 0.8"/>
      </g>
     </g>
     <g id="text_9">
      <!-- 0.4 -->
      <g transform="translate(371.185865 178.562074) scale(0.1 -0.1)">
       <use xlink:href="#DejaVuSans-30"/>
       <use xlink:href="#DejaVuSans-2e" x="63.623047"/>
       <use xlink:href="#DejaVuSans-34" x="95.410156"/>
      </g>
     </g>
    </g>
   </g>
   <g id="matplotlib.axis_2">
    <g id="ytick_1">
     <g id="line2d_10">
      <defs>
       <path id="maa7b375eef" d="M 0 0 
L -3.5 0 
" style="stroke: #000000; stroke-width: 0.8"/>
      </defs>
      <g>
       <use xlink:href="#maa7b375eef" x="56.16" y="157.001653" style="stroke: #000000; stroke-width: 0.8"/>
      </g>
     </g>
     <g id="text_10">
      <!-- 0.0 -->
      <g transform="translate(33.256875 160.800872) scale(0.1 -0.1)">
       <use xlink:href="#DejaVuSans-30"/>
       <use xlink:href="#DejaVuSans-2e" x="63.623047"/>
       <use xlink:href="#DejaVuSans-30" x="95.410156"/>
      </g>
     </g>
    </g>
    <g id="ytick_2">
     <g id="line2d_11">
      <g>
       <use xlink:href="#maa7b375eef" x="56.16" y="129.153719" style="stroke: #000000; stroke-width: 0.8"/>
      </g>
     </g>
     <g id="text_11">
      <!-- 0.2 -->
      <g transform="translate(33.256875 132.952938) scale(0.1 -0.1)">
       <use xlink:href="#DejaVuSans-30"/>
       <use xlink:href="#DejaVuSans-2e" x="63.623047"/>
       <use xlink:href="#DejaVuSans-32" x="95.410156"/>
      </g>
     </g>
    </g>
    <g id="ytick_3">
     <g id="line2d_12">
      <g>
       <use xlink:href="#maa7b375eef" x="56.16" y="101.305785" style="stroke: #000000; stroke-width: 0.8"/>
      </g>
     </g>
     <g id="text_12">
      <!-- 0.4 -->
      <g transform="translate(33.256875 105.105004) scale(0.1 -0.1)">
       <use xlink:href="#DejaVuSans-30"/>
       <use xlink:href="#DejaVuSans-2e" x="63.623047"/>
       <use xlink:href="#DejaVuSans-34" x="95.410156"/>
      </g>
     </g>
    </g>
    <g id="ytick_4">
     <g id="line2d_13">
      <g>
       <use xlink:href="#maa7b375eef" x="56.16" y="73.457851" style="stroke: #000000; stroke-width: 0.8"/>
      </g>
     </g>
     <g id="text_13">
      <!-- 0.6 -->
      <g transform="translate(33.256875 77.25707) scale(0.1 -0.1)">
       <defs>
        <path id="DejaVuSans-36" d="M 2113 2584 
Q 1688 2584 1439 2293 
Q 1191 2003 1191 1497 
Q 1191 994 1439 701 
Q 1688 409 2113 409 
Q 2538 409 2786 701 
Q 3034 994 3034 1497 
Q 3034 2003 2786 2293 
Q 2538 2584 2113 2584 
z
M 3366 4563 
L 3366 3988 
Q 3128 4100 2886 4159 
Q 2644 4219 2406 4219 
Q 1781 4219 1451 3797 
Q 1122 3375 1075 2522 
Q 1259 2794 1537 2939 
Q 1816 3084 2150 3084 
Q 2853 3084 3261 2657 
Q 3669 2231 3669 1497 
Q 3669 778 3244 343 
Q 2819 -91 2113 -91 
Q 1303 -91 875 529 
Q 447 1150 447 2328 
Q 447 3434 972 4092 
Q 1497 4750 2381 4750 
Q 2619 4750 2861 4703 
Q 3103 4656 3366 4563 
z
" transform="scale(0.015625)"/>
       </defs>
       <use xlink:href="#DejaVuSans-30"/>
       <use xlink:href="#DejaVuSans-2e" x="63.623047"/>
       <use xlink:href="#DejaVuSans-36" x="95.410156"/>
      </g>
     </g>
    </g>
    <g id="ytick_5">
     <g id="line2d_14">
      <g>
       <use xlink:href="#maa7b375eef" x="56.16" y="45.609917" style="stroke: #000000; stroke-width: 0.8"/>
      </g>
     </g>
     <g id="text_14">
      <!-- 0.8 -->
      <g transform="translate(33.256875 49.409136) scale(0.1 -0.1)">
       <defs>
        <path id="DejaVuSans-38" d="M 2034 2216 
Q 1584 2216 1326 1975 
Q 1069 1734 1069 1313 
Q 1069 891 1326 650 
Q 1584 409 2034 409 
Q 2484 409 2743 651 
Q 3003 894 3003 1313 
Q 3003 1734 2745 1975 
Q 2488 2216 2034 2216 
z
M 1403 2484 
Q 997 2584 770 2862 
Q 544 3141 544 3541 
Q 544 4100 942 4425 
Q 1341 4750 2034 4750 
Q 2731 4750 3128 4425 
Q 3525 4100 3525 3541 
Q 3525 3141 3298 2862 
Q 3072 2584 2669 2484 
Q 3125 2378 3379 2068 
Q 3634 1759 3634 1313 
Q 3634 634 3220 271 
Q 2806 -91 2034 -91 
Q 1263 -91 848 271 
Q 434 634 434 1313 
Q 434 1759 690 2068 
Q 947 2378 1403 2484 
z
M 1172 3481 
Q 1172 3119 1398 2916 
Q 1625 2713 2034 2713 
Q 2441 2713 2670 2916 
Q 2900 3119 2900 3481 
Q 2900 3844 2670 4047 
Q 2441 4250 2034 4250 
Q 1625 4250 1398 4047 
Q 1172 3844 1172 3481 
z
" transform="scale(0.015625)"/>
       </defs>
       <use xlink:href="#DejaVuSans-30"/>
       <use xlink:href="#DejaVuSans-2e" x="63.623047"/>
       <use xlink:href="#DejaVuSans-38" x="95.410156"/>
      </g>
     </g>
    </g>
    <g id="ytick_6">
     <g id="line2d_15">
      <g>
       <use xlink:href="#maa7b375eef" x="56.16" y="17.761983" style="stroke: #000000; stroke-width: 0.8"/>
      </g>
     </g>
     <g id="text_15">
      <!-- 1.0 -->
      <g transform="translate(33.256875 21.561202) scale(0.1 -0.1)">
       <use xlink:href="#DejaVuSans-31"/>
       <use xlink:href="#DejaVuSans-2e" x="63.623047"/>
       <use xlink:href="#DejaVuSans-30" x="95.410156"/>
      </g>
     </g>
    </g>
   </g>
   <g id="line2d_16">
    <path d="M 56.122981 157.001653 
L 153.016209 157.001653 
L 153.137326 17.761983 
L 282.20718 17.761983 
L 282.328296 157.001653 
L 379.14078 157.001653 
L 379.14078 157.001653 
" clip-path="url(#pe9127f6ced)" style="fill: none; stroke: #808080; stroke-width: 4; stroke-linecap: square"/>
   </g>
   <g id="line2d_17">
    <path d="M 217.648714 163.963636 
L 217.648714 10.8 
" clip-path="url(#pe9127f6ced)" style="fill: none; stroke-dasharray: 1,1.65; stroke-dashoffset: 0; stroke: #808080"/>
   </g>
   <g id="patch_3">
    <path d="M 56.16 163.963636 
L 56.16 10.8 
" style="fill: none; stroke: #000000; stroke-width: 0.8; stroke-linejoin: miter; stroke-linecap: square"/>
   </g>
   <g id="patch_4">
    <path d="M 379.137427 163.963636 
L 379.137427 10.8 
" style="fill: none; stroke: #000000; stroke-width: 0.8; stroke-linejoin: miter; stroke-linecap: square"/>
   </g>
   <g id="patch_5">
    <path d="M 56.16 163.963636 
L 379.137427 163.963636 
" style="fill: none; stroke: #000000; stroke-width: 0.8; stroke-linejoin: miter; stroke-linecap: square"/>
   </g>
   <g id="patch_6">
    <path d="M 56.16 10.8 
L 379.137427 10.8 
" style="fill: none; stroke: #000000; stroke-width: 0.8; stroke-linejoin: miter; stroke-linecap: square"/>
   </g>
  </g>
  <g id="axes_2">
   <g id="patch_7">
    <path d="M 56.16 347.76 
L 379.137427 347.76 
L 379.137427 194.596364 
L 56.16 194.596364 
z
" style="fill: #ffffff"/>
   </g>
   <g id="matplotlib.axis_3">
    <g id="xtick_10">
     <g id="line2d_18">
      <g>
       <use xlink:href="#ma04236c5b8" x="56.16" y="347.76" style="stroke: #000000; stroke-width: 0.8"/>
      </g>
     </g>
     <g id="text_16">
      <!-- −0.4 -->
      <g transform="translate(44.018594 362.358438) scale(0.1 -0.1)">
       <use xlink:href="#DejaVuSans-2212"/>
       <use xlink:href="#DejaVuSans-30" x="83.789062"/>
       <use xlink:href="#DejaVuSans-2e" x="147.412109"/>
       <use xlink:href="#DejaVuSans-34" x="179.199219"/>
      </g>
     </g>
    </g>
    <g id="xtick_11">
     <g id="line2d_19">
      <g>
       <use xlink:href="#ma04236c5b8" x="96.532178" y="347.76" style="stroke: #000000; stroke-width: 0.8"/>
      </g>
     </g>
     <g id="text_17">
      <!-- −0.3 -->
      <g transform="translate(84.390772 362.358438) scale(0.1 -0.1)">
       <use xlink:href="#DejaVuSans-2212"/>
       <use xlink:href="#DejaVuSans-30" x="83.789062"/>
       <use xlink:href="#DejaVuSans-2e" x="147.412109"/>
       <use xlink:href="#DejaVuSans-33" x="179.199219"/>
      </g>
     </g>
    </g>
    <g id="xtick_12">
     <g id="line2d_20">
      <g>
       <use xlink:href="#ma04236c5b8" x="136.904357" y="347.76" style="stroke: #000000; stroke-width: 0.8"/>
      </g>
     </g>
     <g id="text_18">
      <!-- −0.2 -->
      <g transform="translate(124.762951 362.358438) scale(0.1 -0.1)">
       <use xlink:href="#DejaVuSans-2212"/>
       <use xlink:href="#DejaVuSans-30" x="83.789062"/>
       <use xlink:href="#DejaVuSans-2e" x="147.412109"/>
       <use xlink:href="#DejaVuSans-32" x="179.199219"/>
      </g>
     </g>
    </g>
    <g id="xtick_13">
     <g id="line2d_21">
      <g>
       <use xlink:href="#ma04236c5b8" x="177.276535" y="347.76" style="stroke: #000000; stroke-width: 0.8"/>
      </g>
     </g>
     <g id="text_19">
      <!-- −0.1 -->
      <g transform="translate(165.135129 362.358438) scale(0.1 -0.1)">
       <use xlink:href="#DejaVuSans-2212"/>
       <use xlink:href="#DejaVuSans-30" x="83.789062"/>
       <use xlink:href="#DejaVuSans-2e" x="147.412109"/>
       <use xlink:href="#DejaVuSans-31" x="179.199219"/>
      </g>
     </g>
    </g>
    <g id="xtick_14">
     <g id="line2d_22">
      <g>
       <use xlink:href="#ma04236c5b8" x="217.648714" y="347.76" style="stroke: #000000; stroke-width: 0.8"/>
      </g>
     </g>
     <g id="text_20">
      <!-- 0.0 -->
      <g transform="translate(209.697151 362.358438) scale(0.1 -0.1)">
       <use xlink:href="#DejaVuSans-30"/>
       <use xlink:href="#DejaVuSans-2e" x="63.623047"/>
       <use xlink:href="#DejaVuSans-30" x="95.410156"/>
      </g>
     </g>
    </g>
    <g id="xtick_15">
     <g id="line2d_23">
      <g>
       <use xlink:href="#ma04236c5b8" x="258.020892" y="347.76" style="stroke: #000000; stroke-width: 0.8"/>
      </g>
     </g>
     <g id="text_21">
      <!-- 0.1 -->
      <g transform="translate(250.069329 362.358438) scale(0.1 -0.1)">
       <use xlink:href="#DejaVuSans-30"/>
       <use xlink:href="#DejaVuSans-2e" x="63.623047"/>
       <use xlink:href="#DejaVuSans-31" x="95.410156"/>
      </g>
     </g>
    </g>
    <g id="xtick_16">
     <g id="line2d_24">
      <g>
       <use xlink:href="#ma04236c5b8" x="298.39307" y="347.76" style="stroke: #000000; stroke-width: 0.8"/>
      </g>
     </g>
     <g id="text_22">
      <!-- 0.2 -->
      <g transform="translate(290.441508 362.358438) scale(0.1 -0.1)">
       <use xlink:href="#DejaVuSans-30"/>
       <use xlink:href="#DejaVuSans-2e" x="63.623047"/>
       <use xlink:href="#DejaVuSans-32" x="95.410156"/>
      </g>
     </g>
    </g>
    <g id="xtick_17">
     <g id="line2d_25">
      <g>
       <use xlink:href="#ma04236c5b8" x="338.765249" y="347.76" style="stroke: #000000; stroke-width: 0.8"/>
      </g>
     </g>
     <g id="text_23">
      <!-- 0.3 -->
      <g transform="translate(330.813686 362.358438) scale(0.1 -0.1)">
       <use xlink:href="#DejaVuSans-30"/>
       <use xlink:href="#DejaVuSans-2e" x="63.623047"/>
       <use xlink:href="#DejaVuSans-33" x="95.410156"/>
      </g>
     </g>
    </g>
    <g id="xtick_18">
     <g id="line2d_26">
      <g>
       <use xlink:href="#ma04236c5b8" x="379.137427" y="347.76" style="stroke: #000000; stroke-width: 0.8"/>
      </g>
     </g>
     <g id="text_24">
      <!-- 0.4 -->
      <g transform="translate(371.185865 362.358438) scale(0.1 -0.1)">
       <use xlink:href="#DejaVuSans-30"/>
       <use xlink:href="#DejaVuSans-2e" x="63.623047"/>
       <use xlink:href="#DejaVuSans-34" x="95.410156"/>
      </g>
     </g>
    </g>
    <g id="text_25">
     <!-- space [mm] -->
     <g transform="translate(187.748714 376.036563) scale(0.1 -0.1)">
      <defs>
       <path id="DejaVuSans-73" d="M 2834 3397 
L 2834 2853 
Q 2591 2978 2328 3040 
Q 2066 3103 1784 3103 
Q 1356 3103 1142 2972 
Q 928 2841 928 2578 
Q 928 2378 1081 2264 
Q 1234 2150 1697 2047 
L 1894 2003 
Q 2506 1872 2764 1633 
Q 3022 1394 3022 966 
Q 3022 478 2636 193 
Q 2250 -91 1575 -91 
Q 1294 -91 989 -36 
Q 684 19 347 128 
L 347 722 
Q 666 556 975 473 
Q 1284 391 1588 391 
Q 1994 391 2212 530 
Q 2431 669 2431 922 
Q 2431 1156 2273 1281 
Q 2116 1406 1581 1522 
L 1381 1569 
Q 847 1681 609 1914 
Q 372 2147 372 2553 
Q 372 3047 722 3315 
Q 1072 3584 1716 3584 
Q 2034 3584 2315 3537 
Q 2597 3491 2834 3397 
z
" transform="scale(0.015625)"/>
       <path id="DejaVuSans-70" d="M 1159 525 
L 1159 -1331 
L 581 -1331 
L 581 3500 
L 1159 3500 
L 1159 2969 
Q 1341 3281 1617 3432 
Q 1894 3584 2278 3584 
Q 2916 3584 3314 3078 
Q 3713 2572 3713 1747 
Q 3713 922 3314 415 
Q 2916 -91 2278 -91 
Q 1894 -91 1617 61 
Q 1341 213 1159 525 
z
M 3116 1747 
Q 3116 2381 2855 2742 
Q 2594 3103 2138 3103 
Q 1681 3103 1420 2742 
Q 1159 2381 1159 1747 
Q 1159 1113 1420 752 
Q 1681 391 2138 391 
Q 2594 391 2855 752 
Q 3116 1113 3116 1747 
z
" transform="scale(0.015625)"/>
       <path id="DejaVuSans-61" d="M 2194 1759 
Q 1497 1759 1228 1600 
Q 959 1441 959 1056 
Q 959 750 1161 570 
Q 1363 391 1709 391 
Q 2188 391 2477 730 
Q 2766 1069 2766 1631 
L 2766 1759 
L 2194 1759 
z
M 3341 1997 
L 3341 0 
L 2766 0 
L 2766 531 
Q 2569 213 2275 61 
Q 1981 -91 1556 -91 
Q 1019 -91 701 211 
Q 384 513 384 1019 
Q 384 1609 779 1909 
Q 1175 2209 1959 2209 
L 2766 2209 
L 2766 2266 
Q 2766 2663 2505 2880 
Q 2244 3097 1772 3097 
Q 1472 3097 1187 3025 
Q 903 2953 641 2809 
L 641 3341 
Q 956 3463 1253 3523 
Q 1550 3584 1831 3584 
Q 2591 3584 2966 3190 
Q 3341 2797 3341 1997 
z
" transform="scale(0.015625)"/>
       <path id="DejaVuSans-63" d="M 3122 3366 
L 3122 2828 
Q 2878 2963 2633 3030 
Q 2388 3097 2138 3097 
Q 1578 3097 1268 2742 
Q 959 2388 959 1747 
Q 959 1106 1268 751 
Q 1578 397 2138 397 
Q 2388 397 2633 464 
Q 2878 531 3122 666 
L 3122 134 
Q 2881 22 2623 -34 
Q 2366 -91 2075 -91 
Q 1284 -91 818 406 
Q 353 903 353 1747 
Q 353 2603 823 3093 
Q 1294 3584 2113 3584 
Q 2378 3584 2631 3529 
Q 2884 3475 3122 3366 
z
" transform="scale(0.015625)"/>
       <path id="DejaVuSans-65" d="M 3597 1894 
L 3597 1613 
L 953 1613 
Q 991 1019 1311 708 
Q 1631 397 2203 397 
Q 2534 397 2845 478 
Q 3156 559 3463 722 
L 3463 178 
Q 3153 47 2828 -22 
Q 2503 -91 2169 -91 
Q 1331 -91 842 396 
Q 353 884 353 1716 
Q 353 2575 817 3079 
Q 1281 3584 2069 3584 
Q 2775 3584 3186 3129 
Q 3597 2675 3597 1894 
z
M 3022 2063 
Q 3016 2534 2758 2815 
Q 2500 3097 2075 3097 
Q 1594 3097 1305 2825 
Q 1016 2553 972 2059 
L 3022 2063 
z
" transform="scale(0.015625)"/>
       <path id="DejaVuSans-20" transform="scale(0.015625)"/>
       <path id="DejaVuSans-5b" d="M 550 4863 
L 1875 4863 
L 1875 4416 
L 1125 4416 
L 1125 -397 
L 1875 -397 
L 1875 -844 
L 550 -844 
L 550 4863 
z
" transform="scale(0.015625)"/>
       <path id="DejaVuSans-6d" d="M 3328 2828 
Q 3544 3216 3844 3400 
Q 4144 3584 4550 3584 
Q 5097 3584 5394 3201 
Q 5691 2819 5691 2113 
L 5691 0 
L 5113 0 
L 5113 2094 
Q 5113 2597 4934 2840 
Q 4756 3084 4391 3084 
Q 3944 3084 3684 2787 
Q 3425 2491 3425 1978 
L 3425 0 
L 2847 0 
L 2847 2094 
Q 2847 2600 2669 2842 
Q 2491 3084 2119 3084 
Q 1678 3084 1418 2786 
Q 1159 2488 1159 1978 
L 1159 0 
L 581 0 
L 581 3500 
L 1159 3500 
L 1159 2956 
Q 1356 3278 1631 3431 
Q 1906 3584 2284 3584 
Q 2666 3584 2933 3390 
Q 3200 3197 3328 2828 
z
" transform="scale(0.015625)"/>
       <path id="DejaVuSans-5d" d="M 1947 4863 
L 1947 -844 
L 622 -844 
L 622 -397 
L 1369 -397 
L 1369 4416 
L 622 4416 
L 622 4863 
L 1947 4863 
z
" transform="scale(0.015625)"/>
      </defs>
      <use xlink:href="#DejaVuSans-73"/>
      <use xlink:href="#DejaVuSans-70" x="52.099609"/>
      <use xlink:href="#DejaVuSans-61" x="115.576172"/>
      <use xlink:href="#DejaVuSans-63" x="176.855469"/>
      <use xlink:href="#DejaVuSans-65" x="231.835938"/>
      <use xlink:href="#DejaVuSans-20" x="293.359375"/>
      <use xlink:href="#DejaVuSans-5b" x="325.146484"/>
      <use xlink:href="#DejaVuSans-6d" x="364.160156"/>
      <use xlink:href="#DejaVuSans-6d" x="461.572266"/>
      <use xlink:href="#DejaVuSans-5d" x="558.984375"/>
     </g>
    </g>
   </g>
   <g id="matplotlib.axis_4">
    <g id="ytick_7">
     <g id="line2d_27">
      <g>
       <use xlink:href="#maa7b375eef" x="56.16" y="340.798017" style="stroke: #000000; stroke-width: 0.8"/>
      </g>
     </g>
     <g id="text_26">
      <!-- 0 -->
      <g transform="translate(42.7975 344.597235) scale(0.1 -0.1)">
       <use xlink:href="#DejaVuSans-30"/>
      </g>
     </g>
    </g>
    <g id="ytick_8">
     <g id="line2d_28">
      <g>
       <use xlink:href="#maa7b375eef" x="56.16" y="299.392046" style="stroke: #000000; stroke-width: 0.8"/>
      </g>
     </g>
     <g id="text_27">
      <!-- 20 -->
      <g transform="translate(36.435 303.191264) scale(0.1 -0.1)">
       <use xlink:href="#DejaVuSans-32"/>
       <use xlink:href="#DejaVuSans-30" x="63.623047"/>
      </g>
     </g>
    </g>
    <g id="ytick_9">
     <g id="line2d_29">
      <g>
       <use xlink:href="#maa7b375eef" x="56.16" y="257.986075" style="stroke: #000000; stroke-width: 0.8"/>
      </g>
     </g>
     <g id="text_28">
      <!-- 40 -->
      <g transform="translate(36.435 261.785294) scale(0.1 -0.1)">
       <use xlink:href="#DejaVuSans-34"/>
       <use xlink:href="#DejaVuSans-30" x="63.623047"/>
      </g>
     </g>
    </g>
    <g id="ytick_10">
     <g id="line2d_30">
      <g>
       <use xlink:href="#maa7b375eef" x="56.16" y="216.580104" style="stroke: #000000; stroke-width: 0.8"/>
      </g>
     </g>
     <g id="text_29">
      <!-- 60 -->
      <g transform="translate(36.435 220.379323) scale(0.1 -0.1)">
       <use xlink:href="#DejaVuSans-36"/>
       <use xlink:href="#DejaVuSans-30" x="63.623047"/>
      </g>
     </g>
    </g>
    <g id="text_30">
     <!-- $R(t)$ -->
     <g transform="translate(30.355313 280.528182) rotate(-90) scale(0.1 -0.1)">
      <defs>
       <path id="DejaVuSans-Oblique-52" d="M 1613 4147 
L 1294 2491 
L 2106 2491 
Q 2584 2491 2879 2755 
Q 3175 3019 3175 3444 
Q 3175 3784 2976 3965 
Q 2778 4147 2406 4147 
L 1613 4147 
z
M 2772 2241 
Q 2972 2194 3105 2009 
Q 3238 1825 3413 1275 
L 3809 0 
L 3144 0 
L 2778 1197 
Q 2638 1659 2453 1815 
Q 2269 1972 1888 1972 
L 1191 1972 
L 806 0 
L 172 0 
L 1081 4666 
L 2503 4666 
Q 3150 4666 3495 4373 
Q 3841 4081 3841 3531 
Q 3841 3044 3547 2687 
Q 3253 2331 2772 2241 
z
" transform="scale(0.015625)"/>
       <path id="DejaVuSans-28" d="M 1984 4856 
Q 1566 4138 1362 3434 
Q 1159 2731 1159 2009 
Q 1159 1288 1364 580 
Q 1569 -128 1984 -844 
L 1484 -844 
Q 1016 -109 783 600 
Q 550 1309 550 2009 
Q 550 2706 781 3412 
Q 1013 4119 1484 4856 
L 1984 4856 
z
" transform="scale(0.015625)"/>
       <path id="DejaVuSans-Oblique-74" d="M 2706 3500 
L 2619 3053 
L 1472 3053 
L 1100 1153 
Q 1081 1047 1072 975 
Q 1063 903 1063 863 
Q 1063 663 1183 572 
Q 1303 481 1569 481 
L 2150 481 
L 2053 0 
L 1503 0 
Q 991 0 739 200 
Q 488 400 488 806 
Q 488 878 497 964 
Q 506 1050 525 1153 
L 897 3053 
L 409 3053 
L 500 3500 
L 978 3500 
L 1172 4494 
L 1747 4494 
L 1556 3500 
L 2706 3500 
z
" transform="scale(0.015625)"/>
       <path id="DejaVuSans-29" d="M 513 4856 
L 1013 4856 
Q 1481 4119 1714 3412 
Q 1947 2706 1947 2009 
Q 1947 1309 1714 600 
Q 1481 -109 1013 -844 
L 513 -844 
Q 928 -128 1133 580 
Q 1338 1288 1338 2009 
Q 1338 2731 1133 3434 
Q 928 4138 513 4856 
z
" transform="scale(0.015625)"/>
      </defs>
      <use xlink:href="#DejaVuSans-Oblique-52" transform="translate(0 0.125)"/>
      <use xlink:href="#DejaVuSans-28" transform="translate(69.482422 0.125)"/>
      <use xlink:href="#DejaVuSans-Oblique-74" transform="translate(108.496094 0.125)"/>
      <use xlink:href="#DejaVuSans-29" transform="translate(147.705078 0.125)"/>
     </g>
    </g>
   </g>
   <g id="line2d_31">
    <path d="M 56.122981 340.160561 
L 57.091913 340.165707 
L 58.14159 340.094006 
L 59.110522 340.095972 
L 60.160199 340.020801 
L 61.129131 340.019084 
L 62.178808 339.941879 
L 63.14774 339.934835 
L 64.197417 339.851414 
L 65.206721 339.833475 
L 66.216026 339.756075 
L 67.22533 339.731596 
L 68.234635 339.647412 
L 69.284311 339.610763 
L 70.253243 339.532732 
L 71.343292 339.480668 
L 72.271852 339.404697 
L 73.402273 339.338071 
L 74.371206 339.265669 
L 75.541999 339.170073 
L 76.591675 339.105838 
L 78.045074 338.958247 
L 82.203408 338.591049 
L 88.784073 337.82168 
L 89.793378 337.758332 
L 90.560449 337.606208 
L 91.448637 337.48757 
L 92.336825 337.402555 
L 93.386502 337.195459 
L 94.355434 337.120181 
L 95.324366 336.885098 
L 96.414415 336.802775 
L 97.262231 336.556896 
L 98.513768 336.45199 
L 99.240468 336.216818 
L 99.805678 336.313155 
L 100.2094 336.280534 
L 101.50131 335.885249 
L 102.228009 335.958479 
L 103.519918 335.526272 
L 104.246618 335.628008 
L 105.498155 335.146005 
L 106.265227 335.291666 
L 107.516764 334.769893 
L 108.283835 334.956582 
L 108.808674 334.559731 
L 109.252768 334.350768 
L 109.616117 334.430365 
L 110.2217 334.647541 
L 110.58505 334.395882 
L 111.190632 333.970567 
L 111.51361 333.993201 
L 112.361425 334.25126 
L 113.451474 333.587838 
L 113.774452 333.787035 
L 114.137801 334.006648 
L 114.420407 333.892501 
L 115.389339 333.197917 
L 115.712316 333.364188 
L 116.196782 333.695384 
L 116.439016 333.579651 
L 117.407948 332.839774 
L 117.690553 332.988454 
L 118.255764 333.391437 
L 118.538369 333.197237 
L 119.30544 332.492484 
L 119.588045 332.562286 
L 119.951395 332.946191 
L 120.234 333.113184 
L 120.476233 332.987476 
L 121.445166 332.168148 
L 121.727771 332.357713 
L 122.292981 332.86228 
L 122.535214 332.699278 
L 123.38303 331.872562 
L 123.625263 331.970138 
L 123.988613 332.43347 
L 124.271218 332.646406 
L 124.473079 332.55715 
L 124.876801 332.035687 
L 125.280523 331.637049 
L 125.522756 331.641325 
L 125.805361 331.909317 
L 126.289827 332.461908 
L 126.491688 332.373099 
L 126.89541 331.829956 
L 127.299131 331.416637 
L 127.541365 331.427326 
L 127.82397 331.719332 
L 128.308436 332.320081 
L 128.510297 332.232462 
L 128.873646 331.731369 
L 129.31774 331.243099 
L 129.559973 331.260757 
L 129.802207 331.513538 
L 130.367417 332.227416 
L 130.569278 332.099313 
L 131.53821 331.125572 
L 131.780443 331.35807 
L 132.426398 332.180529 
L 132.668631 331.958139 
L 133.435703 331.041029 
L 133.677936 331.161595 
L 133.960541 331.619806 
L 134.323891 332.187657 
L 134.525751 332.15782 
L 134.808357 331.786907 
L 135.333195 331.078435 
L 135.575428 331.074868 
L 135.817661 331.343056 
L 136.463616 332.283298 
L 136.665477 332.11497 
L 137.513293 331.117585 
L 137.715154 331.258342 
L 137.997759 331.771591 
L 138.361108 332.410464 
L 138.562969 332.393574 
L 138.845575 332.014859 
L 139.370413 331.287407 
L 139.612646 331.298512 
L 139.854879 331.601394 
L 140.500834 332.654623 
L 140.702695 332.49039 
L 141.55051 331.484391 
L 141.752371 331.646993 
L 142.034977 332.211172 
L 142.398326 332.916264 
L 142.600187 332.91445 
L 142.84242 332.60485 
L 143.407631 331.802698 
L 143.609492 331.804138 
L 143.851725 332.088902 
L 144.578424 333.311697 
L 144.780285 333.110574 
L 145.506984 332.160664 
L 145.708845 332.255994 
L 145.951078 332.657124 
L 146.516288 333.772065 
L 146.677777 333.712678 
L 146.960382 333.300801 
L 147.444849 332.648271 
L 147.646709 332.663434 
L 147.888942 332.97531 
L 148.615642 334.297989 
L 148.817503 334.107118 
L 149.544202 333.181447 
L 149.746063 333.293438 
L 149.988296 333.72288 
L 150.553506 334.904235 
L 150.714995 334.854181 
L 150.9976 334.453223 
L 151.482066 333.824851 
L 151.683927 333.857084 
L 151.92616 334.195616 
L 152.65286 335.59787 
L 152.85472 335.419146 
L 153.58142 334.539633 
L 153.783281 334.67008 
L 154.065886 335.230486 
L 154.550352 336.347025 
L 154.752213 336.333126 
L 155.034818 335.953673 
L 155.478912 335.375344 
L 155.680773 335.377785 
L 155.882634 335.607214 
L 156.205611 336.419255 
L 156.568961 337.192748 
L 156.770822 337.187497 
L 157.053427 336.820658 
L 157.497521 336.260883 
L 157.699382 336.270543 
L 157.901243 336.50626 
L 158.22422 337.32676 
L 158.58757 338.119108 
L 158.789431 338.127067 
L 159.072036 337.77734 
L 159.51613 337.235679 
L 159.717991 337.249622 
L 159.960224 337.562045 
L 160.323573 338.551632 
L 160.646551 339.122561 
L 160.848412 339.077341 
L 161.211761 338.584534 
L 161.575111 338.24 
L 161.776972 338.307228 
L 162.019205 338.681666 
L 162.786276 340.184658 
L 163.028509 339.960672 
L 163.59372 339.345525 
L 163.795581 339.41926 
L 164.037814 339.796629 
L 164.562652 340.798017 
L 165.329724 340.715217 
L 165.652701 340.512452 
L 165.854562 340.634382 
L 166.096795 340.798017 
L 344.016985 340.68869 
L 344.66294 340.500746 
L 345.833733 340.249477 
L 346.843038 339.957547 
L 348.013831 339.701799 
L 348.942391 339.494548 
L 350.436161 339.186253 
L 354.069657 338.590097 
L 359.641018 337.897104 
L 366.383172 337.49836 
L 367.311732 337.397743 
L 368.159548 337.407419 
L 368.966991 337.407579 
L 370.097412 337.354006 
L 370.945228 337.355522 
L 372.035277 337.306833 
L 373.084954 337.340904 
L 374.094258 337.310506 
L 374.982446 337.335968 
L 376.032123 337.296695 
L 377.081799 337.342312 
L 378.050731 337.321729 
L 379.100408 337.37478 
L 379.14078 337.369585 
L 379.14078 337.369585 
" clip-path="url(#pf00b1140e9)" style="fill: none; stroke: #1f77b4; stroke-width: 4; stroke-linecap: square"/>
   </g>
   <g id="line2d_32">
    <path d="M 56.122981 340.798017 
L 73.240785 340.693063 
L 79.215867 340.023184 
L 84.222017 339.256266 
L 88.90519 338.320324 
L 94.799528 336.813381 
L 102.712475 334.160352 
L 106.103738 332.801955 
L 107.153414 332.327099 
L 108.36458 331.844206 
L 111.029144 330.60126 
L 112.07882 330.115353 
L 112.967008 329.686436 
L 114.097429 329.139829 
L 114.904873 328.749679 
L 116.035294 328.169086 
L 116.842737 327.798051 
L 118.134647 327.131203 
L 118.942091 326.731794 
L 120.072512 326.129813 
L 120.879955 325.748895 
L 122.09112 325.089066 
L 122.81782 324.76929 
L 124.190474 324.044351 
L 124.917173 323.705622 
L 126.047594 323.080133 
L 126.855038 322.757816 
L 128.146947 322.07401 
L 128.873646 321.788401 
L 130.165556 321.126107 
L 130.811511 320.90513 
L 132.264909 320.213788 
L 132.910864 319.984947 
L 134.12203 319.397244 
L 134.848729 319.214321 
L 136.221383 318.620939 
L 136.867338 318.475984 
L 138.239992 317.93683 
L 138.885947 317.824007 
L 140.258601 317.346739 
L 140.904556 317.269203 
L 142.27721 316.861155 
L 142.923165 316.821837 
L 144.295819 316.489895 
L 144.941773 316.491443 
L 146.314428 316.241917 
L 146.960382 316.286647 
L 148.252292 316.099457 
L 148.978991 316.215001 
L 150.270901 316.114535 
L 150.916856 316.276982 
L 152.450999 316.333851 
L 153.016209 316.477337 
L 154.308119 316.563333 
L 155.034818 316.838516 
L 156.326728 317.022924 
L 157.053427 317.35265 
L 158.345337 317.633861 
L 159.072036 318.024957 
L 160.44469 318.470163 
L 161.090645 318.840579 
L 162.463299 319.368765 
L 163.109254 319.784451 
L 164.481908 320.417577 
L 165.208607 320.916037 
L 166.339028 321.459236 
L 167.227216 322.166194 
L 168.438381 322.871687 
L 169.245825 323.546749 
L 170.45699 324.317198 
L 171.264434 325.020584 
L 172.475599 325.850282 
L 173.283043 326.59719 
L 174.494208 327.501591 
L 175.382396 328.358093 
L 176.512817 329.272096 
L 177.401005 330.15679 
L 178.531426 331.107099 
L 179.419614 332.013807 
L 180.550035 332.999943 
L 181.438223 333.914801 
L 182.568644 334.926815 
L 183.537576 335.945426 
L 184.587253 336.932136 
L 185.556185 337.962063 
L 186.686606 339.055961 
L 187.655538 340.058774 
L 188.62447 340.798017 
L 353.262214 340.689824 
L 356.653477 339.512233 
L 360.125484 338.525702 
L 364.404935 337.600278 
L 370.218529 336.759022 
L 377.243288 336.255603 
L 379.181152 336.196312 
L 379.181152 336.196312 
" clip-path="url(#pf00b1140e9)" style="fill: none; stroke: #ff7f0e; stroke-width: 4; stroke-linecap: square"/>
   </g>
   <g id="line2d_33">
    <path d="M 56.042237 340.798017 
L 83.293457 340.699086 
L 87.411419 339.771739 
L 91.287148 338.668737 
L 95.283994 337.272943 
L 98.91749 335.747136 
L 103.398802 333.520877 
L 108.606813 330.467925 
L 113.088125 327.399152 
L 117.569436 323.974498 
L 127.379876 315.880136 
L 129.68109 313.870716 
L 131.740071 312.205107 
L 137.069199 307.98788 
L 141.429394 304.888122 
L 142.519443 304.209315 
L 145.305123 302.713427 
L 146.637405 302.004122 
L 150.028668 300.670759 
L 154.14663 299.63439 
L 155.963378 299.556747 
L 158.506825 299.588322 
L 161.898088 300.216076 
L 162.745904 300.536096 
L 165.289351 301.654962 
L 167.106099 302.456964 
L 170.376246 304.259724 
L 172.919693 306.168082 
L 176.553189 309.605541 
L 178.248821 311.269943 
L 180.428918 313.534355 
L 185.152463 318.958385 
L 194.599553 331.262299 
L 201.745428 340.798017 
L 360.04474 340.735204 
L 363.072653 339.392199 
L 366.3428 338.188871 
L 369.734063 337.196488 
L 373.246442 336.403603 
L 376.879938 335.79509 
L 379.181152 335.52172 
L 379.181152 335.52172 
" clip-path="url(#pf00b1140e9)" style="fill: none; stroke: #2ca02c; stroke-width: 4; stroke-linecap: square"/>
   </g>
   <g id="line2d_34">
    <path d="M 56.122981 340.798017 
L 88.90519 340.735045 
L 92.457942 339.544615 
L 95.687716 338.224902 
L 98.756001 336.74696 
L 101.985776 334.935191 
L 104.892572 333.086416 
L 108.606813 330.390145 
L 111.836587 327.738105 
L 114.743384 325.123341 
L 118.296136 321.644211 
L 121.364421 318.432617 
L 129.277368 309.477419 
L 134.606496 303.232824 
L 141.55051 295.529018 
L 143.649864 293.399965 
L 146.395172 290.825819 
L 149.947924 287.957269 
L 151.562811 286.854881 
L 153.339187 285.796412 
L 154.954074 284.943074 
L 157.214916 284.056599 
L 158.991292 283.53707 
L 160.929156 283.248705 
L 163.189998 283.177096 
L 164.966374 283.392915 
L 167.227216 283.931004 
L 169.003592 284.627725 
L 171.264434 285.788143 
L 173.363787 287.182783 
L 175.301652 288.670691 
L 177.401005 290.575781 
L 179.661847 292.883788 
L 182.084178 295.649203 
L 184.183531 298.263425 
L 186.928839 301.975655 
L 191.289034 308.402521 
L 196.618162 316.823648 
L 211.313635 340.73558 
L 211.636612 340.798017 
L 366.3428 340.720282 
L 369.411085 339.112142 
L 372.317882 337.842009 
L 375.386168 336.753511 
L 378.454453 335.886608 
L 379.261897 335.694248 
L 379.261897 335.694248 
" clip-path="url(#pf00b1140e9)" style="fill: none; stroke: #d62728; stroke-width: 4; stroke-linecap: square"/>
   </g>
   <g id="line2d_35">
    <path d="M 55.961492 340.798017 
L 93.103896 340.753543 
L 96.333671 339.327091 
L 99.159723 337.841971 
L 102.187637 335.990715 
L 105.013689 334.009277 
L 108.041602 331.598645 
L 110.867655 329.085287 
L 113.895568 326.090922 
L 116.923482 322.803288 
L 120.355117 318.718091 
L 123.584891 314.567504 
L 128.227692 308.177307 
L 132.870492 301.457609 
L 142.761676 287.111523 
L 146.798894 281.755234 
L 150.230529 277.648954 
L 153.056581 274.697173 
L 155.478912 272.499969 
L 157.29566 271.088197 
L 159.112408 269.889745 
L 161.131017 268.825918 
L 162.947765 268.118725 
L 164.764513 267.658313 
L 166.783122 267.449989 
L 168.801731 267.562474 
L 170.82034 267.998722 
L 172.838949 268.758412 
L 174.857558 269.837968 
L 176.876167 271.230642 
L 179.096636 273.115303 
L 181.317106 275.348622 
L 183.537576 277.90966 
L 185.959907 281.047463 
L 188.382237 284.512463 
L 191.20829 288.928302 
L 194.841786 295.073582 
L 199.282726 303.133308 
L 205.742274 315.443984 
L 217.046484 337.014489 
L 219.065093 340.736486 
L 219.468815 340.798017 
L 372.479371 340.723075 
L 375.305423 339.06806 
L 378.131476 337.668371 
L 379.14078 337.229436 
L 379.14078 337.229436 
" clip-path="url(#pf00b1140e9)" style="fill: none; stroke: #9467bd; stroke-width: 4; stroke-linecap: square"/>
   </g>
   <g id="line2d_36">
    <path d="M 56.042237 340.798017 
L 96.737392 340.748616 
L 99.644189 339.175549 
L 102.550986 337.336125 
L 105.21555 335.38123 
L 108.122347 332.962907 
L 110.786911 330.449729 
L 113.693707 327.404804 
L 116.600504 324.012103 
L 119.749534 319.985199 
L 122.898564 315.57299 
L 126.53206 310.094514 
L 130.165556 304.204161 
L 134.283518 297.213167 
L 147.364104 274.745475 
L 150.513134 269.864235 
L 153.904397 265.035135 
L 156.326728 261.99649 
L 158.991292 259.034035 
L 160.929156 257.205733 
L 162.867021 255.67167 
L 164.562652 254.621843 
L 166.500517 253.742021 
L 168.438381 253.129643 
L 170.618479 252.714566 
L 172.31411 252.662456 
L 173.767509 252.841665 
L 175.220907 253.218107 
L 176.674306 253.826952 
L 178.369937 254.81159 
L 180.307802 256.221875 
L 182.487899 258.10653 
L 184.425764 260.081733 
L 186.363628 262.365641 
L 188.543726 265.258909 
L 190.723824 268.495948 
L 193.388388 272.885139 
L 196.295184 278.094073 
L 199.686447 284.66837 
L 203.80441 293.148364 
L 209.618003 305.69662 
L 223.909754 336.789928 
L 225.847619 340.798017 
L 378.454453 340.798017 
L 379.181152 340.351462 
L 379.181152 340.351462 
" clip-path="url(#pf00b1140e9)" style="fill: none; stroke: #8c564b; stroke-width: 4; stroke-linecap: square"/>
   </g>
   <g id="line2d_37">
    <path d="M 56.001864 340.798017 
L 99.805678 340.774375 
L 102.63173 338.987261 
L 105.457783 336.924735 
L 108.00123 334.794809 
L 110.544677 332.376319 
L 113.088125 329.648181 
L 115.914177 326.27542 
L 119.022835 322.231808 
L 121.848887 318.198713 
L 124.67494 313.785344 
L 128.066203 308.024328 
L 132.587887 299.912565 
L 136.261755 292.888321 
L 140.500834 284.324888 
L 146.718149 271.789951 
L 151.239833 263.375016 
L 155.196307 256.43412 
L 157.739754 252.325282 
L 159.717991 249.495651 
L 161.696227 247.004996 
L 163.674464 244.821313 
L 165.652701 242.918915 
L 167.630938 241.294002 
L 169.326569 240.134928 
L 171.022201 239.216076 
L 172.435227 238.693059 
L 173.848253 238.410147 
L 175.261279 238.351536 
L 176.674306 238.501474 
L 178.369937 238.939719 
L 180.065569 239.634701 
L 181.7612 240.573538 
L 183.456832 241.753299 
L 185.152463 243.183132 
L 186.848095 244.906546 
L 188.826331 247.288175 
L 191.087173 250.440776 
L 193.630621 254.441472 
L 196.456673 259.351511 
L 199.282726 264.704177 
L 202.391383 271.115703 
L 206.065252 279.265863 
L 211.152146 291.140854 
L 218.499882 308.908508 
L 230.086698 336.926058 
L 231.782329 340.798017 
L 379.302269 340.798017 
L 379.302269 340.798017 
" clip-path="url(#pf00b1140e9)" style="fill: none; stroke: #e377c2; stroke-width: 4; stroke-linecap: square"/>
   </g>
   <g id="line2d_38">
    <path d="M 55.961492 340.798017 
L 102.470242 340.798017 
L 103.116197 340.439995 
L 105.700016 338.540346 
L 108.283835 336.362992 
L 110.867655 333.874595 
L 113.451474 331.086354 
L 116.035294 327.982319 
L 118.619113 324.528884 
L 121.52591 320.263554 
L 124.432707 315.598532 
L 127.339504 310.504601 
L 130.892255 303.820957 
L 134.12203 297.307035 
L 139.289668 286.269818 
L 147.364104 268.313686 
L 152.85472 256.436564 
L 156.407472 249.329103 
L 159.637246 243.350926 
L 161.898088 239.572099 
L 164.15893 236.180874 
L 166.419772 233.162257 
L 168.357637 230.914795 
L 169.972524 229.329085 
L 171.587411 228.003318 
L 173.202298 226.926035 
L 174.817185 226.086729 
L 176.432073 225.523919 
L 177.723982 225.286017 
L 179.015892 225.230035 
L 180.630779 225.409602 
L 182.245666 225.851421 
L 183.860553 226.556545 
L 185.475441 227.546353 
L 187.090328 228.814875 
L 189.028192 230.680642 
L 190.966057 232.892006 
L 192.903921 235.45331 
L 195.164763 238.870599 
L 197.425605 242.697388 
L 200.009425 247.513914 
L 202.916222 253.466057 
L 206.145996 260.633131 
L 209.698748 269.049725 
L 214.220432 280.381037 
L 220.357003 296.409839 
L 237.151829 340.798017 
L 379.261897 340.798017 
L 379.261897 340.798017 
" clip-path="url(#pf00b1140e9)" style="fill: none; stroke: #7f7f7f; stroke-width: 4; stroke-linecap: square"/>
   </g>
   <g id="line2d_39">
    <path d="M 55.92112 340.798017 
L 105.336666 340.693366 
L 107.880114 338.668596 
L 110.423561 336.344145 
L 112.967008 333.695884 
L 115.510455 330.710892 
L 118.053903 327.372342 
L 120.960699 323.163387 
L 123.867496 318.529456 
L 126.774293 313.458633 
L 129.68109 307.944744 
L 132.951236 301.225457 
L 136.584733 293.191447 
L 141.671627 281.354761 
L 148.57527 264.66622 
L 155.478912 248.133463 
L 158.749058 240.907382 
L 161.655855 235.003498 
L 164.199303 230.262621 
L 166.74275 225.972504 
L 168.922847 222.693663 
L 171.102945 219.811079 
L 172.919693 217.747536 
L 174.736441 216.047292 
L 176.553189 214.721626 
L 178.006588 213.930619 
L 179.459986 213.381563 
L 180.913384 213.06028 
L 182.366783 212.975099 
L 183.820181 213.121439 
L 185.27358 213.487922 
L 186.726978 214.083736 
L 188.180376 214.906411 
L 189.633775 215.949808 
L 191.450523 217.569664 
L 193.267271 219.549933 
L 195.084019 221.870189 
L 197.264117 225.08099 
L 199.444214 228.713841 
L 201.987662 233.439796 
L 204.531109 238.63074 
L 207.437906 245.07485 
L 210.708052 252.893653 
L 214.341548 262.175662 
L 219.065093 274.923338 
L 225.242036 292.305329 
L 236.142524 323.761915 
L 241.956118 340.698032 
L 242.682817 340.798017 
L 379.302269 340.798017 
L 379.302269 340.798017 
" clip-path="url(#pf00b1140e9)" style="fill: none; stroke: #bcbd22; stroke-width: 4; stroke-linecap: square"/>
   </g>
   <g id="line2d_40">
    <path d="M 55.961492 340.798017 
L 107.234159 340.798017 
L 107.637881 340.636865 
L 110.060211 338.509318 
L 112.482542 336.096628 
L 114.904873 333.383109 
L 117.327203 330.354408 
L 119.749534 326.999246 
L 122.575587 322.66379 
L 125.401639 317.870853 
L 128.227692 312.623418 
L 131.053744 306.940997 
L 134.283518 299.941329 
L 137.917014 291.496833 
L 141.954232 281.531566 
L 147.606337 266.915113 
L 156.488216 243.879242 
L 160.525434 234.080481 
L 163.755209 226.8311 
L 166.581261 221.039717 
L 169.003592 216.564351 
L 171.425922 212.59444 
L 173.444531 209.706327 
L 175.46314 207.226895 
L 177.078027 205.551017 
L 178.692915 204.159247 
L 180.307802 203.060225 
L 181.922689 202.258387 
L 183.537576 201.757267 
L 184.748741 201.57967 
L 185.959907 201.575729 
L 187.171072 201.741378 
L 188.785959 202.227996 
L 190.400846 203.016164 
L 192.015733 204.100511 
L 193.630621 205.474827 
L 195.245508 207.132061 
L 197.264117 209.589548 
L 199.282726 212.457415 
L 201.301334 215.714248 
L 203.723665 220.103032 
L 206.145996 224.974443 
L 208.972048 231.206854 
L 212.201823 238.964009 
L 215.835319 248.367652 
L 219.872537 259.48353 
L 224.717198 273.502983 
L 231.176746 292.939643 
L 240.462348 321.670713 
L 246.518174 340.711922 
L 247.325618 340.798017 
L 379.342641 340.798017 
L 379.342641 340.798017 
" clip-path="url(#pf00b1140e9)" style="fill: none; stroke: #17becf; stroke-width: 4; stroke-linecap: square"/>
   </g>
   <g id="line2d_41">
    <path d="M 217.648714 347.76 
L 217.648714 194.596364 
" clip-path="url(#pf00b1140e9)" style="fill: none; stroke-dasharray: 1,1.65; stroke-dashoffset: 0; stroke: #808080"/>
   </g>
   <g id="patch_8">
    <path d="M 56.16 347.76 
L 56.16 194.596364 
" style="fill: none; stroke: #000000; stroke-width: 0.8; stroke-linejoin: miter; stroke-linecap: square"/>
   </g>
   <g id="patch_9">
    <path d="M 379.137427 347.76 
L 379.137427 194.596364 
" style="fill: none; stroke: #000000; stroke-width: 0.8; stroke-linejoin: miter; stroke-linecap: square"/>
   </g>
   <g id="patch_10">
    <path d="M 56.16 347.76 
L 379.137427 347.76 
" style="fill: none; stroke: #000000; stroke-width: 0.8; stroke-linejoin: miter; stroke-linecap: square"/>
   </g>
   <g id="patch_11">
    <path d="M 56.16 194.596364 
L 379.137427 194.596364 
" style="fill: none; stroke: #000000; stroke-width: 0.8; stroke-linejoin: miter; stroke-linecap: square"/>
   </g>
  </g>
  <g id="axes_3">
   <g id="patch_12">
    <path d="M 454.622573 347.76 
L 777.6 347.76 
L 777.6 10.8 
L 454.622573 10.8 
z
" style="fill: #ffffff"/>
   </g>
   <g id="matplotlib.axis_5">
    <g id="xtick_19">
     <g id="line2d_42">
      <g>
       <use xlink:href="#ma04236c5b8" x="469.303365" y="347.76" style="stroke: #000000; stroke-width: 0.8"/>
      </g>
     </g>
     <g id="text_31">
      <!-- $\mathdefault{10^{-1}}$ -->
      <g transform="translate(457.553365 362.358438) scale(0.1 -0.1)">
       <use xlink:href="#DejaVuSans-31" transform="translate(0 0.684375)"/>
       <use xlink:href="#DejaVuSans-30" transform="translate(63.623047 0.684375)"/>
       <use xlink:href="#DejaVuSans-2212" transform="translate(128.203125 38.965625) scale(0.7)"/>
       <use xlink:href="#DejaVuSans-31" transform="translate(186.855469 38.965625) scale(0.7)"/>
      </g>
     </g>
    </g>
    <g id="xtick_20">
     <g id="line2d_43">
      <g>
       <use xlink:href="#ma04236c5b8" x="762.919208" y="347.76" style="stroke: #000000; stroke-width: 0.8"/>
      </g>
     </g>
     <g id="text_32">
      <!-- $\mathdefault{10^{0}}$ -->
      <g transform="translate(754.119208 362.358438) scale(0.1 -0.1)">
       <use xlink:href="#DejaVuSans-31" transform="translate(0 0.765625)"/>
       <use xlink:href="#DejaVuSans-30" transform="translate(63.623047 0.765625)"/>
       <use xlink:href="#DejaVuSans-30" transform="translate(128.203125 39.046875) scale(0.7)"/>
      </g>
     </g>
    </g>
    <g id="xtick_21">
     <g id="line2d_44">
      <defs>
       <path id="m64810f5a37" d="M 0 0 
L 0 2 
" style="stroke: #000000; stroke-width: 0.6"/>
      </defs>
      <g>
       <use xlink:href="#m64810f5a37" x="455.868241" y="347.76" style="stroke: #000000; stroke-width: 0.6"/>
      </g>
     </g>
    </g>
    <g id="xtick_22">
     <g id="line2d_45">
      <g>
       <use xlink:href="#m64810f5a37" x="557.690541" y="347.76" style="stroke: #000000; stroke-width: 0.6"/>
      </g>
     </g>
    </g>
    <g id="xtick_23">
     <g id="line2d_46">
      <g>
       <use xlink:href="#m64810f5a37" x="609.393724" y="347.76" style="stroke: #000000; stroke-width: 0.6"/>
      </g>
     </g>
    </g>
    <g id="xtick_24">
     <g id="line2d_47">
      <g>
       <use xlink:href="#m64810f5a37" x="646.077717" y="347.76" style="stroke: #000000; stroke-width: 0.6"/>
      </g>
     </g>
    </g>
    <g id="xtick_25">
     <g id="line2d_48">
      <g>
       <use xlink:href="#m64810f5a37" x="674.532032" y="347.76" style="stroke: #000000; stroke-width: 0.6"/>
      </g>
     </g>
    </g>
    <g id="xtick_26">
     <g id="line2d_49">
      <g>
       <use xlink:href="#m64810f5a37" x="697.7809" y="347.76" style="stroke: #000000; stroke-width: 0.6"/>
      </g>
     </g>
    </g>
    <g id="xtick_27">
     <g id="line2d_50">
      <g>
       <use xlink:href="#m64810f5a37" x="717.437538" y="347.76" style="stroke: #000000; stroke-width: 0.6"/>
      </g>
     </g>
    </g>
    <g id="xtick_28">
     <g id="line2d_51">
      <g>
       <use xlink:href="#m64810f5a37" x="734.464893" y="347.76" style="stroke: #000000; stroke-width: 0.6"/>
      </g>
     </g>
    </g>
    <g id="xtick_29">
     <g id="line2d_52">
      <g>
       <use xlink:href="#m64810f5a37" x="749.484084" y="347.76" style="stroke: #000000; stroke-width: 0.6"/>
      </g>
     </g>
    </g>
    <g id="text_33">
     <!-- v [mm/s] -->
     <g transform="translate(593.631599 376.036563) scale(0.1 -0.1)">
      <defs>
       <path id="DejaVuSans-76" d="M 191 3500 
L 800 3500 
L 1894 563 
L 2988 3500 
L 3597 3500 
L 2284 0 
L 1503 0 
L 191 3500 
z
" transform="scale(0.015625)"/>
       <path id="DejaVuSans-2f" d="M 1625 4666 
L 2156 4666 
L 531 -594 
L 0 -594 
L 1625 4666 
z
" transform="scale(0.015625)"/>
      </defs>
      <use xlink:href="#DejaVuSans-76"/>
      <use xlink:href="#DejaVuSans-20" x="59.179688"/>
      <use xlink:href="#DejaVuSans-5b" x="90.966797"/>
      <use xlink:href="#DejaVuSans-6d" x="129.980469"/>
      <use xlink:href="#DejaVuSans-6d" x="227.392578"/>
      <use xlink:href="#DejaVuSans-2f" x="324.804688"/>
      <use xlink:href="#DejaVuSans-73" x="358.496094"/>
      <use xlink:href="#DejaVuSans-5d" x="410.595703"/>
     </g>
    </g>
   </g>
   <g id="matplotlib.axis_6">
    <g id="ytick_11">
     <g id="line2d_53">
      <g>
       <use xlink:href="#maa7b375eef" x="454.622573" y="347.76" style="stroke: #000000; stroke-width: 0.8"/>
      </g>
     </g>
     <g id="text_34">
      <!-- −0.20 -->
      <g transform="translate(416.97726 351.559219) scale(0.1 -0.1)">
       <use xlink:href="#DejaVuSans-2212"/>
       <use xlink:href="#DejaVuSans-30" x="83.789062"/>
       <use xlink:href="#DejaVuSans-2e" x="147.412109"/>
       <use xlink:href="#DejaVuSans-32" x="179.199219"/>
       <use xlink:href="#DejaVuSans-30" x="242.822266"/>
      </g>
     </g>
    </g>
    <g id="ytick_12">
     <g id="line2d_54">
      <g>
       <use xlink:href="#maa7b375eef" x="454.622573" y="310.32" style="stroke: #000000; stroke-width: 0.8"/>
      </g>
     </g>
     <g id="text_35">
      <!-- −0.15 -->
      <g transform="translate(416.97726 314.119219) scale(0.1 -0.1)">
       <defs>
        <path id="DejaVuSans-35" d="M 691 4666 
L 3169 4666 
L 3169 4134 
L 1269 4134 
L 1269 2991 
Q 1406 3038 1543 3061 
Q 1681 3084 1819 3084 
Q 2600 3084 3056 2656 
Q 3513 2228 3513 1497 
Q 3513 744 3044 326 
Q 2575 -91 1722 -91 
Q 1428 -91 1123 -41 
Q 819 9 494 109 
L 494 744 
Q 775 591 1075 516 
Q 1375 441 1709 441 
Q 2250 441 2565 725 
Q 2881 1009 2881 1497 
Q 2881 1984 2565 2268 
Q 2250 2553 1709 2553 
Q 1456 2553 1204 2497 
Q 953 2441 691 2322 
L 691 4666 
z
" transform="scale(0.015625)"/>
       </defs>
       <use xlink:href="#DejaVuSans-2212"/>
       <use xlink:href="#DejaVuSans-30" x="83.789062"/>
       <use xlink:href="#DejaVuSans-2e" x="147.412109"/>
       <use xlink:href="#DejaVuSans-31" x="179.199219"/>
       <use xlink:href="#DejaVuSans-35" x="242.822266"/>
      </g>
     </g>
    </g>
    <g id="ytick_13">
     <g id="line2d_55">
      <g>
       <use xlink:href="#maa7b375eef" x="454.622573" y="272.88" style="stroke: #000000; stroke-width: 0.8"/>
      </g>
     </g>
     <g id="text_36">
      <!-- −0.10 -->
      <g transform="translate(416.97726 276.679219) scale(0.1 -0.1)">
       <use xlink:href="#DejaVuSans-2212"/>
       <use xlink:href="#DejaVuSans-30" x="83.789062"/>
       <use xlink:href="#DejaVuSans-2e" x="147.412109"/>
       <use xlink:href="#DejaVuSans-31" x="179.199219"/>
       <use xlink:href="#DejaVuSans-30" x="242.822266"/>
      </g>
     </g>
    </g>
    <g id="ytick_14">
     <g id="line2d_56">
      <g>
       <use xlink:href="#maa7b375eef" x="454.622573" y="235.44" style="stroke: #000000; stroke-width: 0.8"/>
      </g>
     </g>
     <g id="text_37">
      <!-- −0.05 -->
      <g transform="translate(416.97726 239.239219) scale(0.1 -0.1)">
       <use xlink:href="#DejaVuSans-2212"/>
       <use xlink:href="#DejaVuSans-30" x="83.789062"/>
       <use xlink:href="#DejaVuSans-2e" x="147.412109"/>
       <use xlink:href="#DejaVuSans-30" x="179.199219"/>
       <use xlink:href="#DejaVuSans-35" x="242.822266"/>
      </g>
     </g>
    </g>
    <g id="ytick_15">
     <g id="line2d_57">
      <g>
       <use xlink:href="#maa7b375eef" x="454.622573" y="198" style="stroke: #000000; stroke-width: 0.8"/>
      </g>
     </g>
     <g id="text_38">
      <!-- 0.00 -->
      <g transform="translate(425.356948 201.799219) scale(0.1 -0.1)">
       <use xlink:href="#DejaVuSans-30"/>
       <use xlink:href="#DejaVuSans-2e" x="63.623047"/>
       <use xlink:href="#DejaVuSans-30" x="95.410156"/>
       <use xlink:href="#DejaVuSans-30" x="159.033203"/>
      </g>
     </g>
    </g>
    <g id="ytick_16">
     <g id="line2d_58">
      <g>
       <use xlink:href="#maa7b375eef" x="454.622573" y="160.56" style="stroke: #000000; stroke-width: 0.8"/>
      </g>
     </g>
     <g id="text_39">
      <!-- 0.05 -->
      <g transform="translate(425.356948 164.359219) scale(0.1 -0.1)">
       <use xlink:href="#DejaVuSans-30"/>
       <use xlink:href="#DejaVuSans-2e" x="63.623047"/>
       <use xlink:href="#DejaVuSans-30" x="95.410156"/>
       <use xlink:href="#DejaVuSans-35" x="159.033203"/>
      </g>
     </g>
    </g>
    <g id="ytick_17">
     <g id="line2d_59">
      <g>
       <use xlink:href="#maa7b375eef" x="454.622573" y="123.12" style="stroke: #000000; stroke-width: 0.8"/>
      </g>
     </g>
     <g id="text_40">
      <!-- 0.10 -->
      <g transform="translate(425.356948 126.919219) scale(0.1 -0.1)">
       <use xlink:href="#DejaVuSans-30"/>
       <use xlink:href="#DejaVuSans-2e" x="63.623047"/>
       <use xlink:href="#DejaVuSans-31" x="95.410156"/>
       <use xlink:href="#DejaVuSans-30" x="159.033203"/>
      </g>
     </g>
    </g>
    <g id="ytick_18">
     <g id="line2d_60">
      <g>
       <use xlink:href="#maa7b375eef" x="454.622573" y="85.68" style="stroke: #000000; stroke-width: 0.8"/>
      </g>
     </g>
     <g id="text_41">
      <!-- 0.15 -->
      <g transform="translate(425.356948 89.479219) scale(0.1 -0.1)">
       <use xlink:href="#DejaVuSans-30"/>
       <use xlink:href="#DejaVuSans-2e" x="63.623047"/>
       <use xlink:href="#DejaVuSans-31" x="95.410156"/>
       <use xlink:href="#DejaVuSans-35" x="159.033203"/>
      </g>
     </g>
    </g>
    <g id="ytick_19">
     <g id="line2d_61">
      <g>
       <use xlink:href="#maa7b375eef" x="454.622573" y="48.24" style="stroke: #000000; stroke-width: 0.8"/>
      </g>
     </g>
     <g id="text_42">
      <!-- 0.20 -->
      <g transform="translate(425.356948 52.039219) scale(0.1 -0.1)">
       <use xlink:href="#DejaVuSans-30"/>
       <use xlink:href="#DejaVuSans-2e" x="63.623047"/>
       <use xlink:href="#DejaVuSans-32" x="95.410156"/>
       <use xlink:href="#DejaVuSans-30" x="159.033203"/>
      </g>
     </g>
    </g>
    <g id="ytick_20">
     <g id="line2d_62">
      <g>
       <use xlink:href="#maa7b375eef" x="454.622573" y="10.8" style="stroke: #000000; stroke-width: 0.8"/>
      </g>
     </g>
     <g id="text_43">
      <!-- 0.25 -->
      <g transform="translate(425.356948 14.599219) scale(0.1 -0.1)">
       <use xlink:href="#DejaVuSans-30"/>
       <use xlink:href="#DejaVuSans-2e" x="63.623047"/>
       <use xlink:href="#DejaVuSans-32" x="95.410156"/>
       <use xlink:href="#DejaVuSans-35" x="159.033203"/>
      </g>
     </g>
    </g>
    <g id="text_44">
     <!-- anticipation [$mm$] -->
     <g transform="translate(410.87726 224.08) rotate(-90) scale(0.1 -0.1)">
      <defs>
       <path id="DejaVuSans-6e" d="M 3513 2113 
L 3513 0 
L 2938 0 
L 2938 2094 
Q 2938 2591 2744 2837 
Q 2550 3084 2163 3084 
Q 1697 3084 1428 2787 
Q 1159 2491 1159 1978 
L 1159 0 
L 581 0 
L 581 3500 
L 1159 3500 
L 1159 2956 
Q 1366 3272 1645 3428 
Q 1925 3584 2291 3584 
Q 2894 3584 3203 3211 
Q 3513 2838 3513 2113 
z
" transform="scale(0.015625)"/>
       <path id="DejaVuSans-74" d="M 1172 4494 
L 1172 3500 
L 2356 3500 
L 2356 3053 
L 1172 3053 
L 1172 1153 
Q 1172 725 1289 603 
Q 1406 481 1766 481 
L 2356 481 
L 2356 0 
L 1766 0 
Q 1100 0 847 248 
Q 594 497 594 1153 
L 594 3053 
L 172 3053 
L 172 3500 
L 594 3500 
L 594 4494 
L 1172 4494 
z
" transform="scale(0.015625)"/>
       <path id="DejaVuSans-69" d="M 603 3500 
L 1178 3500 
L 1178 0 
L 603 0 
L 603 3500 
z
M 603 4863 
L 1178 4863 
L 1178 4134 
L 603 4134 
L 603 4863 
z
" transform="scale(0.015625)"/>
       <path id="DejaVuSans-6f" d="M 1959 3097 
Q 1497 3097 1228 2736 
Q 959 2375 959 1747 
Q 959 1119 1226 758 
Q 1494 397 1959 397 
Q 2419 397 2687 759 
Q 2956 1122 2956 1747 
Q 2956 2369 2687 2733 
Q 2419 3097 1959 3097 
z
M 1959 3584 
Q 2709 3584 3137 3096 
Q 3566 2609 3566 1747 
Q 3566 888 3137 398 
Q 2709 -91 1959 -91 
Q 1206 -91 779 398 
Q 353 888 353 1747 
Q 353 2609 779 3096 
Q 1206 3584 1959 3584 
z
" transform="scale(0.015625)"/>
       <path id="DejaVuSans-Oblique-6d" d="M 5747 2113 
L 5338 0 
L 4763 0 
L 5166 2094 
Q 5191 2228 5203 2325 
Q 5216 2422 5216 2491 
Q 5216 2772 5059 2928 
Q 4903 3084 4622 3084 
Q 4203 3084 3875 2770 
Q 3547 2456 3450 1953 
L 3066 0 
L 2491 0 
L 2900 2094 
Q 2925 2209 2937 2307 
Q 2950 2406 2950 2484 
Q 2950 2769 2794 2926 
Q 2638 3084 2363 3084 
Q 1938 3084 1609 2770 
Q 1281 2456 1184 1953 
L 800 0 
L 225 0 
L 909 3500 
L 1484 3500 
L 1375 2956 
Q 1609 3263 1923 3423 
Q 2238 3584 2597 3584 
Q 2978 3584 3223 3384 
Q 3469 3184 3519 2828 
Q 3781 3197 4126 3390 
Q 4472 3584 4856 3584 
Q 5306 3584 5551 3325 
Q 5797 3066 5797 2591 
Q 5797 2488 5784 2364 
Q 5772 2241 5747 2113 
z
" transform="scale(0.015625)"/>
      </defs>
      <use xlink:href="#DejaVuSans-61" transform="translate(0 0.015625)"/>
      <use xlink:href="#DejaVuSans-6e" transform="translate(61.279297 0.015625)"/>
      <use xlink:href="#DejaVuSans-74" transform="translate(124.658203 0.015625)"/>
      <use xlink:href="#DejaVuSans-69" transform="translate(163.867188 0.015625)"/>
      <use xlink:href="#DejaVuSans-63" transform="translate(191.650391 0.015625)"/>
      <use xlink:href="#DejaVuSans-69" transform="translate(246.630859 0.015625)"/>
      <use xlink:href="#DejaVuSans-70" transform="translate(274.414062 0.015625)"/>
      <use xlink:href="#DejaVuSans-61" transform="translate(337.890625 0.015625)"/>
      <use xlink:href="#DejaVuSans-74" transform="translate(399.169922 0.015625)"/>
      <use xlink:href="#DejaVuSans-69" transform="translate(438.378906 0.015625)"/>
      <use xlink:href="#DejaVuSans-6f" transform="translate(466.162109 0.015625)"/>
      <use xlink:href="#DejaVuSans-6e" transform="translate(527.34375 0.015625)"/>
      <use xlink:href="#DejaVuSans-20" transform="translate(590.722656 0.015625)"/>
      <use xlink:href="#DejaVuSans-5b" transform="translate(622.509766 0.015625)"/>
      <use xlink:href="#DejaVuSans-Oblique-6d" transform="translate(661.523438 0.015625)"/>
      <use xlink:href="#DejaVuSans-Oblique-6d" transform="translate(758.935547 0.015625)"/>
      <use xlink:href="#DejaVuSans-5d" transform="translate(856.347656 0.015625)"/>
     </g>
    </g>
   </g>
   <g id="line2d_63">
    <path d="M 454.622573 198 
L 777.6 198 
" clip-path="url(#p0dd09d03ad)" style="fill: none; stroke-dasharray: 1,1.65; stroke-dashoffset: 0; stroke: #808080"/>
   </g>
   <g id="line2d_64">
    <path d="M 469.303365 41.806539 
L 557.690541 72.282699 
L 609.393724 87.633099 
L 646.077717 95.495499 
L 674.532032 103.657419 
L 697.7809 113.017419 
L 717.437538 118.858059 
L 734.464893 125.747019 
L 749.484084 132.561099 
L 762.919208 138.476619 
" clip-path="url(#p0dd09d03ad)" style="fill: none; stroke: #000000; stroke-width: 4; stroke-linecap: square"/>
   </g>
   <g id="line2d_65">
    <path d="M 469.303365 57.082059 
L 557.690541 98.490699 
L 609.393724 121.778379 
L 646.077717 140.123979 
L 674.532032 154.950219 
L 697.7809 168.278859 
L 717.437538 180.184779 
L 734.464893 191.641419 
L 749.484084 201.974859 
L 762.919208 211.110219 
" clip-path="url(#p0dd09d03ad)" style="fill: none; stroke-dasharray: 4,6.6; stroke-dashoffset: 0; stroke: #000000; stroke-width: 4"/>
   </g>
   <g id="patch_13">
    <path d="M 454.622573 347.76 
L 454.622573 10.8 
" style="fill: none; stroke: #000000; stroke-width: 0.8; stroke-linejoin: miter; stroke-linecap: square"/>
   </g>
   <g id="patch_14">
    <path d="M 777.6 347.76 
L 777.6 10.8 
" style="fill: none; stroke: #000000; stroke-width: 0.8; stroke-linejoin: miter; stroke-linecap: square"/>
   </g>
   <g id="patch_15">
    <path d="M 454.622573 347.76 
L 777.6 347.76 
" style="fill: none; stroke: #000000; stroke-width: 0.8; stroke-linejoin: miter; stroke-linecap: square"/>
   </g>
   <g id="patch_16">
    <path d="M 454.622573 10.8 
L 777.6 10.8 
" style="fill: none; stroke: #000000; stroke-width: 0.8; stroke-linejoin: miter; stroke-linecap: square"/>
   </g>
   <g id="legend_1">
    <g id="patch_17">
     <path d="M 603.835937 48.15625 
L 770.6 48.15625 
Q 772.6 48.15625 772.6 46.15625 
L 772.6 17.8 
Q 772.6 15.8 770.6 15.8 
L 603.835937 15.8 
Q 601.835937 15.8 601.835937 17.8 
L 601.835937 46.15625 
Q 601.835937 48.15625 603.835937 48.15625 
z
" style="fill: #ffffff; opacity: 0.8; stroke: #cccccc; stroke-linejoin: miter"/>
    </g>
    <g id="line2d_66">
     <path d="M 605.835937 23.898438 
L 615.835937 23.898438 
L 625.835937 23.898438 
" style="fill: none; stroke: #000000; stroke-width: 4; stroke-linecap: square"/>
    </g>
    <g id="text_45">
     <!-- forward + lateral inhibition -->
     <g transform="translate(633.835937 27.398438) scale(0.1 -0.1)">
      <defs>
       <path id="DejaVuSans-66" d="M 2375 4863 
L 2375 4384 
L 1825 4384 
Q 1516 4384 1395 4259 
Q 1275 4134 1275 3809 
L 1275 3500 
L 2222 3500 
L 2222 3053 
L 1275 3053 
L 1275 0 
L 697 0 
L 697 3053 
L 147 3053 
L 147 3500 
L 697 3500 
L 697 3744 
Q 697 4328 969 4595 
Q 1241 4863 1831 4863 
L 2375 4863 
z
" transform="scale(0.015625)"/>
       <path id="DejaVuSans-72" d="M 2631 2963 
Q 2534 3019 2420 3045 
Q 2306 3072 2169 3072 
Q 1681 3072 1420 2755 
Q 1159 2438 1159 1844 
L 1159 0 
L 581 0 
L 581 3500 
L 1159 3500 
L 1159 2956 
Q 1341 3275 1631 3429 
Q 1922 3584 2338 3584 
Q 2397 3584 2469 3576 
Q 2541 3569 2628 3553 
L 2631 2963 
z
" transform="scale(0.015625)"/>
       <path id="DejaVuSans-77" d="M 269 3500 
L 844 3500 
L 1563 769 
L 2278 3500 
L 2956 3500 
L 3675 769 
L 4391 3500 
L 4966 3500 
L 4050 0 
L 3372 0 
L 2619 2869 
L 1863 0 
L 1184 0 
L 269 3500 
z
" transform="scale(0.015625)"/>
       <path id="DejaVuSans-64" d="M 2906 2969 
L 2906 4863 
L 3481 4863 
L 3481 0 
L 2906 0 
L 2906 525 
Q 2725 213 2448 61 
Q 2172 -91 1784 -91 
Q 1150 -91 751 415 
Q 353 922 353 1747 
Q 353 2572 751 3078 
Q 1150 3584 1784 3584 
Q 2172 3584 2448 3432 
Q 2725 3281 2906 2969 
z
M 947 1747 
Q 947 1113 1208 752 
Q 1469 391 1925 391 
Q 2381 391 2643 752 
Q 2906 1113 2906 1747 
Q 2906 2381 2643 2742 
Q 2381 3103 1925 3103 
Q 1469 3103 1208 2742 
Q 947 2381 947 1747 
z
" transform="scale(0.015625)"/>
       <path id="DejaVuSans-2b" d="M 2944 4013 
L 2944 2272 
L 4684 2272 
L 4684 1741 
L 2944 1741 
L 2944 0 
L 2419 0 
L 2419 1741 
L 678 1741 
L 678 2272 
L 2419 2272 
L 2419 4013 
L 2944 4013 
z
" transform="scale(0.015625)"/>
       <path id="DejaVuSans-6c" d="M 603 4863 
L 1178 4863 
L 1178 0 
L 603 0 
L 603 4863 
z
" transform="scale(0.015625)"/>
       <path id="DejaVuSans-68" d="M 3513 2113 
L 3513 0 
L 2938 0 
L 2938 2094 
Q 2938 2591 2744 2837 
Q 2550 3084 2163 3084 
Q 1697 3084 1428 2787 
Q 1159 2491 1159 1978 
L 1159 0 
L 581 0 
L 581 4863 
L 1159 4863 
L 1159 2956 
Q 1366 3272 1645 3428 
Q 1925 3584 2291 3584 
Q 2894 3584 3203 3211 
Q 3513 2838 3513 2113 
z
" transform="scale(0.015625)"/>
       <path id="DejaVuSans-62" d="M 3116 1747 
Q 3116 2381 2855 2742 
Q 2594 3103 2138 3103 
Q 1681 3103 1420 2742 
Q 1159 2381 1159 1747 
Q 1159 1113 1420 752 
Q 1681 391 2138 391 
Q 2594 391 2855 752 
Q 3116 1113 3116 1747 
z
M 1159 2969 
Q 1341 3281 1617 3432 
Q 1894 3584 2278 3584 
Q 2916 3584 3314 3078 
Q 3713 2572 3713 1747 
Q 3713 922 3314 415 
Q 2916 -91 2278 -91 
Q 1894 -91 1617 61 
Q 1341 213 1159 525 
L 1159 0 
L 581 0 
L 581 4863 
L 1159 4863 
L 1159 2969 
z
" transform="scale(0.015625)"/>
      </defs>
      <use xlink:href="#DejaVuSans-66"/>
      <use xlink:href="#DejaVuSans-6f" x="35.205078"/>
      <use xlink:href="#DejaVuSans-72" x="96.386719"/>
      <use xlink:href="#DejaVuSans-77" x="137.5"/>
      <use xlink:href="#DejaVuSans-61" x="219.287109"/>
      <use xlink:href="#DejaVuSans-72" x="280.566406"/>
      <use xlink:href="#DejaVuSans-64" x="319.929688"/>
      <use xlink:href="#DejaVuSans-20" x="383.40625"/>
      <use xlink:href="#DejaVuSans-2b" x="415.193359"/>
      <use xlink:href="#DejaVuSans-20" x="498.982422"/>
      <use xlink:href="#DejaVuSans-6c" x="530.769531"/>
      <use xlink:href="#DejaVuSans-61" x="558.552734"/>
      <use xlink:href="#DejaVuSans-74" x="619.832031"/>
      <use xlink:href="#DejaVuSans-65" x="659.041016"/>
      <use xlink:href="#DejaVuSans-72" x="720.564453"/>
      <use xlink:href="#DejaVuSans-61" x="761.677734"/>
      <use xlink:href="#DejaVuSans-6c" x="822.957031"/>
      <use xlink:href="#DejaVuSans-20" x="850.740234"/>
      <use xlink:href="#DejaVuSans-69" x="882.527344"/>
      <use xlink:href="#DejaVuSans-6e" x="910.310547"/>
      <use xlink:href="#DejaVuSans-68" x="973.689453"/>
      <use xlink:href="#DejaVuSans-69" x="1037.068359"/>
      <use xlink:href="#DejaVuSans-62" x="1064.851562"/>
      <use xlink:href="#DejaVuSans-69" x="1128.328125"/>
      <use xlink:href="#DejaVuSans-74" x="1156.111328"/>
      <use xlink:href="#DejaVuSans-69" x="1195.320312"/>
      <use xlink:href="#DejaVuSans-6f" x="1223.103516"/>
      <use xlink:href="#DejaVuSans-6e" x="1284.285156"/>
     </g>
    </g>
    <g id="line2d_67">
     <path d="M 605.835937 38.576563 
L 615.835937 38.576563 
L 625.835937 38.576563 
" style="fill: none; stroke-dasharray: 4,6.6; stroke-dashoffset: 0; stroke: #000000; stroke-width: 4"/>
    </g>
    <g id="text_46">
     <!-- forward only -->
     <g transform="translate(633.835937 42.076563) scale(0.1 -0.1)">
      <defs>
       <path id="DejaVuSans-79" d="M 2059 -325 
Q 1816 -950 1584 -1140 
Q 1353 -1331 966 -1331 
L 506 -1331 
L 506 -850 
L 844 -850 
Q 1081 -850 1212 -737 
Q 1344 -625 1503 -206 
L 1606 56 
L 191 3500 
L 800 3500 
L 1894 763 
L 2988 3500 
L 3597 3500 
L 2059 -325 
z
" transform="scale(0.015625)"/>
      </defs>
      <use xlink:href="#DejaVuSans-66"/>
      <use xlink:href="#DejaVuSans-6f" x="35.205078"/>
      <use xlink:href="#DejaVuSans-72" x="96.386719"/>
      <use xlink:href="#DejaVuSans-77" x="137.5"/>
      <use xlink:href="#DejaVuSans-61" x="219.287109"/>
      <use xlink:href="#DejaVuSans-72" x="280.566406"/>
      <use xlink:href="#DejaVuSans-64" x="319.929688"/>
      <use xlink:href="#DejaVuSans-20" x="383.40625"/>
      <use xlink:href="#DejaVuSans-6f" x="415.193359"/>
      <use xlink:href="#DejaVuSans-6e" x="476.375"/>
      <use xlink:href="#DejaVuSans-6c" x="539.753906"/>
      <use xlink:href="#DejaVuSans-79" x="567.537109"/>
     </g>
    </g>
   </g>
   <g id="PathCollection_1">
    <defs>
     <path id="m5ef43d0d21" d="M 0 3.872983 
C 1.027127 3.872983 2.012324 3.464901 2.738613 2.738613 
C 3.464901 2.012324 3.872983 1.027127 3.872983 0 
C 3.872983 -1.027127 3.464901 -2.012324 2.738613 -2.738613 
C 2.012324 -3.464901 1.027127 -3.872983 0 -3.872983 
C -1.027127 -3.872983 -2.012324 -3.464901 -2.738613 -2.738613 
C -3.464901 -2.012324 -3.872983 -1.027127 -3.872983 0 
C -3.872983 1.027127 -3.464901 2.012324 -2.738613 2.738613 
C -2.012324 3.464901 -1.027127 3.872983 0 3.872983 
z
" style="stroke: #1f77b4"/>
    </defs>
    <g clip-path="url(#p0dd09d03ad)">
     <use xlink:href="#m5ef43d0d21" x="469.303365" y="41.806539" style="fill: #1f77b4; stroke: #1f77b4"/>
    </g>
   </g>
   <g id="PathCollection_2">
    <g clip-path="url(#p0dd09d03ad)">
     <use xlink:href="#m5ef43d0d21" x="469.303365" y="57.082059" style="fill: #1f77b4; stroke: #1f77b4"/>
    </g>
   </g>
   <g id="PathCollection_3">
    <defs>
     <path id="mae6be59b33" d="M 0 3.872983 
C 1.027127 3.872983 2.012324 3.464901 2.738613 2.738613 
C 3.464901 2.012324 3.872983 1.027127 3.872983 0 
C 3.872983 -1.027127 3.464901 -2.012324 2.738613 -2.738613 
C 2.012324 -3.464901 1.027127 -3.872983 0 -3.872983 
C -1.027127 -3.872983 -2.012324 -3.464901 -2.738613 -2.738613 
C -3.464901 -2.012324 -3.872983 -1.027127 -3.872983 0 
C -3.872983 1.027127 -3.464901 2.012324 -2.738613 2.738613 
C -2.012324 3.464901 -1.027127 3.872983 0 3.872983 
z
" style="stroke: #ff7f0e"/>
    </defs>
    <g clip-path="url(#p0dd09d03ad)">
     <use xlink:href="#mae6be59b33" x="557.690541" y="72.282699" style="fill: #ff7f0e; stroke: #ff7f0e"/>
    </g>
   </g>
   <g id="PathCollection_4">
    <g clip-path="url(#p0dd09d03ad)">
     <use xlink:href="#mae6be59b33" x="557.690541" y="98.490699" style="fill: #ff7f0e; stroke: #ff7f0e"/>
    </g>
   </g>
   <g id="PathCollection_5">
    <defs>
     <path id="m9f36d7e540" d="M 0 3.872983 
C 1.027127 3.872983 2.012324 3.464901 2.738613 2.738613 
C 3.464901 2.012324 3.872983 1.027127 3.872983 0 
C 3.872983 -1.027127 3.464901 -2.012324 2.738613 -2.738613 
C 2.012324 -3.464901 1.027127 -3.872983 0 -3.872983 
C -1.027127 -3.872983 -2.012324 -3.464901 -2.738613 -2.738613 
C -3.464901 -2.012324 -3.872983 -1.027127 -3.872983 0 
C -3.872983 1.027127 -3.464901 2.012324 -2.738613 2.738613 
C -2.012324 3.464901 -1.027127 3.872983 0 3.872983 
z
" style="stroke: #2ca02c"/>
    </defs>
    <g clip-path="url(#p0dd09d03ad)">
     <use xlink:href="#m9f36d7e540" x="609.393724" y="87.633099" style="fill: #2ca02c; stroke: #2ca02c"/>
    </g>
   </g>
   <g id="PathCollection_6">
    <g clip-path="url(#p0dd09d03ad)">
     <use xlink:href="#m9f36d7e540" x="609.393724" y="121.778379" style="fill: #2ca02c; stroke: #2ca02c"/>
    </g>
   </g>
   <g id="PathCollection_7">
    <defs>
     <path id="m6c3ed4bb45" d="M 0 3.872983 
C 1.027127 3.872983 2.012324 3.464901 2.738613 2.738613 
C 3.464901 2.012324 3.872983 1.027127 3.872983 0 
C 3.872983 -1.027127 3.464901 -2.012324 2.738613 -2.738613 
C 2.012324 -3.464901 1.027127 -3.872983 0 -3.872983 
C -1.027127 -3.872983 -2.012324 -3.464901 -2.738613 -2.738613 
C -3.464901 -2.012324 -3.872983 -1.027127 -3.872983 0 
C -3.872983 1.027127 -3.464901 2.012324 -2.738613 2.738613 
C -2.012324 3.464901 -1.027127 3.872983 0 3.872983 
z
" style="stroke: #d62728"/>
    </defs>
    <g clip-path="url(#p0dd09d03ad)">
     <use xlink:href="#m6c3ed4bb45" x="646.077717" y="95.495499" style="fill: #d62728; stroke: #d62728"/>
    </g>
   </g>
   <g id="PathCollection_8">
    <g clip-path="url(#p0dd09d03ad)">
     <use xlink:href="#m6c3ed4bb45" x="646.077717" y="140.123979" style="fill: #d62728; stroke: #d62728"/>
    </g>
   </g>
   <g id="PathCollection_9">
    <defs>
     <path id="md4c5d50499" d="M 0 3.872983 
C 1.027127 3.872983 2.012324 3.464901 2.738613 2.738613 
C 3.464901 2.012324 3.872983 1.027127 3.872983 0 
C 3.872983 -1.027127 3.464901 -2.012324 2.738613 -2.738613 
C 2.012324 -3.464901 1.027127 -3.872983 0 -3.872983 
C -1.027127 -3.872983 -2.012324 -3.464901 -2.738613 -2.738613 
C -3.464901 -2.012324 -3.872983 -1.027127 -3.872983 0 
C -3.872983 1.027127 -3.464901 2.012324 -2.738613 2.738613 
C -2.012324 3.464901 -1.027127 3.872983 0 3.872983 
z
" style="stroke: #9467bd"/>
    </defs>
    <g clip-path="url(#p0dd09d03ad)">
     <use xlink:href="#md4c5d50499" x="674.532032" y="103.657419" style="fill: #9467bd; stroke: #9467bd"/>
    </g>
   </g>
   <g id="PathCollection_10">
    <g clip-path="url(#p0dd09d03ad)">
     <use xlink:href="#md4c5d50499" x="674.532032" y="154.950219" style="fill: #9467bd; stroke: #9467bd"/>
    </g>
   </g>
   <g id="PathCollection_11">
    <defs>
     <path id="m6e8978ae25" d="M 0 3.872983 
C 1.027127 3.872983 2.012324 3.464901 2.738613 2.738613 
C 3.464901 2.012324 3.872983 1.027127 3.872983 0 
C 3.872983 -1.027127 3.464901 -2.012324 2.738613 -2.738613 
C 2.012324 -3.464901 1.027127 -3.872983 0 -3.872983 
C -1.027127 -3.872983 -2.012324 -3.464901 -2.738613 -2.738613 
C -3.464901 -2.012324 -3.872983 -1.027127 -3.872983 0 
C -3.872983 1.027127 -3.464901 2.012324 -2.738613 2.738613 
C -2.012324 3.464901 -1.027127 3.872983 0 3.872983 
z
" style="stroke: #8c564b"/>
    </defs>
    <g clip-path="url(#p0dd09d03ad)">
     <use xlink:href="#m6e8978ae25" x="697.7809" y="113.017419" style="fill: #8c564b; stroke: #8c564b"/>
    </g>
   </g>
   <g id="PathCollection_12">
    <g clip-path="url(#p0dd09d03ad)">
     <use xlink:href="#m6e8978ae25" x="697.7809" y="168.278859" style="fill: #8c564b; stroke: #8c564b"/>
    </g>
   </g>
   <g id="PathCollection_13">
    <defs>
     <path id="m6a5d01facb" d="M 0 3.872983 
C 1.027127 3.872983 2.012324 3.464901 2.738613 2.738613 
C 3.464901 2.012324 3.872983 1.027127 3.872983 0 
C 3.872983 -1.027127 3.464901 -2.012324 2.738613 -2.738613 
C 2.012324 -3.464901 1.027127 -3.872983 0 -3.872983 
C -1.027127 -3.872983 -2.012324 -3.464901 -2.738613 -2.738613 
C -3.464901 -2.012324 -3.872983 -1.027127 -3.872983 0 
C -3.872983 1.027127 -3.464901 2.012324 -2.738613 2.738613 
C -2.012324 3.464901 -1.027127 3.872983 0 3.872983 
z
" style="stroke: #e377c2"/>
    </defs>
    <g clip-path="url(#p0dd09d03ad)">
     <use xlink:href="#m6a5d01facb" x="717.437538" y="118.858059" style="fill: #e377c2; stroke: #e377c2"/>
    </g>
   </g>
   <g id="PathCollection_14">
    <g clip-path="url(#p0dd09d03ad)">
     <use xlink:href="#m6a5d01facb" x="717.437538" y="180.184779" style="fill: #e377c2; stroke: #e377c2"/>
    </g>
   </g>
   <g id="PathCollection_15">
    <defs>
     <path id="mbc3df25e3c" d="M 0 3.872983 
C 1.027127 3.872983 2.012324 3.464901 2.738613 2.738613 
C 3.464901 2.012324 3.872983 1.027127 3.872983 0 
C 3.872983 -1.027127 3.464901 -2.012324 2.738613 -2.738613 
C 2.012324 -3.464901 1.027127 -3.872983 0 -3.872983 
C -1.027127 -3.872983 -2.012324 -3.464901 -2.738613 -2.738613 
C -3.464901 -2.012324 -3.872983 -1.027127 -3.872983 0 
C -3.872983 1.027127 -3.464901 2.012324 -2.738613 2.738613 
C -2.012324 3.464901 -1.027127 3.872983 0 3.872983 
z
" style="stroke: #7f7f7f"/>
    </defs>
    <g clip-path="url(#p0dd09d03ad)">
     <use xlink:href="#mbc3df25e3c" x="734.464893" y="125.747019" style="fill: #7f7f7f; stroke: #7f7f7f"/>
    </g>
   </g>
   <g id="PathCollection_16">
    <g clip-path="url(#p0dd09d03ad)">
     <use xlink:href="#mbc3df25e3c" x="734.464893" y="191.641419" style="fill: #7f7f7f; stroke: #7f7f7f"/>
    </g>
   </g>
   <g id="PathCollection_17">
    <defs>
     <path id="meecb6150d3" d="M 0 3.872983 
C 1.027127 3.872983 2.012324 3.464901 2.738613 2.738613 
C 3.464901 2.012324 3.872983 1.027127 3.872983 0 
C 3.872983 -1.027127 3.464901 -2.012324 2.738613 -2.738613 
C 2.012324 -3.464901 1.027127 -3.872983 0 -3.872983 
C -1.027127 -3.872983 -2.012324 -3.464901 -2.738613 -2.738613 
C -3.464901 -2.012324 -3.872983 -1.027127 -3.872983 0 
C -3.872983 1.027127 -3.464901 2.012324 -2.738613 2.738613 
C -2.012324 3.464901 -1.027127 3.872983 0 3.872983 
z
" style="stroke: #bcbd22"/>
    </defs>
    <g clip-path="url(#p0dd09d03ad)">
     <use xlink:href="#meecb6150d3" x="749.484084" y="132.561099" style="fill: #bcbd22; stroke: #bcbd22"/>
    </g>
   </g>
   <g id="PathCollection_18">
    <g clip-path="url(#p0dd09d03ad)">
     <use xlink:href="#meecb6150d3" x="749.484084" y="201.974859" style="fill: #bcbd22; stroke: #bcbd22"/>
    </g>
   </g>
   <g id="PathCollection_19">
    <defs>
     <path id="mfca7e37560" d="M 0 3.872983 
C 1.027127 3.872983 2.012324 3.464901 2.738613 2.738613 
C 3.464901 2.012324 3.872983 1.027127 3.872983 0 
C 3.872983 -1.027127 3.464901 -2.012324 2.738613 -2.738613 
C 2.012324 -3.464901 1.027127 -3.872983 0 -3.872983 
C -1.027127 -3.872983 -2.012324 -3.464901 -2.738613 -2.738613 
C -3.464901 -2.012324 -3.872983 -1.027127 -3.872983 0 
C -3.872983 1.027127 -3.464901 2.012324 -2.738613 2.738613 
C -2.012324 3.464901 -1.027127 3.872983 0 3.872983 
z
" style="stroke: #17becf"/>
    </defs>
    <g clip-path="url(#p0dd09d03ad)">
     <use xlink:href="#mfca7e37560" x="762.919208" y="138.476619" style="fill: #17becf; stroke: #17becf"/>
    </g>
   </g>
   <g id="PathCollection_20">
    <g clip-path="url(#p0dd09d03ad)">
     <use xlink:href="#mfca7e37560" x="762.919208" y="211.110219" style="fill: #17becf; stroke: #17becf"/>
    </g>
   </g>
  </g>
  <g id="legend_2">
   <g id="patch_18">
    <path d="M 788.442188 154.78125 
L 857 154.78125 
Q 859 154.78125 859 152.78125 
L 859 7 
Q 859 5 857 5 
L 788.442188 5 
Q 786.442188 5 786.442188 7 
L 786.442188 152.78125 
Q 786.442188 154.78125 788.442188 154.78125 
z
" style="fill: #ffffff; opacity: 0.8; stroke: #cccccc; stroke-linejoin: miter"/>
   </g>
   <g id="line2d_68">
    <path d="M 790.442188 13.098438 
L 800.442188 13.098438 
L 810.442188 13.098438 
" style="fill: none; stroke: #1f77b4; stroke-width: 4; stroke-linecap: square"/>
   </g>
   <g id="text_47">
    <!-- v = 0.1 -->
    <g transform="translate(818.442188 16.598438) scale(0.1 -0.1)">
     <defs>
      <path id="DejaVuSans-3d" d="M 678 2906 
L 4684 2906 
L 4684 2381 
L 678 2381 
L 678 2906 
z
M 678 1631 
L 4684 1631 
L 4684 1100 
L 678 1100 
L 678 1631 
z
" transform="scale(0.015625)"/>
     </defs>
     <use xlink:href="#DejaVuSans-76"/>
     <use xlink:href="#DejaVuSans-20" x="59.179688"/>
     <use xlink:href="#DejaVuSans-3d" x="90.966797"/>
     <use xlink:href="#DejaVuSans-20" x="174.755859"/>
     <use xlink:href="#DejaVuSans-30" x="206.542969"/>
     <use xlink:href="#DejaVuSans-2e" x="270.166016"/>
     <use xlink:href="#DejaVuSans-31" x="301.953125"/>
    </g>
   </g>
   <g id="line2d_69">
    <path d="M 790.442188 27.776563 
L 800.442188 27.776563 
L 810.442188 27.776563 
" style="fill: none; stroke: #ff7f0e; stroke-width: 4; stroke-linecap: square"/>
   </g>
   <g id="text_48">
    <!-- v = 0.2 -->
    <g transform="translate(818.442188 31.276563) scale(0.1 -0.1)">
     <use xlink:href="#DejaVuSans-76"/>
     <use xlink:href="#DejaVuSans-20" x="59.179688"/>
     <use xlink:href="#DejaVuSans-3d" x="90.966797"/>
     <use xlink:href="#DejaVuSans-20" x="174.755859"/>
     <use xlink:href="#DejaVuSans-30" x="206.542969"/>
     <use xlink:href="#DejaVuSans-2e" x="270.166016"/>
     <use xlink:href="#DejaVuSans-32" x="301.953125"/>
    </g>
   </g>
   <g id="line2d_70">
    <path d="M 790.442188 42.454688 
L 800.442188 42.454688 
L 810.442188 42.454688 
" style="fill: none; stroke: #2ca02c; stroke-width: 4; stroke-linecap: square"/>
   </g>
   <g id="text_49">
    <!-- v = 0.3 -->
    <g transform="translate(818.442188 45.954688) scale(0.1 -0.1)">
     <use xlink:href="#DejaVuSans-76"/>
     <use xlink:href="#DejaVuSans-20" x="59.179688"/>
     <use xlink:href="#DejaVuSans-3d" x="90.966797"/>
     <use xlink:href="#DejaVuSans-20" x="174.755859"/>
     <use xlink:href="#DejaVuSans-30" x="206.542969"/>
     <use xlink:href="#DejaVuSans-2e" x="270.166016"/>
     <use xlink:href="#DejaVuSans-33" x="301.953125"/>
    </g>
   </g>
   <g id="line2d_71">
    <path d="M 790.442188 57.132813 
L 800.442188 57.132813 
L 810.442188 57.132813 
" style="fill: none; stroke: #d62728; stroke-width: 4; stroke-linecap: square"/>
   </g>
   <g id="text_50">
    <!-- v = 0.4 -->
    <g transform="translate(818.442188 60.632813) scale(0.1 -0.1)">
     <use xlink:href="#DejaVuSans-76"/>
     <use xlink:href="#DejaVuSans-20" x="59.179688"/>
     <use xlink:href="#DejaVuSans-3d" x="90.966797"/>
     <use xlink:href="#DejaVuSans-20" x="174.755859"/>
     <use xlink:href="#DejaVuSans-30" x="206.542969"/>
     <use xlink:href="#DejaVuSans-2e" x="270.166016"/>
     <use xlink:href="#DejaVuSans-34" x="301.953125"/>
    </g>
   </g>
   <g id="line2d_72">
    <path d="M 790.442188 71.810938 
L 800.442188 71.810938 
L 810.442188 71.810938 
" style="fill: none; stroke: #9467bd; stroke-width: 4; stroke-linecap: square"/>
   </g>
   <g id="text_51">
    <!-- v = 0.5 -->
    <g transform="translate(818.442188 75.310938) scale(0.1 -0.1)">
     <use xlink:href="#DejaVuSans-76"/>
     <use xlink:href="#DejaVuSans-20" x="59.179688"/>
     <use xlink:href="#DejaVuSans-3d" x="90.966797"/>
     <use xlink:href="#DejaVuSans-20" x="174.755859"/>
     <use xlink:href="#DejaVuSans-30" x="206.542969"/>
     <use xlink:href="#DejaVuSans-2e" x="270.166016"/>
     <use xlink:href="#DejaVuSans-35" x="301.953125"/>
    </g>
   </g>
   <g id="line2d_73">
    <path d="M 790.442188 86.489063 
L 800.442188 86.489063 
L 810.442188 86.489063 
" style="fill: none; stroke: #8c564b; stroke-width: 4; stroke-linecap: square"/>
   </g>
   <g id="text_52">
    <!-- v = 0.6 -->
    <g transform="translate(818.442188 89.989063) scale(0.1 -0.1)">
     <use xlink:href="#DejaVuSans-76"/>
     <use xlink:href="#DejaVuSans-20" x="59.179688"/>
     <use xlink:href="#DejaVuSans-3d" x="90.966797"/>
     <use xlink:href="#DejaVuSans-20" x="174.755859"/>
     <use xlink:href="#DejaVuSans-30" x="206.542969"/>
     <use xlink:href="#DejaVuSans-2e" x="270.166016"/>
     <use xlink:href="#DejaVuSans-36" x="301.953125"/>
    </g>
   </g>
   <g id="line2d_74">
    <path d="M 790.442188 101.167188 
L 800.442188 101.167188 
L 810.442188 101.167188 
" style="fill: none; stroke: #e377c2; stroke-width: 4; stroke-linecap: square"/>
   </g>
   <g id="text_53">
    <!-- v = 0.7 -->
    <g transform="translate(818.442188 104.667188) scale(0.1 -0.1)">
     <defs>
      <path id="DejaVuSans-37" d="M 525 4666 
L 3525 4666 
L 3525 4397 
L 1831 0 
L 1172 0 
L 2766 4134 
L 525 4134 
L 525 4666 
z
" transform="scale(0.015625)"/>
     </defs>
     <use xlink:href="#DejaVuSans-76"/>
     <use xlink:href="#DejaVuSans-20" x="59.179688"/>
     <use xlink:href="#DejaVuSans-3d" x="90.966797"/>
     <use xlink:href="#DejaVuSans-20" x="174.755859"/>
     <use xlink:href="#DejaVuSans-30" x="206.542969"/>
     <use xlink:href="#DejaVuSans-2e" x="270.166016"/>
     <use xlink:href="#DejaVuSans-37" x="301.953125"/>
    </g>
   </g>
   <g id="line2d_75">
    <path d="M 790.442188 115.845313 
L 800.442188 115.845313 
L 810.442188 115.845313 
" style="fill: none; stroke: #7f7f7f; stroke-width: 4; stroke-linecap: square"/>
   </g>
   <g id="text_54">
    <!-- v = 0.8 -->
    <g transform="translate(818.442188 119.345313) scale(0.1 -0.1)">
     <use xlink:href="#DejaVuSans-76"/>
     <use xlink:href="#DejaVuSans-20" x="59.179688"/>
     <use xlink:href="#DejaVuSans-3d" x="90.966797"/>
     <use xlink:href="#DejaVuSans-20" x="174.755859"/>
     <use xlink:href="#DejaVuSans-30" x="206.542969"/>
     <use xlink:href="#DejaVuSans-2e" x="270.166016"/>
     <use xlink:href="#DejaVuSans-38" x="301.953125"/>
    </g>
   </g>
   <g id="line2d_76">
    <path d="M 790.442188 130.523438 
L 800.442188 130.523438 
L 810.442188 130.523438 
" style="fill: none; stroke: #bcbd22; stroke-width: 4; stroke-linecap: square"/>
   </g>
   <g id="text_55">
    <!-- v = 0.9 -->
    <g transform="translate(818.442188 134.023438) scale(0.1 -0.1)">
     <defs>
      <path id="DejaVuSans-39" d="M 703 97 
L 703 672 
Q 941 559 1184 500 
Q 1428 441 1663 441 
Q 2288 441 2617 861 
Q 2947 1281 2994 2138 
Q 2813 1869 2534 1725 
Q 2256 1581 1919 1581 
Q 1219 1581 811 2004 
Q 403 2428 403 3163 
Q 403 3881 828 4315 
Q 1253 4750 1959 4750 
Q 2769 4750 3195 4129 
Q 3622 3509 3622 2328 
Q 3622 1225 3098 567 
Q 2575 -91 1691 -91 
Q 1453 -91 1209 -44 
Q 966 3 703 97 
z
M 1959 2075 
Q 2384 2075 2632 2365 
Q 2881 2656 2881 3163 
Q 2881 3666 2632 3958 
Q 2384 4250 1959 4250 
Q 1534 4250 1286 3958 
Q 1038 3666 1038 3163 
Q 1038 2656 1286 2365 
Q 1534 2075 1959 2075 
z
" transform="scale(0.015625)"/>
     </defs>
     <use xlink:href="#DejaVuSans-76"/>
     <use xlink:href="#DejaVuSans-20" x="59.179688"/>
     <use xlink:href="#DejaVuSans-3d" x="90.966797"/>
     <use xlink:href="#DejaVuSans-20" x="174.755859"/>
     <use xlink:href="#DejaVuSans-30" x="206.542969"/>
     <use xlink:href="#DejaVuSans-2e" x="270.166016"/>
     <use xlink:href="#DejaVuSans-39" x="301.953125"/>
    </g>
   </g>
   <g id="line2d_77">
    <path d="M 790.442188 145.201563 
L 800.442188 145.201563 
L 810.442188 145.201563 
" style="fill: none; stroke: #17becf; stroke-width: 4; stroke-linecap: square"/>
   </g>
   <g id="text_56">
    <!-- v = 1.0 -->
    <g transform="translate(818.442188 148.701563) scale(0.1 -0.1)">
     <use xlink:href="#DejaVuSans-76"/>
     <use xlink:href="#DejaVuSans-20" x="59.179688"/>
     <use xlink:href="#DejaVuSans-3d" x="90.966797"/>
     <use xlink:href="#DejaVuSans-20" x="174.755859"/>
     <use xlink:href="#DejaVuSans-31" x="206.542969"/>
     <use xlink:href="#DejaVuSans-2e" x="270.166016"/>
     <use xlink:href="#DejaVuSans-30" x="301.953125"/>
    </g>
   </g>
  </g>
 </g>
 <defs>
  <clipPath id="pe9127f6ced">
   <rect x="56.16" y="10.8" width="322.977427" height="153.163636"/>
  </clipPath>
  <clipPath id="pf00b1140e9">
   <rect x="56.16" y="194.596364" width="322.977427" height="153.163636"/>
  </clipPath>
  <clipPath id="p0dd09d03ad">
   <rect x="454.622573" y="10.8" width="322.977427" height="336.96"/>
  </clipPath>
 </defs>
</svg>
