<?xml version="1.0" encoding="utf-8" standalone="no"?>
<!DOCTYPE svg PUBLIC "-//W3C//DTD SVG 1.1//EN"
  "http://www.w3.org/Graphics/SVG/1.1/DTD/svg11.dtd">
<svg xmlns:xlink="http://www.w3.org/1999/xlink" width="864pt" height="432pt" viewBox="0 0 864 432" xmlns="http://www.w3.org/2000/svg" version="1.1">
 <metadata>
  <rdf:RDF xmlns:dc="http://purl.org/dc/elements/1.1/" xmlns:cc="http://creativecommons.org/ns#" xmlns:rdf="http://www.w3.org/1999/02/22-rdf-syntax-ns#">
   <cc:Work>
    <dc:type rdf:resource="http://purl.org/dc/dcmitype/StillImage"/>
    <dc:date>2024-06-12T18:20:03.639868</dc:date>
    <dc:format>image/svg+xml</dc:format>
    <dc:creator>
     <cc:Agent>
      <dc:title>Matplotlib v3.8.4, https://matplotlib.org/</dc:title>
     </cc:Agent>
    </dc:creator>
   </cc:Work>
  </rdf:RDF>
 </metadata>
 <defs>
  <style type="text/css">*{stroke-linejoin: round; stroke-linecap: butt}</style>
 </defs>
 <g id="figure_1">
  <g id="patch_1">
   <path d="M 0 432 
L 864 432 
L 864 0 
L 0 0 
z
" style="fill: #ffffff"/>
  </g>
  <g id="axes_1">
   <g id="patch_2">
    <path d="M 56.16 163.963636 
L 379.137427 163.963636 
L 379.137427 10.8 
L 56.16 10.8 
z
" style="fill: #ffffff"/>
   </g>
   <g id="matplotlib.axis_1">
    <g id="xtick_1">
     <g id="line2d_1">
      <defs>
       <path id="mde4198b776" d="M 0 0 
L 0 3.5 
" style="stroke: #000000; stroke-width: 0.8"/>
      </defs>
      <g>
       <use xlink:href="#mde4198b776" x="56.16" y="163.963636" style="stroke: #000000; stroke-width: 0.8"/>
      </g>
     </g>
     <g id="text_1">
      <!-- −0.4 -->
      <g transform="translate(44.018594 178.562074) scale(0.1 -0.1)">
       <defs>
        <path id="DejaVuSans-2212" d="M 678 2272 
L 4684 2272 
L 4684 1741 
L 678 1741 
L 678 2272 
z
" transform="scale(0.015625)"/>
        <path id="DejaVuSans-30" d="M 2034 4250 
Q 1547 4250 1301 3770 
Q 1056 3291 1056 2328 
Q 1056 1369 1301 889 
Q 1547 409 2034 409 
Q 2525 409 2770 889 
Q 3016 1369 3016 2328 
Q 3016 3291 2770 3770 
Q 2525 4250 2034 4250 
z
M 2034 4750 
Q 2819 4750 3233 4129 
Q 3647 3509 3647 2328 
Q 3647 1150 3233 529 
Q 2819 -91 2034 -91 
Q 1250 -91 836 529 
Q 422 1150 422 2328 
Q 422 3509 836 4129 
Q 1250 4750 2034 4750 
z
" transform="scale(0.015625)"/>
        <path id="DejaVuSans-2e" d="M 684 794 
L 1344 794 
L 1344 0 
L 684 0 
L 684 794 
z
" transform="scale(0.015625)"/>
        <path id="DejaVuSans-34" d="M 2419 4116 
L 825 1625 
L 2419 1625 
L 2419 4116 
z
M 2253 4666 
L 3047 4666 
L 3047 1625 
L 3713 1625 
L 3713 1100 
L 3047 1100 
L 3047 0 
L 2419 0 
L 2419 1100 
L 313 1100 
L 313 1709 
L 2253 4666 
z
" transform="scale(0.015625)"/>
       </defs>
       <use xlink:href="#DejaVuSans-2212"/>
       <use xlink:href="#DejaVuSans-30" x="83.789062"/>
       <use xlink:href="#DejaVuSans-2e" x="147.412109"/>
       <use xlink:href="#DejaVuSans-34" x="179.199219"/>
      </g>
     </g>
    </g>
    <g id="xtick_2">
     <g id="line2d_2">
      <g>
       <use xlink:href="#mde4198b776" x="96.532178" y="163.963636" style="stroke: #000000; stroke-width: 0.8"/>
      </g>
     </g>
     <g id="text_2">
      <!-- −0.3 -->
      <g transform="translate(84.390772 178.562074) scale(0.1 -0.1)">
       <defs>
        <path id="DejaVuSans-33" d="M 2597 2516 
Q 3050 2419 3304 2112 
Q 3559 1806 3559 1356 
Q 3559 666 3084 287 
Q 2609 -91 1734 -91 
Q 1441 -91 1130 -33 
Q 819 25 488 141 
L 488 750 
Q 750 597 1062 519 
Q 1375 441 1716 441 
Q 2309 441 2620 675 
Q 2931 909 2931 1356 
Q 2931 1769 2642 2001 
Q 2353 2234 1838 2234 
L 1294 2234 
L 1294 2753 
L 1863 2753 
Q 2328 2753 2575 2939 
Q 2822 3125 2822 3475 
Q 2822 3834 2567 4026 
Q 2313 4219 1838 4219 
Q 1578 4219 1281 4162 
Q 984 4106 628 3988 
L 628 4550 
Q 988 4650 1302 4700 
Q 1616 4750 1894 4750 
Q 2613 4750 3031 4423 
Q 3450 4097 3450 3541 
Q 3450 3153 3228 2886 
Q 3006 2619 2597 2516 
z
" transform="scale(0.015625)"/>
       </defs>
       <use xlink:href="#DejaVuSans-2212"/>
       <use xlink:href="#DejaVuSans-30" x="83.789062"/>
       <use xlink:href="#DejaVuSans-2e" x="147.412109"/>
       <use xlink:href="#DejaVuSans-33" x="179.199219"/>
      </g>
     </g>
    </g>
    <g id="xtick_3">
     <g id="line2d_3">
      <g>
       <use xlink:href="#mde4198b776" x="136.904357" y="163.963636" style="stroke: #000000; stroke-width: 0.8"/>
      </g>
     </g>
     <g id="text_3">
      <!-- −0.2 -->
      <g transform="translate(124.762951 178.562074) scale(0.1 -0.1)">
       <defs>
        <path id="DejaVuSans-32" d="M 1228 531 
L 3431 531 
L 3431 0 
L 469 0 
L 469 531 
Q 828 903 1448 1529 
Q 2069 2156 2228 2338 
Q 2531 2678 2651 2914 
Q 2772 3150 2772 3378 
Q 2772 3750 2511 3984 
Q 2250 4219 1831 4219 
Q 1534 4219 1204 4116 
Q 875 4013 500 3803 
L 500 4441 
Q 881 4594 1212 4672 
Q 1544 4750 1819 4750 
Q 2544 4750 2975 4387 
Q 3406 4025 3406 3419 
Q 3406 3131 3298 2873 
Q 3191 2616 2906 2266 
Q 2828 2175 2409 1742 
Q 1991 1309 1228 531 
z
" transform="scale(0.015625)"/>
       </defs>
       <use xlink:href="#DejaVuSans-2212"/>
       <use xlink:href="#DejaVuSans-30" x="83.789062"/>
       <use xlink:href="#DejaVuSans-2e" x="147.412109"/>
       <use xlink:href="#DejaVuSans-32" x="179.199219"/>
      </g>
     </g>
    </g>
    <g id="xtick_4">
     <g id="line2d_4">
      <g>
       <use xlink:href="#mde4198b776" x="177.276535" y="163.963636" style="stroke: #000000; stroke-width: 0.8"/>
      </g>
     </g>
     <g id="text_4">
      <!-- −0.1 -->
      <g transform="translate(165.135129 178.562074) scale(0.1 -0.1)">
       <defs>
        <path id="DejaVuSans-31" d="M 794 531 
L 1825 531 
L 1825 4091 
L 703 3866 
L 703 4441 
L 1819 4666 
L 2450 4666 
L 2450 531 
L 3481 531 
L 3481 0 
L 794 0 
L 794 531 
z
" transform="scale(0.015625)"/>
       </defs>
       <use xlink:href="#DejaVuSans-2212"/>
       <use xlink:href="#DejaVuSans-30" x="83.789062"/>
       <use xlink:href="#DejaVuSans-2e" x="147.412109"/>
       <use xlink:href="#DejaVuSans-31" x="179.199219"/>
      </g>
     </g>
    </g>
    <g id="xtick_5">
     <g id="line2d_5">
      <g>
       <use xlink:href="#mde4198b776" x="217.648714" y="163.963636" style="stroke: #000000; stroke-width: 0.8"/>
      </g>
     </g>
     <g id="text_5">
      <!-- 0.0 -->
      <g transform="translate(209.697151 178.562074) scale(0.1 -0.1)">
       <use xlink:href="#DejaVuSans-30"/>
       <use xlink:href="#DejaVuSans-2e" x="63.623047"/>
       <use xlink:href="#DejaVuSans-30" x="95.410156"/>
      </g>
     </g>
    </g>
    <g id="xtick_6">
     <g id="line2d_6">
      <g>
       <use xlink:href="#mde4198b776" x="258.020892" y="163.963636" style="stroke: #000000; stroke-width: 0.8"/>
      </g>
     </g>
     <g id="text_6">
      <!-- 0.1 -->
      <g transform="translate(250.069329 178.562074) scale(0.1 -0.1)">
       <use xlink:href="#DejaVuSans-30"/>
       <use xlink:href="#DejaVuSans-2e" x="63.623047"/>
       <use xlink:href="#DejaVuSans-31" x="95.410156"/>
      </g>
     </g>
    </g>
    <g id="xtick_7">
     <g id="line2d_7">
      <g>
       <use xlink:href="#mde4198b776" x="298.39307" y="163.963636" style="stroke: #000000; stroke-width: 0.8"/>
      </g>
     </g>
     <g id="text_7">
      <!-- 0.2 -->
      <g transform="translate(290.441508 178.562074) scale(0.1 -0.1)">
       <use xlink:href="#DejaVuSans-30"/>
       <use xlink:href="#DejaVuSans-2e" x="63.623047"/>
       <use xlink:href="#DejaVuSans-32" x="95.410156"/>
      </g>
     </g>
    </g>
    <g id="xtick_8">
     <g id="line2d_8">
      <g>
       <use xlink:href="#mde4198b776" x="338.765249" y="163.963636" style="stroke: #000000; stroke-width: 0.8"/>
      </g>
     </g>
     <g id="text_8">
      <!-- 0.3 -->
      <g transform="translate(330.813686 178.562074) scale(0.1 -0.1)">
       <use xlink:href="#DejaVuSans-30"/>
       <use xlink:href="#DejaVuSans-2e" x="63.623047"/>
       <use xlink:href="#DejaVuSans-33" x="95.410156"/>
      </g>
     </g>
    </g>
    <g id="xtick_9">
     <g id="line2d_9">
      <g>
       <use xlink:href="#mde4198b776" x="379.137427" y="163.963636" style="stroke: #000000; stroke-width: 0.8"/>
      </g>
     </g>
     <g id="text_9">
      <!-- 0.4 -->
      <g transform="translate(371.185865 178.562074) scale(0.1 -0.1)">
       <use xlink:href="#DejaVuSans-30"/>
       <use xlink:href="#DejaVuSans-2e" x="63.623047"/>
       <use xlink:href="#DejaVuSans-34" x="95.410156"/>
      </g>
     </g>
    </g>
   </g>
   <g id="matplotlib.axis_2">
    <g id="ytick_1">
     <g id="line2d_10">
      <defs>
       <path id="mfcda0fea2a" d="M 0 0 
L -3.5 0 
" style="stroke: #000000; stroke-width: 0.8"/>
      </defs>
      <g>
       <use xlink:href="#mfcda0fea2a" x="56.16" y="157.001653" style="stroke: #000000; stroke-width: 0.8"/>
      </g>
     </g>
     <g id="text_10">
      <!-- 0.0 -->
      <g transform="translate(33.256875 160.800872) scale(0.1 -0.1)">
       <use xlink:href="#DejaVuSans-30"/>
       <use xlink:href="#DejaVuSans-2e" x="63.623047"/>
       <use xlink:href="#DejaVuSans-30" x="95.410156"/>
      </g>
     </g>
    </g>
    <g id="ytick_2">
     <g id="line2d_11">
      <g>
       <use xlink:href="#mfcda0fea2a" x="56.16" y="129.153719" style="stroke: #000000; stroke-width: 0.8"/>
      </g>
     </g>
     <g id="text_11">
      <!-- 0.2 -->
      <g transform="translate(33.256875 132.952938) scale(0.1 -0.1)">
       <use xlink:href="#DejaVuSans-30"/>
       <use xlink:href="#DejaVuSans-2e" x="63.623047"/>
       <use xlink:href="#DejaVuSans-32" x="95.410156"/>
      </g>
     </g>
    </g>
    <g id="ytick_3">
     <g id="line2d_12">
      <g>
       <use xlink:href="#mfcda0fea2a" x="56.16" y="101.305785" style="stroke: #000000; stroke-width: 0.8"/>
      </g>
     </g>
     <g id="text_12">
      <!-- 0.4 -->
      <g transform="translate(33.256875 105.105004) scale(0.1 -0.1)">
       <use xlink:href="#DejaVuSans-30"/>
       <use xlink:href="#DejaVuSans-2e" x="63.623047"/>
       <use xlink:href="#DejaVuSans-34" x="95.410156"/>
      </g>
     </g>
    </g>
    <g id="ytick_4">
     <g id="line2d_13">
      <g>
       <use xlink:href="#mfcda0fea2a" x="56.16" y="73.457851" style="stroke: #000000; stroke-width: 0.8"/>
      </g>
     </g>
     <g id="text_13">
      <!-- 0.6 -->
      <g transform="translate(33.256875 77.25707) scale(0.1 -0.1)">
       <defs>
        <path id="DejaVuSans-36" d="M 2113 2584 
Q 1688 2584 1439 2293 
Q 1191 2003 1191 1497 
Q 1191 994 1439 701 
Q 1688 409 2113 409 
Q 2538 409 2786 701 
Q 3034 994 3034 1497 
Q 3034 2003 2786 2293 
Q 2538 2584 2113 2584 
z
M 3366 4563 
L 3366 3988 
Q 3128 4100 2886 4159 
Q 2644 4219 2406 4219 
Q 1781 4219 1451 3797 
Q 1122 3375 1075 2522 
Q 1259 2794 1537 2939 
Q 1816 3084 2150 3084 
Q 2853 3084 3261 2657 
Q 3669 2231 3669 1497 
Q 3669 778 3244 343 
Q 2819 -91 2113 -91 
Q 1303 -91 875 529 
Q 447 1150 447 2328 
Q 447 3434 972 4092 
Q 1497 4750 2381 4750 
Q 2619 4750 2861 4703 
Q 3103 4656 3366 4563 
z
" transform="scale(0.015625)"/>
       </defs>
       <use xlink:href="#DejaVuSans-30"/>
       <use xlink:href="#DejaVuSans-2e" x="63.623047"/>
       <use xlink:href="#DejaVuSans-36" x="95.410156"/>
      </g>
     </g>
    </g>
    <g id="ytick_5">
     <g id="line2d_14">
      <g>
       <use xlink:href="#mfcda0fea2a" x="56.16" y="45.609917" style="stroke: #000000; stroke-width: 0.8"/>
      </g>
     </g>
     <g id="text_14">
      <!-- 0.8 -->
      <g transform="translate(33.256875 49.409136) scale(0.1 -0.1)">
       <defs>
        <path id="DejaVuSans-38" d="M 2034 2216 
Q 1584 2216 1326 1975 
Q 1069 1734 1069 1313 
Q 1069 891 1326 650 
Q 1584 409 2034 409 
Q 2484 409 2743 651 
Q 3003 894 3003 1313 
Q 3003 1734 2745 1975 
Q 2488 2216 2034 2216 
z
M 1403 2484 
Q 997 2584 770 2862 
Q 544 3141 544 3541 
Q 544 4100 942 4425 
Q 1341 4750 2034 4750 
Q 2731 4750 3128 4425 
Q 3525 4100 3525 3541 
Q 3525 3141 3298 2862 
Q 3072 2584 2669 2484 
Q 3125 2378 3379 2068 
Q 3634 1759 3634 1313 
Q 3634 634 3220 271 
Q 2806 -91 2034 -91 
Q 1263 -91 848 271 
Q 434 634 434 1313 
Q 434 1759 690 2068 
Q 947 2378 1403 2484 
z
M 1172 3481 
Q 1172 3119 1398 2916 
Q 1625 2713 2034 2713 
Q 2441 2713 2670 2916 
Q 2900 3119 2900 3481 
Q 2900 3844 2670 4047 
Q 2441 4250 2034 4250 
Q 1625 4250 1398 4047 
Q 1172 3844 1172 3481 
z
" transform="scale(0.015625)"/>
       </defs>
       <use xlink:href="#DejaVuSans-30"/>
       <use xlink:href="#DejaVuSans-2e" x="63.623047"/>
       <use xlink:href="#DejaVuSans-38" x="95.410156"/>
      </g>
     </g>
    </g>
    <g id="ytick_6">
     <g id="line2d_15">
      <g>
       <use xlink:href="#mfcda0fea2a" x="56.16" y="17.761983" style="stroke: #000000; stroke-width: 0.8"/>
      </g>
     </g>
     <g id="text_15">
      <!-- 1.0 -->
      <g transform="translate(33.256875 21.561202) scale(0.1 -0.1)">
       <use xlink:href="#DejaVuSans-31"/>
       <use xlink:href="#DejaVuSans-2e" x="63.623047"/>
       <use xlink:href="#DejaVuSans-30" x="95.410156"/>
      </g>
     </g>
    </g>
   </g>
   <g id="line2d_16">
    <path d="M 56.122981 157.001653 
L 153.016209 157.001653 
L 153.137326 17.761983 
L 282.20718 17.761983 
L 282.328296 157.001653 
L 379.14078 157.001653 
L 379.14078 157.001653 
" clip-path="url(#pfa327985f5)" style="fill: none; stroke: #808080; stroke-width: 4; stroke-linecap: square"/>
   </g>
   <g id="line2d_17">
    <path d="M 217.648714 163.963636 
L 217.648714 10.8 
" clip-path="url(#pfa327985f5)" style="fill: none; stroke-dasharray: 1,1.65; stroke-dashoffset: 0; stroke: #808080"/>
   </g>
   <g id="patch_3">
    <path d="M 56.16 163.963636 
L 56.16 10.8 
" style="fill: none; stroke: #000000; stroke-width: 0.8; stroke-linejoin: miter; stroke-linecap: square"/>
   </g>
   <g id="patch_4">
    <path d="M 379.137427 163.963636 
L 379.137427 10.8 
" style="fill: none; stroke: #000000; stroke-width: 0.8; stroke-linejoin: miter; stroke-linecap: square"/>
   </g>
   <g id="patch_5">
    <path d="M 56.16 163.963636 
L 379.137427 163.963636 
" style="fill: none; stroke: #000000; stroke-width: 0.8; stroke-linejoin: miter; stroke-linecap: square"/>
   </g>
   <g id="patch_6">
    <path d="M 56.16 10.8 
L 379.137427 10.8 
" style="fill: none; stroke: #000000; stroke-width: 0.8; stroke-linejoin: miter; stroke-linecap: square"/>
   </g>
  </g>
  <g id="axes_2">
   <g id="patch_7">
    <path d="M 56.16 347.76 
L 379.137427 347.76 
L 379.137427 194.596364 
L 56.16 194.596364 
z
" style="fill: #ffffff"/>
   </g>
   <g id="matplotlib.axis_3">
    <g id="xtick_10">
     <g id="line2d_18">
      <g>
       <use xlink:href="#mde4198b776" x="56.16" y="347.76" style="stroke: #000000; stroke-width: 0.8"/>
      </g>
     </g>
     <g id="text_16">
      <!-- −0.4 -->
      <g transform="translate(44.018594 362.358438) scale(0.1 -0.1)">
       <use xlink:href="#DejaVuSans-2212"/>
       <use xlink:href="#DejaVuSans-30" x="83.789062"/>
       <use xlink:href="#DejaVuSans-2e" x="147.412109"/>
       <use xlink:href="#DejaVuSans-34" x="179.199219"/>
      </g>
     </g>
    </g>
    <g id="xtick_11">
     <g id="line2d_19">
      <g>
       <use xlink:href="#mde4198b776" x="96.532178" y="347.76" style="stroke: #000000; stroke-width: 0.8"/>
      </g>
     </g>
     <g id="text_17">
      <!-- −0.3 -->
      <g transform="translate(84.390772 362.358438) scale(0.1 -0.1)">
       <use xlink:href="#DejaVuSans-2212"/>
       <use xlink:href="#DejaVuSans-30" x="83.789062"/>
       <use xlink:href="#DejaVuSans-2e" x="147.412109"/>
       <use xlink:href="#DejaVuSans-33" x="179.199219"/>
      </g>
     </g>
    </g>
    <g id="xtick_12">
     <g id="line2d_20">
      <g>
       <use xlink:href="#mde4198b776" x="136.904357" y="347.76" style="stroke: #000000; stroke-width: 0.8"/>
      </g>
     </g>
     <g id="text_18">
      <!-- −0.2 -->
      <g transform="translate(124.762951 362.358438) scale(0.1 -0.1)">
       <use xlink:href="#DejaVuSans-2212"/>
       <use xlink:href="#DejaVuSans-30" x="83.789062"/>
       <use xlink:href="#DejaVuSans-2e" x="147.412109"/>
       <use xlink:href="#DejaVuSans-32" x="179.199219"/>
      </g>
     </g>
    </g>
    <g id="xtick_13">
     <g id="line2d_21">
      <g>
       <use xlink:href="#mde4198b776" x="177.276535" y="347.76" style="stroke: #000000; stroke-width: 0.8"/>
      </g>
     </g>
     <g id="text_19">
      <!-- −0.1 -->
      <g transform="translate(165.135129 362.358438) scale(0.1 -0.1)">
       <use xlink:href="#DejaVuSans-2212"/>
       <use xlink:href="#DejaVuSans-30" x="83.789062"/>
       <use xlink:href="#DejaVuSans-2e" x="147.412109"/>
       <use xlink:href="#DejaVuSans-31" x="179.199219"/>
      </g>
     </g>
    </g>
    <g id="xtick_14">
     <g id="line2d_22">
      <g>
       <use xlink:href="#mde4198b776" x="217.648714" y="347.76" style="stroke: #000000; stroke-width: 0.8"/>
      </g>
     </g>
     <g id="text_20">
      <!-- 0.0 -->
      <g transform="translate(209.697151 362.358438) scale(0.1 -0.1)">
       <use xlink:href="#DejaVuSans-30"/>
       <use xlink:href="#DejaVuSans-2e" x="63.623047"/>
       <use xlink:href="#DejaVuSans-30" x="95.410156"/>
      </g>
     </g>
    </g>
    <g id="xtick_15">
     <g id="line2d_23">
      <g>
       <use xlink:href="#mde4198b776" x="258.020892" y="347.76" style="stroke: #000000; stroke-width: 0.8"/>
      </g>
     </g>
     <g id="text_21">
      <!-- 0.1 -->
      <g transform="translate(250.069329 362.358438) scale(0.1 -0.1)">
       <use xlink:href="#DejaVuSans-30"/>
       <use xlink:href="#DejaVuSans-2e" x="63.623047"/>
       <use xlink:href="#DejaVuSans-31" x="95.410156"/>
      </g>
     </g>
    </g>
    <g id="xtick_16">
     <g id="line2d_24">
      <g>
       <use xlink:href="#mde4198b776" x="298.39307" y="347.76" style="stroke: #000000; stroke-width: 0.8"/>
      </g>
     </g>
     <g id="text_22">
      <!-- 0.2 -->
      <g transform="translate(290.441508 362.358438) scale(0.1 -0.1)">
       <use xlink:href="#DejaVuSans-30"/>
       <use xlink:href="#DejaVuSans-2e" x="63.623047"/>
       <use xlink:href="#DejaVuSans-32" x="95.410156"/>
      </g>
     </g>
    </g>
    <g id="xtick_17">
     <g id="line2d_25">
      <g>
       <use xlink:href="#mde4198b776" x="338.765249" y="347.76" style="stroke: #000000; stroke-width: 0.8"/>
      </g>
     </g>
     <g id="text_23">
      <!-- 0.3 -->
      <g transform="translate(330.813686 362.358438) scale(0.1 -0.1)">
       <use xlink:href="#DejaVuSans-30"/>
       <use xlink:href="#DejaVuSans-2e" x="63.623047"/>
       <use xlink:href="#DejaVuSans-33" x="95.410156"/>
      </g>
     </g>
    </g>
    <g id="xtick_18">
     <g id="line2d_26">
      <g>
       <use xlink:href="#mde4198b776" x="379.137427" y="347.76" style="stroke: #000000; stroke-width: 0.8"/>
      </g>
     </g>
     <g id="text_24">
      <!-- 0.4 -->
      <g transform="translate(371.185865 362.358438) scale(0.1 -0.1)">
       <use xlink:href="#DejaVuSans-30"/>
       <use xlink:href="#DejaVuSans-2e" x="63.623047"/>
       <use xlink:href="#DejaVuSans-34" x="95.410156"/>
      </g>
     </g>
    </g>
    <g id="text_25">
     <!-- space [mm] -->
     <g transform="translate(187.748714 376.036563) scale(0.1 -0.1)">
      <defs>
       <path id="DejaVuSans-73" d="M 2834 3397 
L 2834 2853 
Q 2591 2978 2328 3040 
Q 2066 3103 1784 3103 
Q 1356 3103 1142 2972 
Q 928 2841 928 2578 
Q 928 2378 1081 2264 
Q 1234 2150 1697 2047 
L 1894 2003 
Q 2506 1872 2764 1633 
Q 3022 1394 3022 966 
Q 3022 478 2636 193 
Q 2250 -91 1575 -91 
Q 1294 -91 989 -36 
Q 684 19 347 128 
L 347 722 
Q 666 556 975 473 
Q 1284 391 1588 391 
Q 1994 391 2212 530 
Q 2431 669 2431 922 
Q 2431 1156 2273 1281 
Q 2116 1406 1581 1522 
L 1381 1569 
Q 847 1681 609 1914 
Q 372 2147 372 2553 
Q 372 3047 722 3315 
Q 1072 3584 1716 3584 
Q 2034 3584 2315 3537 
Q 2597 3491 2834 3397 
z
" transform="scale(0.015625)"/>
       <path id="DejaVuSans-70" d="M 1159 525 
L 1159 -1331 
L 581 -1331 
L 581 3500 
L 1159 3500 
L 1159 2969 
Q 1341 3281 1617 3432 
Q 1894 3584 2278 3584 
Q 2916 3584 3314 3078 
Q 3713 2572 3713 1747 
Q 3713 922 3314 415 
Q 2916 -91 2278 -91 
Q 1894 -91 1617 61 
Q 1341 213 1159 525 
z
M 3116 1747 
Q 3116 2381 2855 2742 
Q 2594 3103 2138 3103 
Q 1681 3103 1420 2742 
Q 1159 2381 1159 1747 
Q 1159 1113 1420 752 
Q 1681 391 2138 391 
Q 2594 391 2855 752 
Q 3116 1113 3116 1747 
z
" transform="scale(0.015625)"/>
       <path id="DejaVuSans-61" d="M 2194 1759 
Q 1497 1759 1228 1600 
Q 959 1441 959 1056 
Q 959 750 1161 570 
Q 1363 391 1709 391 
Q 2188 391 2477 730 
Q 2766 1069 2766 1631 
L 2766 1759 
L 2194 1759 
z
M 3341 1997 
L 3341 0 
L 2766 0 
L 2766 531 
Q 2569 213 2275 61 
Q 1981 -91 1556 -91 
Q 1019 -91 701 211 
Q 384 513 384 1019 
Q 384 1609 779 1909 
Q 1175 2209 1959 2209 
L 2766 2209 
L 2766 2266 
Q 2766 2663 2505 2880 
Q 2244 3097 1772 3097 
Q 1472 3097 1187 3025 
Q 903 2953 641 2809 
L 641 3341 
Q 956 3463 1253 3523 
Q 1550 3584 1831 3584 
Q 2591 3584 2966 3190 
Q 3341 2797 3341 1997 
z
" transform="scale(0.015625)"/>
       <path id="DejaVuSans-63" d="M 3122 3366 
L 3122 2828 
Q 2878 2963 2633 3030 
Q 2388 3097 2138 3097 
Q 1578 3097 1268 2742 
Q 959 2388 959 1747 
Q 959 1106 1268 751 
Q 1578 397 2138 397 
Q 2388 397 2633 464 
Q 2878 531 3122 666 
L 3122 134 
Q 2881 22 2623 -34 
Q 2366 -91 2075 -91 
Q 1284 -91 818 406 
Q 353 903 353 1747 
Q 353 2603 823 3093 
Q 1294 3584 2113 3584 
Q 2378 3584 2631 3529 
Q 2884 3475 3122 3366 
z
" transform="scale(0.015625)"/>
       <path id="DejaVuSans-65" d="M 3597 1894 
L 3597 1613 
L 953 1613 
Q 991 1019 1311 708 
Q 1631 397 2203 397 
Q 2534 397 2845 478 
Q 3156 559 3463 722 
L 3463 178 
Q 3153 47 2828 -22 
Q 2503 -91 2169 -91 
Q 1331 -91 842 396 
Q 353 884 353 1716 
Q 353 2575 817 3079 
Q 1281 3584 2069 3584 
Q 2775 3584 3186 3129 
Q 3597 2675 3597 1894 
z
M 3022 2063 
Q 3016 2534 2758 2815 
Q 2500 3097 2075 3097 
Q 1594 3097 1305 2825 
Q 1016 2553 972 2059 
L 3022 2063 
z
" transform="scale(0.015625)"/>
       <path id="DejaVuSans-20" transform="scale(0.015625)"/>
       <path id="DejaVuSans-5b" d="M 550 4863 
L 1875 4863 
L 1875 4416 
L 1125 4416 
L 1125 -397 
L 1875 -397 
L 1875 -844 
L 550 -844 
L 550 4863 
z
" transform="scale(0.015625)"/>
       <path id="DejaVuSans-6d" d="M 3328 2828 
Q 3544 3216 3844 3400 
Q 4144 3584 4550 3584 
Q 5097 3584 5394 3201 
Q 5691 2819 5691 2113 
L 5691 0 
L 5113 0 
L 5113 2094 
Q 5113 2597 4934 2840 
Q 4756 3084 4391 3084 
Q 3944 3084 3684 2787 
Q 3425 2491 3425 1978 
L 3425 0 
L 2847 0 
L 2847 2094 
Q 2847 2600 2669 2842 
Q 2491 3084 2119 3084 
Q 1678 3084 1418 2786 
Q 1159 2488 1159 1978 
L 1159 0 
L 581 0 
L 581 3500 
L 1159 3500 
L 1159 2956 
Q 1356 3278 1631 3431 
Q 1906 3584 2284 3584 
Q 2666 3584 2933 3390 
Q 3200 3197 3328 2828 
z
" transform="scale(0.015625)"/>
       <path id="DejaVuSans-5d" d="M 1947 4863 
L 1947 -844 
L 622 -844 
L 622 -397 
L 1369 -397 
L 1369 4416 
L 622 4416 
L 622 4863 
L 1947 4863 
z
" transform="scale(0.015625)"/>
      </defs>
      <use xlink:href="#DejaVuSans-73"/>
      <use xlink:href="#DejaVuSans-70" x="52.099609"/>
      <use xlink:href="#DejaVuSans-61" x="115.576172"/>
      <use xlink:href="#DejaVuSans-63" x="176.855469"/>
      <use xlink:href="#DejaVuSans-65" x="231.835938"/>
      <use xlink:href="#DejaVuSans-20" x="293.359375"/>
      <use xlink:href="#DejaVuSans-5b" x="325.146484"/>
      <use xlink:href="#DejaVuSans-6d" x="364.160156"/>
      <use xlink:href="#DejaVuSans-6d" x="461.572266"/>
      <use xlink:href="#DejaVuSans-5d" x="558.984375"/>
     </g>
    </g>
   </g>
   <g id="matplotlib.axis_4">
    <g id="ytick_7">
     <g id="line2d_27">
      <g>
       <use xlink:href="#mfcda0fea2a" x="56.16" y="340.798017" style="stroke: #000000; stroke-width: 0.8"/>
      </g>
     </g>
     <g id="text_26">
      <!-- 0 -->
      <g transform="translate(42.7975 344.597235) scale(0.1 -0.1)">
       <use xlink:href="#DejaVuSans-30"/>
      </g>
     </g>
    </g>
    <g id="ytick_8">
     <g id="line2d_28">
      <g>
       <use xlink:href="#mfcda0fea2a" x="56.16" y="305.808432" style="stroke: #000000; stroke-width: 0.8"/>
      </g>
     </g>
     <g id="text_27">
      <!-- 20 -->
      <g transform="translate(36.435 309.607651) scale(0.1 -0.1)">
       <use xlink:href="#DejaVuSans-32"/>
       <use xlink:href="#DejaVuSans-30" x="63.623047"/>
      </g>
     </g>
    </g>
    <g id="ytick_9">
     <g id="line2d_29">
      <g>
       <use xlink:href="#mfcda0fea2a" x="56.16" y="270.818848" style="stroke: #000000; stroke-width: 0.8"/>
      </g>
     </g>
     <g id="text_28">
      <!-- 40 -->
      <g transform="translate(36.435 274.618066) scale(0.1 -0.1)">
       <use xlink:href="#DejaVuSans-34"/>
       <use xlink:href="#DejaVuSans-30" x="63.623047"/>
      </g>
     </g>
    </g>
    <g id="ytick_10">
     <g id="line2d_30">
      <g>
       <use xlink:href="#mfcda0fea2a" x="56.16" y="235.829263" style="stroke: #000000; stroke-width: 0.8"/>
      </g>
     </g>
     <g id="text_29">
      <!-- 60 -->
      <g transform="translate(36.435 239.628482) scale(0.1 -0.1)">
       <use xlink:href="#DejaVuSans-36"/>
       <use xlink:href="#DejaVuSans-30" x="63.623047"/>
      </g>
     </g>
    </g>
    <g id="ytick_11">
     <g id="line2d_31">
      <g>
       <use xlink:href="#mfcda0fea2a" x="56.16" y="200.839679" style="stroke: #000000; stroke-width: 0.8"/>
      </g>
     </g>
     <g id="text_30">
      <!-- 80 -->
      <g transform="translate(36.435 204.638897) scale(0.1 -0.1)">
       <use xlink:href="#DejaVuSans-38"/>
       <use xlink:href="#DejaVuSans-30" x="63.623047"/>
      </g>
     </g>
    </g>
    <g id="text_31">
     <!-- $R(t)$ -->
     <g transform="translate(30.355313 280.528182) rotate(-90) scale(0.1 -0.1)">
      <defs>
       <path id="DejaVuSans-Oblique-52" d="M 1613 4147 
L 1294 2491 
L 2106 2491 
Q 2584 2491 2879 2755 
Q 3175 3019 3175 3444 
Q 3175 3784 2976 3965 
Q 2778 4147 2406 4147 
L 1613 4147 
z
M 2772 2241 
Q 2972 2194 3105 2009 
Q 3238 1825 3413 1275 
L 3809 0 
L 3144 0 
L 2778 1197 
Q 2638 1659 2453 1815 
Q 2269 1972 1888 1972 
L 1191 1972 
L 806 0 
L 172 0 
L 1081 4666 
L 2503 4666 
Q 3150 4666 3495 4373 
Q 3841 4081 3841 3531 
Q 3841 3044 3547 2687 
Q 3253 2331 2772 2241 
z
" transform="scale(0.015625)"/>
       <path id="DejaVuSans-28" d="M 1984 4856 
Q 1566 4138 1362 3434 
Q 1159 2731 1159 2009 
Q 1159 1288 1364 580 
Q 1569 -128 1984 -844 
L 1484 -844 
Q 1016 -109 783 600 
Q 550 1309 550 2009 
Q 550 2706 781 3412 
Q 1013 4119 1484 4856 
L 1984 4856 
z
" transform="scale(0.015625)"/>
       <path id="DejaVuSans-Oblique-74" d="M 2706 3500 
L 2619 3053 
L 1472 3053 
L 1100 1153 
Q 1081 1047 1072 975 
Q 1063 903 1063 863 
Q 1063 663 1183 572 
Q 1303 481 1569 481 
L 2150 481 
L 2053 0 
L 1503 0 
Q 991 0 739 200 
Q 488 400 488 806 
Q 488 878 497 964 
Q 506 1050 525 1153 
L 897 3053 
L 409 3053 
L 500 3500 
L 978 3500 
L 1172 4494 
L 1747 4494 
L 1556 3500 
L 2706 3500 
z
" transform="scale(0.015625)"/>
       <path id="DejaVuSans-29" d="M 513 4856 
L 1013 4856 
Q 1481 4119 1714 3412 
Q 1947 2706 1947 2009 
Q 1947 1309 1714 600 
Q 1481 -109 1013 -844 
L 513 -844 
Q 928 -128 1133 580 
Q 1338 1288 1338 2009 
Q 1338 2731 1133 3434 
Q 928 4138 513 4856 
z
" transform="scale(0.015625)"/>
      </defs>
      <use xlink:href="#DejaVuSans-Oblique-52" transform="translate(0 0.125)"/>
      <use xlink:href="#DejaVuSans-28" transform="translate(69.482422 0.125)"/>
      <use xlink:href="#DejaVuSans-Oblique-74" transform="translate(108.496094 0.125)"/>
      <use xlink:href="#DejaVuSans-29" transform="translate(147.705078 0.125)"/>
     </g>
    </g>
   </g>
   <g id="line2d_32">
    <path d="M 56.122981 340.771028 
L 74.371206 340.561469 
L 90.358588 339.70136 
L 93.507618 339.318105 
L 94.516923 339.230729 
L 95.606971 339.057683 
L 96.374043 338.995823 
L 97.746697 338.766012 
L 98.392652 338.688531 
L 99.724934 338.425352 
L 100.330516 338.365391 
L 101.783915 338.048138 
L 102.308753 337.99056 
L 103.802524 337.622049 
L 104.28699 337.571964 
L 105.861505 337.151861 
L 106.305599 337.092807 
L 107.839742 336.621812 
L 108.283835 336.579291 
L 108.92979 336.217455 
L 109.454629 336.007502 
L 110.665794 335.794926 
L 111.473238 335.363963 
L 111.998076 335.42444 
L 112.361425 335.340386 
L 113.00738 334.883594 
L 113.491846 334.664314 
L 113.93594 334.726242 
L 114.29929 334.685691 
L 114.783756 334.351683 
L 115.429711 333.921523 
L 115.793061 333.933876 
L 116.237155 333.971543 
L 116.640876 333.720115 
L 117.529064 333.091167 
L 117.932786 333.165842 
L 118.296136 333.154489 
L 118.699857 332.858186 
L 119.507301 332.222358 
L 119.870651 332.272305 
L 120.234 332.322276 
L 120.556978 332.12407 
L 121.647027 331.279559 
L 122.494842 331.27251 
L 123.100425 330.605282 
L 123.504147 330.314003 
L 123.827124 330.336691 
L 124.271218 330.446833 
L 124.594196 330.220429 
L 125.643872 329.256562 
L 125.96685 329.370983 
L 126.289827 329.430953 
L 126.572432 329.233159 
L 127.702853 328.17243 
L 128.066203 328.342831 
L 128.348808 328.353396 
L 128.671786 328.065215 
L 129.600346 327.044197 
L 129.882951 327.102751 
L 130.327045 327.263558 
L 130.60965 327.043871 
L 131.699699 325.868459 
L 131.982304 325.999689 
L 132.305282 326.130539 
L 132.547515 325.982618 
L 132.991609 325.351763 
L 133.476075 324.735432 
L 133.75868 324.671711 
L 134.081657 324.874539 
L 134.364263 324.946869 
L 134.606496 324.757852 
L 135.131334 323.939626 
L 135.535056 323.478012 
L 135.817661 323.456195 
L 136.503988 323.677323 
L 136.826966 323.258916 
L 137.594037 322.205277 
L 137.83627 322.209361 
L 138.522597 322.456976 
L 138.845575 322.023188 
L 139.572274 320.958303 
L 139.814507 320.933436 
L 140.097112 321.154686 
L 140.379717 321.304419 
L 140.581578 321.186782 
L 140.944928 320.63276 
L 141.55051 319.711465 
L 141.792744 319.655228 
L 142.034977 319.817952 
L 142.398326 320.068041 
L 142.600187 319.949992 
L 142.963537 319.38075 
L 143.569119 318.441934 
L 143.811352 318.390961 
L 144.053586 318.566355 
L 144.416935 318.834579 
L 144.618796 318.716871 
L 144.982146 318.134904 
L 145.587728 317.182914 
L 145.829961 317.137826 
L 146.072194 317.32569 
L 146.435544 317.611719 
L 146.637405 317.495113 
L 147.000755 316.903095 
L 147.565965 315.972607 
L 147.808198 315.89318 
L 148.050431 316.055043 
L 148.454153 316.407096 
L 148.656014 316.292353 
L 148.978991 315.773211 
L 149.624946 314.728447 
L 149.867179 314.696717 
L 150.109412 314.908341 
L 150.472762 315.223552 
L 150.674623 315.108334 
L 150.9976 314.582976 
L 151.603183 313.569603 
L 151.845416 313.505245 
L 152.087649 313.690752 
L 152.491371 314.07734 
L 152.693232 313.966295 
L 153.016209 313.440768 
L 153.621792 312.432249 
L 153.864025 312.375169 
L 154.106258 312.570613 
L 154.50998 312.973321 
L 154.711841 312.866075 
L 155.034818 312.341846 
L 155.640401 311.342072 
L 155.882634 311.292472 
L 156.124867 311.497009 
L 156.528589 311.914214 
L 156.73045 311.81138 
L 157.053427 311.291045 
L 157.65901 310.304813 
L 157.901243 310.26302 
L 158.143476 310.475852 
L 158.547198 310.911574 
L 158.749058 310.817522 
L 159.072036 310.306793 
L 159.677619 309.335365 
L 159.919852 309.298727 
L 160.162085 309.516176 
L 160.565806 309.953765 
L 160.767667 309.860316 
L 161.090645 309.354254 
L 161.696227 308.408009 
L 161.938461 308.382342 
L 162.180694 308.608975 
L 162.584415 309.05945 
L 162.786276 308.97335 
L 163.109254 308.480068 
L 163.714836 307.561532 
L 163.957069 307.544188 
L 164.199303 307.776212 
L 164.603024 308.233819 
L 164.804885 308.154115 
L 165.127863 307.674331 
L 165.693073 306.811545 
L 165.935306 306.760498 
L 166.177539 306.957145 
L 166.662005 307.486124 
L 166.863866 307.373591 
L 167.227216 306.805852 
L 167.711682 306.117102 
L 167.953915 306.07125 
L 168.196148 306.268253 
L 168.680614 306.79622 
L 168.882475 306.690138 
L 169.245825 306.141642 
L 169.730291 305.481399 
L 169.972524 305.443791 
L 170.214757 305.643307 
L 170.699223 306.164818 
L 170.901084 306.062515 
L 171.264434 305.533669 
L 171.7489 304.908869 
L 171.991133 304.883075 
L 172.233366 305.087647 
L 172.717832 305.613384 
L 172.919693 305.520762 
L 173.283043 305.017901 
L 173.767509 304.42689 
L 174.009742 304.409169 
L 174.251975 304.614186 
L 174.776813 305.14452 
L 175.019046 304.984672 
L 175.987979 304.002584 
L 176.230212 304.168291 
L 176.835794 304.727751 
L 177.078027 304.54083 
L 177.925843 303.655524 
L 178.168076 303.752441 
L 178.571798 304.258706 
L 178.814031 304.38847 
L 179.056264 304.251926 
L 180.025196 303.395552 
L 180.307802 303.605253 
L 180.83264 304.097872 
L 181.074873 303.968841 
L 182.003433 303.17373 
L 182.286038 303.349122 
L 182.891621 303.88823 
L 183.174226 303.70624 
L 183.941298 303.044468 
L 184.223903 303.14434 
L 185.031347 303.691408 
L 185.435068 303.313131 
L 185.879162 302.972869 
L 186.161768 303.008008 
L 186.484745 303.31646 
L 186.848095 303.626769 
L 187.090328 303.571707 
L 187.615166 303.098541 
L 187.978516 302.92961 
L 188.261121 303.030053 
L 189.068564 303.549701 
L 189.472286 303.236927 
L 189.91638 302.959741 
L 190.198985 303.002875 
L 190.521963 303.285602 
L 190.925685 303.579652 
L 191.20829 303.491864 
L 192.096478 303.031333 
L 192.419455 303.217569 
L 192.984666 303.626349 
L 193.307643 303.500758 
L 194.034342 303.13635 
L 194.35732 303.260711 
L 195.084019 303.707362 
L 195.487741 303.506408 
L 196.012579 303.290416 
L 196.335557 303.386126 
L 197.183372 303.819298 
L 198.313793 303.554382 
L 199.282726 303.965464 
L 200.211286 303.733887 
L 200.615007 303.969719 
L 201.059101 304.201683 
L 201.462823 304.11892 
L 202.108778 303.970192 
L 202.5125 304.126269 
L 203.158455 304.434469 
L 203.723665 304.297268 
L 204.208131 304.273759 
L 204.652225 304.485844 
L 205.136691 304.694005 
L 205.66153 304.614732 
L 206.22674 304.592708 
L 206.711206 304.812579 
L 207.195673 304.986229 
L 208.729815 305.139962 
L 209.254654 305.307649 
L 210.708052 305.475592 
L 211.313635 305.658932 
L 212.726661 305.86076 
L 213.45336 306.048509 
L 214.704898 306.259294 
L 215.714202 306.499419 
L 217.046484 306.795492 
L 222.981194 308.250646 
L 223.627149 308.466173 
L 224.596081 308.779192 
L 225.605386 309.001252 
L 226.574318 309.381318 
L 227.623995 309.613931 
L 228.552555 310.035708 
L 229.682976 310.29393 
L 230.490419 310.72074 
L 231.096002 310.728787 
L 231.499724 310.884739 
L 232.589773 311.493908 
L 233.639449 311.652464 
L 234.527637 312.231359 
L 234.971731 312.210662 
L 235.375453 312.23152 
L 235.779175 312.531417 
L 236.465502 313.036875 
L 236.869224 313.05911 
L 237.394062 313.036802 
L 237.797784 313.360679 
L 238.484111 313.908323 
L 238.84746 313.933258 
L 239.372299 313.906732 
L 239.735648 314.212168 
L 240.462348 314.850795 
L 240.825697 314.873083 
L 241.471652 314.789912 
L 241.835002 315.13078 
L 242.480956 315.741354 
L 242.844306 315.784721 
L 243.490261 315.712939 
L 243.85361 316.085052 
L 244.499565 316.743551 
L 244.822543 316.794509 
L 245.549242 316.724561 
L 245.952964 317.197588 
L 246.518174 317.786591 
L 246.841152 317.835819 
L 247.567851 317.745006 
L 247.971573 318.243402 
L 248.536783 318.864228 
L 248.859761 318.911656 
L 249.58646 318.800161 
L 249.990182 319.323081 
L 250.555392 319.974811 
L 250.87837 320.020457 
L 251.605069 319.888437 
L 251.968418 320.370965 
L 252.533629 321.09022 
L 252.856606 321.16951 
L 253.179584 320.98868 
L 253.462189 320.909454 
L 253.704422 321.091985 
L 254.834843 322.342484 
L 255.117448 322.205656 
L 255.480798 322.044042 
L 255.723031 322.225029 
L 256.288241 323.115408 
L 256.691963 323.501976 
L 256.974568 323.489376 
L 257.580151 323.25482 
L 257.862756 323.582678 
L 258.6702 324.705417 
L 258.952805 324.719082 
L 259.679504 324.504075 
L 260.002482 324.978267 
L 260.608065 325.869763 
L 260.89067 325.953683 
L 261.173275 325.787322 
L 261.496252 325.589091 
L 261.698113 325.694708 
L 262.021091 326.177934 
L 262.626673 327.088112 
L 262.909279 327.170661 
L 263.191884 326.99782 
L 263.514861 326.854082 
L 263.757094 327.055334 
L 264.281933 327.976461 
L 264.685655 328.434779 
L 264.96826 328.436292 
L 265.331609 328.118619 
L 265.573842 328.061264 
L 265.816076 328.289931 
L 266.82538 329.639482 
L 267.067613 329.553338 
L 267.673196 329.157986 
L 267.915429 329.422694 
L 268.843989 330.717542 
L 269.086222 330.663471 
L 269.651432 330.392802 
L 269.893666 330.679048 
L 270.781853 331.98858 
L 271.024087 331.96366 
L 271.347064 331.641237 
L 271.629669 331.460509 
L 271.83153 331.582924 
L 272.19488 332.174348 
L 272.719718 332.95428 
L 273.002323 333.023493 
L 273.284929 332.817801 
L 273.607906 332.636863 
L 273.809767 332.778285 
L 274.173116 333.3886 
L 274.697955 334.17046 
L 274.98056 334.234152 
L 275.263165 334.018209 
L 275.626515 333.74763 
L 275.828376 333.868401 
L 276.191725 334.450909 
L 276.716564 335.209006 
L 276.999169 335.265361 
L 277.281774 335.044755 
L 277.685496 334.689899 
L 277.887357 334.797944 
L 278.250706 335.362596 
L 278.775545 336.109418 
L 279.05815 336.16483 
L 279.340755 335.948589 
L 279.663733 335.752692 
L 279.865594 335.879108 
L 280.228943 336.455195 
L 280.753782 337.191942 
L 281.036387 337.239775 
L 281.318992 337.015512 
L 281.722714 336.653026 
L 281.924575 336.748531 
L 282.287924 337.28045 
L 282.812763 337.98333 
L 283.095368 338.025679 
L 283.377973 337.802769 
L 283.741323 337.526336 
L 283.943184 337.629853 
L 284.306533 338.159144 
L 284.831372 338.84603 
L 285.113977 338.883533 
L 285.396582 338.663632 
L 285.719559 338.45777 
L 285.961793 338.60275 
L 286.446259 339.333945 
L 286.84998 339.748054 
L 287.132586 339.736862 
L 287.415191 339.477441 
L 287.778541 339.163406 
L 287.980401 339.23643 
L 288.343751 339.701421 
L 288.868589 340.315608 
L 289.151195 340.337548 
L 289.4338 340.119276 
L 289.756777 339.912348 
L 289.99901 340.037075 
L 290.483477 340.700267 
L 290.685337 340.798017 
L 291.533153 340.702664 
L 291.856131 340.493207 
L 292.098364 340.62162 
L 292.421341 340.798017 
L 379.14078 340.798017 
L 379.14078 340.798017 
" clip-path="url(#p7e80393ea7)" style="fill: none; stroke: #1f77b4; stroke-width: 4; stroke-linecap: square"/>
   </g>
   <g id="line2d_33">
    <path d="M 56.122981 340.766536 
L 71.141431 340.595438 
L 80.265544 340.255931 
L 85.675416 339.868223 
L 90.76231 339.315841 
L 94.718784 338.712132 
L 98.433024 337.972488 
L 102.228009 337.013446 
L 105.377039 336.036994 
L 110.867655 333.91014 
L 113.93594 332.438685 
L 115.954549 331.373256 
L 117.81167 330.314501 
L 120.637722 328.601368 
L 124.594196 325.896762 
L 127.581737 323.628907 
L 130.165556 321.583773 
L 131.457466 320.529008 
L 132.749376 319.479485 
L 139.531902 313.547515 
L 140.500834 312.722187 
L 141.55051 311.76193 
L 142.438698 311.003589 
L 143.407631 310.146617 
L 144.538052 309.178653 
L 145.506984 308.311924 
L 146.475916 307.500872 
L 147.364104 306.746704 
L 148.57527 305.750002 
L 149.463457 304.997745 
L 150.43239 304.213288 
L 151.239833 303.593692 
L 152.531743 302.578205 
L 153.339187 301.969868 
L 154.550352 301.080576 
L 155.357795 300.508548 
L 156.488216 299.715388 
L 157.29566 299.204953 
L 158.506825 298.407453 
L 159.314269 297.946604 
L 160.525434 297.216824 
L 161.252134 296.843499 
L 162.463299 296.143711 
L 163.270742 295.789035 
L 164.481908 295.166326 
L 165.289351 294.863519 
L 166.500517 294.318821 
L 167.30796 294.075445 
L 168.519126 293.613149 
L 169.326569 293.416877 
L 170.537735 293.023937 
L 171.345178 292.865537 
L 172.556343 292.542102 
L 173.363787 292.436945 
L 174.494208 292.19345 
L 175.382396 292.155703 
L 176.593561 292.00093 
L 177.401005 292.001003 
L 178.61217 291.91006 
L 179.419614 291.950717 
L 180.630779 291.92508 
L 181.438223 291.996868 
L 182.649388 292.031059 
L 183.537576 292.158154 
L 184.667997 292.267558 
L 185.556185 292.434166 
L 186.686606 292.590235 
L 187.655538 292.797398 
L 188.705215 292.991387 
L 189.674147 293.23438 
L 190.723824 293.468341 
L 191.7735 293.758144 
L 192.823177 294.047248 
L 193.872854 294.352675 
L 194.841786 294.655577 
L 195.891463 294.99028 
L 196.941139 295.352683 
L 198.07156 295.721974 
L 199.121237 296.131613 
L 202.028034 297.201595 
L 203.400688 297.768433 
L 208.972048 300.067741 
L 212.363311 301.554035 
L 217.046484 303.710263 
L 224.151987 307.215812 
L 233.84131 312.534478 
L 240.220114 316.560865 
L 241.43128 317.365233 
L 242.561701 318.140465 
L 245.307009 319.996634 
L 246.275941 320.680131 
L 247.567851 321.600552 
L 248.617528 322.425431 
L 249.667204 323.148957 
L 250.797625 324.072639 
L 253.462189 326.062072 
L 254.350377 326.747676 
L 255.480798 327.625238 
L 256.368986 328.305374 
L 257.499407 329.189029 
L 258.387595 329.887684 
L 259.518016 330.783658 
L 260.406204 331.478945 
L 261.45588 332.317376 
L 262.344068 332.980019 
L 263.635978 334.003957 
L 264.524166 334.78481 
L 265.412354 335.503762 
L 266.300542 336.16277 
L 267.430963 337.034832 
L 268.399895 337.626827 
L 269.691805 338.50934 
L 270.499248 339.142111 
L 271.468181 339.867022 
L 272.437113 340.44116 
L 273.083068 340.798017 
L 379.181152 340.798017 
L 379.181152 340.798017 
" clip-path="url(#p7e80393ea7)" style="fill: none; stroke: #ff7f0e; stroke-width: 4; stroke-linecap: square"/>
   </g>
   <g id="line2d_34">
    <path d="M 56.042237 340.76946 
L 71.30292 340.598063 
L 79.538844 340.292928 
L 85.836904 339.832271 
L 91.044915 339.2103 
L 94.799528 338.572499 
L 98.433024 337.766961 
L 102.550986 336.587913 
L 106.305599 335.205913 
L 109.696862 333.694086 
L 113.088125 331.879343 
L 115.631572 330.333129 
L 118.901718 328.060367 
L 121.929632 325.713519 
L 125.805361 322.352797 
L 128.591041 319.6721 
L 134.041285 314.005061 
L 140.460462 306.779733 
L 148.454153 297.675665 
L 154.994446 290.913913 
L 158.870175 287.440254 
L 161.171389 285.621023 
L 163.109254 284.3406 
L 167.348332 281.902008 
L 169.407314 280.922159 
L 170.981829 280.276138 
L 173.04081 279.675598 
L 175.220907 279.36503 
L 178.97552 279.196119 
L 182.487899 279.415183 
L 185.031347 279.932251 
L 189.028192 281.245785 
L 192.419455 282.716406 
L 196.900767 285.051464 
L 203.925526 289.40677 
L 209.496887 293.18671 
L 220.276258 300.892078 
L 229.723348 307.954901 
L 235.779175 312.727702 
L 240.018254 316.234905 
L 248.133061 323.337769 
L 256.247869 330.829009 
L 260.365831 334.676149 
L 267.148357 340.798017 
L 379.181152 340.798017 
L 379.181152 340.798017 
" clip-path="url(#p7e80393ea7)" style="fill: none; stroke: #2ca02c; stroke-width: 4; stroke-linecap: square"/>
   </g>
   <g id="line2d_35">
    <path d="M 56.122981 340.77367 
L 71.787386 340.608466 
L 80.184799 340.299459 
L 86.32137 339.847598 
L 91.327521 339.238126 
L 94.880272 338.624753 
L 98.594513 337.781821 
L 102.308753 336.685938 
L 105.861505 335.35574 
L 108.92979 333.943384 
L 112.159565 332.185368 
L 115.22785 330.19839 
L 117.81167 328.309202 
L 120.718466 325.90324 
L 124.271218 322.581765 
L 127.662481 319.007687 
L 129.923323 316.436463 
L 133.314586 312.291048 
L 137.674781 306.579411 
L 140.904556 302.156337 
L 149.624946 289.987699 
L 154.14663 284.023863 
L 157.376404 280.093415 
L 159.798735 277.377901 
L 163.189998 274.015024 
L 165.289351 272.218855 
L 167.227216 270.737407 
L 169.16508 269.489581 
L 171.102945 268.429072 
L 173.04081 267.60462 
L 175.140163 266.915196 
L 176.916539 266.556111 
L 179.177381 266.342717 
L 181.115245 266.403203 
L 183.214599 266.66027 
L 185.152463 267.122491 
L 187.413305 267.88053 
L 189.674147 268.879822 
L 191.934989 270.072206 
L 194.518809 271.664369 
L 197.264117 273.596494 
L 200.816868 276.371492 
L 205.338552 280.27066 
L 210.990657 285.499162 
L 220.518491 294.720996 
L 235.859919 309.921675 
L 245.064776 319.422293 
L 254.108144 329.082274 
L 263.635978 339.234042 
L 265.250865 340.798017 
L 379.261897 340.798017 
L 379.261897 340.798017 
" clip-path="url(#p7e80393ea7)" style="fill: none; stroke: #d62728; stroke-width: 4; stroke-linecap: square"/>
   </g>
   <g id="line2d_36">
    <path d="M 55.961492 340.778751 
L 72.514085 340.619816 
L 80.790382 340.326612 
L 86.644348 339.909869 
L 91.489009 339.349217 
L 95.526227 338.666702 
L 98.957862 337.883236 
L 102.187637 336.944749 
L 105.619272 335.685056 
L 108.445324 334.411358 
L 111.675098 332.670932 
L 114.29929 331.001538 
L 117.327203 328.766306 
L 119.749534 326.741308 
L 122.373726 324.279699 
L 125.6035 320.873593 
L 128.025831 318.058022 
L 131.053744 314.205881 
L 134.68724 309.178972 
L 139.12818 302.490367 
L 144.780285 293.423719 
L 152.450999 280.93356 
L 156.286356 275.010545 
L 159.717991 270.088957 
L 162.947765 265.922412 
L 165.370096 263.13073 
L 167.590566 260.864286 
L 169.811035 258.89851 
L 172.031505 257.250878 
L 174.251975 255.931822 
L 176.270584 255.021847 
L 178.087332 254.440619 
L 180.105941 254.062122 
L 182.12455 253.959137 
L 184.143159 254.12505 
L 186.161768 254.550594 
L 188.180376 255.224126 
L 190.198985 256.131956 
L 192.419455 257.383011 
L 194.841786 259.023585 
L 197.465978 261.091709 
L 200.29203 263.608211 
L 203.521804 266.795262 
L 207.357161 270.909762 
L 212.201823 276.462476 
L 219.266954 284.939422 
L 245.105148 316.524296 
L 261.052158 336.038621 
L 265.089376 340.77978 
L 266.502403 340.798017 
L 379.14078 340.798017 
L 379.14078 340.798017 
" clip-path="url(#p7e80393ea7)" style="fill: none; stroke: #9467bd; stroke-width: 4; stroke-linecap: square"/>
   </g>
   <g id="line2d_37">
    <path d="M 56.042237 340.782769 
L 73.483018 340.632262 
L 81.961175 340.341534 
L 88.017002 339.910322 
L 92.861663 339.336426 
L 96.737392 338.669319 
L 100.370889 337.821083 
L 103.762151 336.789935 
L 106.911181 335.575326 
L 109.817978 334.213068 
L 112.724775 332.5697 
L 115.389339 330.8064 
L 117.81167 328.965632 
L 120.476233 326.659797 
L 123.38303 323.787248 
L 125.563128 321.400001 
L 127.985459 318.491048 
L 131.134488 314.305285 
L 134.041285 310.085238 
L 137.917014 303.934008 
L 141.308277 298.116562 
L 145.42624 290.7116 
L 159.717991 264.780159 
L 163.351487 259.036509 
L 165.773817 255.638492 
L 168.922847 251.702351 
L 171.345178 249.002164 
L 173.283043 247.138231 
L 175.220907 245.560376 
L 176.916539 244.457318 
L 178.61217 243.597917 
L 180.550035 242.871747 
L 182.487899 242.390043 
L 184.183531 242.189452 
L 185.879162 242.216243 
L 187.817027 242.511817 
L 189.512658 242.991629 
L 191.20829 243.690429 
L 193.146154 244.731192 
L 195.326252 246.173808 
L 197.50635 247.902621 
L 199.92868 250.11312 
L 202.593244 252.848748 
L 205.500041 256.156494 
L 208.891304 260.345437 
L 213.009266 265.803707 
L 218.338394 273.253529 
L 228.027717 287.260133 
L 245.226265 312.082753 
L 255.88452 327.156931 
L 263.393745 337.326116 
L 266.058309 340.790055 
L 269.449572 340.798017 
L 379.181152 340.798017 
L 379.181152 340.798017 
" clip-path="url(#p7e80393ea7)" style="fill: none; stroke: #8c564b; stroke-width: 4; stroke-linecap: square"/>
   </g>
   <g id="line2d_38">
    <path d="M 56.001864 340.786266 
L 74.371206 340.645573 
L 82.849363 340.373475 
L 88.501468 339.996323 
L 93.305757 339.474286 
L 97.262231 338.836126 
L 100.653494 338.084237 
L 104.044757 337.111831 
L 107.153414 335.984233 
L 109.696862 334.860407 
L 112.522914 333.354092 
L 115.348967 331.560398 
L 117.892414 329.684321 
L 120.718466 327.284183 
L 123.261914 324.819875 
L 125.522756 322.359345 
L 128.066203 319.279308 
L 131.174861 315.113145 
L 133.718308 311.383191 
L 136.54436 306.845087 
L 139.935623 300.897264 
L 143.892097 293.333139 
L 150.674623 279.675657 
L 160.000596 260.650405 
L 163.109254 254.864511 
L 166.500517 249.049513 
L 169.326569 244.612416 
L 171.870016 241.046184 
L 173.848253 238.638158 
L 175.82649 236.576304 
L 177.804727 234.844942 
L 179.782963 233.426248 
L 181.7612 232.311084 
L 183.739437 231.501159 
L 185.435068 231.062844 
L 187.1307 230.89692 
L 188.543726 230.969397 
L 189.956752 231.217635 
L 191.652384 231.731126 
L 193.630621 232.604891 
L 195.608857 233.746648 
L 197.587094 235.138662 
L 199.847936 237.031864 
L 202.108778 239.256847 
L 204.652225 242.112413 
L 207.478278 245.639122 
L 210.869541 250.25224 
L 214.543409 255.624998 
L 218.782488 262.220378 
L 224.999803 272.339144 
L 252.977723 318.364252 
L 258.347223 326.79401 
L 265.129749 336.935473 
L 267.673196 340.607688 
L 267.955801 340.798017 
L 379.302269 340.798017 
L 379.302269 340.798017 
" clip-path="url(#p7e80393ea7)" style="fill: none; stroke: #e377c2; stroke-width: 4; stroke-linecap: square"/>
   </g>
   <g id="line2d_39">
    <path d="M 55.961492 340.788905 
L 75.663115 340.651238 
L 84.383506 340.372351 
L 90.1971 339.978778 
L 94.718784 339.476681 
L 98.594513 338.847666 
L 101.824287 338.139411 
L 105.377039 337.117395 
L 108.606813 335.917229 
L 111.190632 334.739532 
L 113.774452 333.33708 
L 116.358271 331.687691 
L 118.942091 329.764002 
L 121.202933 327.838135 
L 123.786752 325.339388 
L 126.370571 322.494001 
L 128.954391 319.30706 
L 131.215233 316.235354 
L 133.799052 312.373558 
L 137.028826 307.04098 
L 139.612646 302.419814 
L 143.165398 295.532163 
L 146.718149 288.160608 
L 150.593878 279.709824 
L 163.512976 251.200325 
L 167.065727 244.090365 
L 169.972524 238.792359 
L 172.233366 235.056537 
L 174.494208 231.673148 
L 176.432073 229.088542 
L 178.369937 226.835281 
L 180.307802 224.918456 
L 181.922689 223.573347 
L 183.537576 222.451011 
L 185.152463 221.5777 
L 186.76735 220.962399 
L 188.382237 220.595548 
L 189.997125 220.46315 
L 191.612012 220.55819 
L 193.226899 220.890996 
L 194.841786 221.458798 
L 196.456673 222.246661 
L 198.07156 223.237765 
L 200.009425 224.682702 
L 201.947289 226.404009 
L 204.208131 228.733093 
L 206.468973 231.367154 
L 209.052793 234.713426 
L 211.95959 238.863073 
L 215.189364 243.856215 
L 219.065093 250.270059 
L 223.909754 258.758103 
L 231.015258 271.732651 
L 252.654745 311.527024 
L 259.114294 322.865203 
L 264.927888 332.609521 
L 269.772549 340.239721 
L 270.095526 340.732974 
L 270.741481 340.798017 
L 379.261897 340.798017 
L 379.261897 340.798017 
" clip-path="url(#p7e80393ea7)" style="fill: none; stroke: #7f7f7f; stroke-width: 4; stroke-linecap: square"/>
   </g>
   <g id="line2d_40">
    <path d="M 55.92112 340.791068 
L 76.632048 340.663167 
L 85.352438 340.40114 
L 91.529381 339.998212 
L 96.252926 339.475097 
L 100.249772 338.814187 
L 103.519918 338.078353 
L 106.790065 337.125417 
L 109.696862 336.049823 
L 112.603659 334.727614 
L 115.147106 333.328592 
L 117.690553 331.674076 
L 120.234 329.747283 
L 122.414098 327.865156 
L 124.594196 325.754013 
L 126.774293 323.395327 
L 129.31774 320.311764 
L 131.861188 316.852064 
L 134.404635 313.014504 
L 136.948082 308.804286 
L 139.854879 303.550224 
L 143.125025 297.141555 
L 146.758521 289.421406 
L 150.028668 282.014798 
L 155.115562 269.900299 
L 163.109254 250.778206 
L 167.106099 241.753985 
L 170.376246 234.863629 
L 173.283043 229.263976 
L 175.82649 224.879784 
L 178.006588 221.552859 
L 179.823336 219.108964 
L 181.640084 216.960231 
L 183.456832 215.119299 
L 185.27358 213.58408 
L 187.090328 212.363871 
L 188.907076 211.461898 
L 190.723824 210.884081 
L 192.177222 210.661725 
L 193.630621 210.654182 
L 195.084019 210.848246 
L 196.537417 211.247747 
L 197.990816 211.844949 
L 199.807564 212.848196 
L 201.624312 214.1283 
L 203.44106 215.665599 
L 205.621158 217.832712 
L 207.801255 220.325746 
L 210.344702 223.613523 
L 212.88815 227.274428 
L 215.794947 231.85097 
L 219.065093 237.410801 
L 223.061939 244.668617 
L 228.148833 254.422745 
L 235.052476 268.210427 
L 255.400054 309.220848 
L 261.940346 321.77443 
L 267.027241 330.995974 
L 271.024087 337.851916 
L 272.840835 340.798017 
L 379.302269 340.798017 
L 379.302269 340.798017 
" clip-path="url(#p7e80393ea7)" style="fill: none; stroke: #bcbd22; stroke-width: 4; stroke-linecap: square"/>
   </g>
   <g id="line2d_41">
    <path d="M 55.961492 340.792611 
L 77.762469 340.668025 
L 86.644348 340.405638 
L 92.700175 340.013971 
L 97.544836 339.480284 
L 101.582054 338.812292 
L 104.811828 338.081302 
L 108.041602 337.13215 
L 110.867655 336.080608 
L 113.693707 334.791597 
L 116.116038 333.468217 
L 118.538369 331.91487 
L 120.960699 330.108505 
L 123.38303 328.027343 
L 125.805361 325.65171 
L 128.227692 322.958216 
L 130.650022 319.926198 
L 133.072353 316.545071 
L 135.898405 312.156271 
L 138.320736 308.008857 
L 141.146789 302.717064 
L 144.376563 296.123267 
L 147.606337 288.973686 
L 151.239833 280.392674 
L 156.084495 268.303582 
L 168.196148 237.791285 
L 171.829644 229.484214 
L 174.655697 223.567569 
L 177.078027 218.941976 
L 179.500358 214.787648 
L 181.518967 211.720764 
L 183.537576 209.034184 
L 185.556185 206.745085 
L 187.171072 205.210275 
L 188.785959 203.94166 
L 190.400846 202.941065 
L 192.015733 202.211696 
L 193.630621 201.754466 
L 195.245508 201.565335 
L 196.860395 201.639531 
L 198.475282 201.971201 
L 200.090169 202.555016 
L 201.705056 203.384034 
L 203.319943 204.448295 
L 204.934831 205.737569 
L 206.953439 207.649607 
L 208.972048 209.875208 
L 211.394379 212.927241 
L 213.81671 216.356726 
L 216.642762 220.780125 
L 219.872537 226.313702 
L 223.506033 233.039991 
L 227.54325 240.997355 
L 232.791634 251.879525 
L 240.058626 267.525263 
L 258.226106 306.84104 
L 264.281933 319.27587 
L 269.126594 328.740751 
L 273.567534 336.920617 
L 275.586143 340.449862 
L 275.989864 340.798017 
L 379.342641 340.798017 
L 379.342641 340.798017 
" clip-path="url(#p7e80393ea7)" style="fill: none; stroke: #17becf; stroke-width: 4; stroke-linecap: square"/>
   </g>
   <g id="line2d_42">
    <path d="M 217.648714 347.76 
L 217.648714 194.596364 
" clip-path="url(#p7e80393ea7)" style="fill: none; stroke-dasharray: 1,1.65; stroke-dashoffset: 0; stroke: #808080"/>
   </g>
   <g id="patch_8">
    <path d="M 56.16 347.76 
L 56.16 194.596364 
" style="fill: none; stroke: #000000; stroke-width: 0.8; stroke-linejoin: miter; stroke-linecap: square"/>
   </g>
   <g id="patch_9">
    <path d="M 379.137427 347.76 
L 379.137427 194.596364 
" style="fill: none; stroke: #000000; stroke-width: 0.8; stroke-linejoin: miter; stroke-linecap: square"/>
   </g>
   <g id="patch_10">
    <path d="M 56.16 347.76 
L 379.137427 347.76 
" style="fill: none; stroke: #000000; stroke-width: 0.8; stroke-linejoin: miter; stroke-linecap: square"/>
   </g>
   <g id="patch_11">
    <path d="M 56.16 194.596364 
L 379.137427 194.596364 
" style="fill: none; stroke: #000000; stroke-width: 0.8; stroke-linejoin: miter; stroke-linecap: square"/>
   </g>
  </g>
  <g id="axes_3">
   <g id="patch_12">
    <path d="M 454.622573 347.76 
L 777.6 347.76 
L 777.6 10.8 
L 454.622573 10.8 
z
" style="fill: #ffffff"/>
   </g>
   <g id="matplotlib.axis_5">
    <g id="xtick_19">
     <g id="line2d_43">
      <g>
       <use xlink:href="#mde4198b776" x="469.303365" y="347.76" style="stroke: #000000; stroke-width: 0.8"/>
      </g>
     </g>
     <g id="text_32">
      <!-- $\mathdefault{10^{-1}}$ -->
      <g transform="translate(457.553365 362.358438) scale(0.1 -0.1)">
       <use xlink:href="#DejaVuSans-31" transform="translate(0 0.684375)"/>
       <use xlink:href="#DejaVuSans-30" transform="translate(63.623047 0.684375)"/>
       <use xlink:href="#DejaVuSans-2212" transform="translate(128.203125 38.965625) scale(0.7)"/>
       <use xlink:href="#DejaVuSans-31" transform="translate(186.855469 38.965625) scale(0.7)"/>
      </g>
     </g>
    </g>
    <g id="xtick_20">
     <g id="line2d_44">
      <g>
       <use xlink:href="#mde4198b776" x="762.919208" y="347.76" style="stroke: #000000; stroke-width: 0.8"/>
      </g>
     </g>
     <g id="text_33">
      <!-- $\mathdefault{10^{0}}$ -->
      <g transform="translate(754.119208 362.358438) scale(0.1 -0.1)">
       <use xlink:href="#DejaVuSans-31" transform="translate(0 0.765625)"/>
       <use xlink:href="#DejaVuSans-30" transform="translate(63.623047 0.765625)"/>
       <use xlink:href="#DejaVuSans-30" transform="translate(128.203125 39.046875) scale(0.7)"/>
      </g>
     </g>
    </g>
    <g id="xtick_21">
     <g id="line2d_45">
      <defs>
       <path id="mfaf7a47ed4" d="M 0 0 
L 0 2 
" style="stroke: #000000; stroke-width: 0.6"/>
      </defs>
      <g>
       <use xlink:href="#mfaf7a47ed4" x="455.868241" y="347.76" style="stroke: #000000; stroke-width: 0.6"/>
      </g>
     </g>
    </g>
    <g id="xtick_22">
     <g id="line2d_46">
      <g>
       <use xlink:href="#mfaf7a47ed4" x="557.690541" y="347.76" style="stroke: #000000; stroke-width: 0.6"/>
      </g>
     </g>
    </g>
    <g id="xtick_23">
     <g id="line2d_47">
      <g>
       <use xlink:href="#mfaf7a47ed4" x="609.393724" y="347.76" style="stroke: #000000; stroke-width: 0.6"/>
      </g>
     </g>
    </g>
    <g id="xtick_24">
     <g id="line2d_48">
      <g>
       <use xlink:href="#mfaf7a47ed4" x="646.077717" y="347.76" style="stroke: #000000; stroke-width: 0.6"/>
      </g>
     </g>
    </g>
    <g id="xtick_25">
     <g id="line2d_49">
      <g>
       <use xlink:href="#mfaf7a47ed4" x="674.532032" y="347.76" style="stroke: #000000; stroke-width: 0.6"/>
      </g>
     </g>
    </g>
    <g id="xtick_26">
     <g id="line2d_50">
      <g>
       <use xlink:href="#mfaf7a47ed4" x="697.7809" y="347.76" style="stroke: #000000; stroke-width: 0.6"/>
      </g>
     </g>
    </g>
    <g id="xtick_27">
     <g id="line2d_51">
      <g>
       <use xlink:href="#mfaf7a47ed4" x="717.437538" y="347.76" style="stroke: #000000; stroke-width: 0.6"/>
      </g>
     </g>
    </g>
    <g id="xtick_28">
     <g id="line2d_52">
      <g>
       <use xlink:href="#mfaf7a47ed4" x="734.464893" y="347.76" style="stroke: #000000; stroke-width: 0.6"/>
      </g>
     </g>
    </g>
    <g id="xtick_29">
     <g id="line2d_53">
      <g>
       <use xlink:href="#mfaf7a47ed4" x="749.484084" y="347.76" style="stroke: #000000; stroke-width: 0.6"/>
      </g>
     </g>
    </g>
    <g id="text_34">
     <!-- v [mm/s] -->
     <g transform="translate(593.631599 376.036563) scale(0.1 -0.1)">
      <defs>
       <path id="DejaVuSans-76" d="M 191 3500 
L 800 3500 
L 1894 563 
L 2988 3500 
L 3597 3500 
L 2284 0 
L 1503 0 
L 191 3500 
z
" transform="scale(0.015625)"/>
       <path id="DejaVuSans-2f" d="M 1625 4666 
L 2156 4666 
L 531 -594 
L 0 -594 
L 1625 4666 
z
" transform="scale(0.015625)"/>
      </defs>
      <use xlink:href="#DejaVuSans-76"/>
      <use xlink:href="#DejaVuSans-20" x="59.179688"/>
      <use xlink:href="#DejaVuSans-5b" x="90.966797"/>
      <use xlink:href="#DejaVuSans-6d" x="129.980469"/>
      <use xlink:href="#DejaVuSans-6d" x="227.392578"/>
      <use xlink:href="#DejaVuSans-2f" x="324.804688"/>
      <use xlink:href="#DejaVuSans-73" x="358.496094"/>
      <use xlink:href="#DejaVuSans-5d" x="410.595703"/>
     </g>
    </g>
   </g>
   <g id="matplotlib.axis_6">
    <g id="ytick_12">
     <g id="line2d_54">
      <g>
       <use xlink:href="#mfcda0fea2a" x="454.622573" y="347.76" style="stroke: #000000; stroke-width: 0.8"/>
      </g>
     </g>
     <g id="text_35">
      <!-- −0.20 -->
      <g transform="translate(416.97726 351.559219) scale(0.1 -0.1)">
       <use xlink:href="#DejaVuSans-2212"/>
       <use xlink:href="#DejaVuSans-30" x="83.789062"/>
       <use xlink:href="#DejaVuSans-2e" x="147.412109"/>
       <use xlink:href="#DejaVuSans-32" x="179.199219"/>
       <use xlink:href="#DejaVuSans-30" x="242.822266"/>
      </g>
     </g>
    </g>
    <g id="ytick_13">
     <g id="line2d_55">
      <g>
       <use xlink:href="#mfcda0fea2a" x="454.622573" y="310.32" style="stroke: #000000; stroke-width: 0.8"/>
      </g>
     </g>
     <g id="text_36">
      <!-- −0.15 -->
      <g transform="translate(416.97726 314.119219) scale(0.1 -0.1)">
       <defs>
        <path id="DejaVuSans-35" d="M 691 4666 
L 3169 4666 
L 3169 4134 
L 1269 4134 
L 1269 2991 
Q 1406 3038 1543 3061 
Q 1681 3084 1819 3084 
Q 2600 3084 3056 2656 
Q 3513 2228 3513 1497 
Q 3513 744 3044 326 
Q 2575 -91 1722 -91 
Q 1428 -91 1123 -41 
Q 819 9 494 109 
L 494 744 
Q 775 591 1075 516 
Q 1375 441 1709 441 
Q 2250 441 2565 725 
Q 2881 1009 2881 1497 
Q 2881 1984 2565 2268 
Q 2250 2553 1709 2553 
Q 1456 2553 1204 2497 
Q 953 2441 691 2322 
L 691 4666 
z
" transform="scale(0.015625)"/>
       </defs>
       <use xlink:href="#DejaVuSans-2212"/>
       <use xlink:href="#DejaVuSans-30" x="83.789062"/>
       <use xlink:href="#DejaVuSans-2e" x="147.412109"/>
       <use xlink:href="#DejaVuSans-31" x="179.199219"/>
       <use xlink:href="#DejaVuSans-35" x="242.822266"/>
      </g>
     </g>
    </g>
    <g id="ytick_14">
     <g id="line2d_56">
      <g>
       <use xlink:href="#mfcda0fea2a" x="454.622573" y="272.88" style="stroke: #000000; stroke-width: 0.8"/>
      </g>
     </g>
     <g id="text_37">
      <!-- −0.10 -->
      <g transform="translate(416.97726 276.679219) scale(0.1 -0.1)">
       <use xlink:href="#DejaVuSans-2212"/>
       <use xlink:href="#DejaVuSans-30" x="83.789062"/>
       <use xlink:href="#DejaVuSans-2e" x="147.412109"/>
       <use xlink:href="#DejaVuSans-31" x="179.199219"/>
       <use xlink:href="#DejaVuSans-30" x="242.822266"/>
      </g>
     </g>
    </g>
    <g id="ytick_15">
     <g id="line2d_57">
      <g>
       <use xlink:href="#mfcda0fea2a" x="454.622573" y="235.44" style="stroke: #000000; stroke-width: 0.8"/>
      </g>
     </g>
     <g id="text_38">
      <!-- −0.05 -->
      <g transform="translate(416.97726 239.239219) scale(0.1 -0.1)">
       <use xlink:href="#DejaVuSans-2212"/>
       <use xlink:href="#DejaVuSans-30" x="83.789062"/>
       <use xlink:href="#DejaVuSans-2e" x="147.412109"/>
       <use xlink:href="#DejaVuSans-30" x="179.199219"/>
       <use xlink:href="#DejaVuSans-35" x="242.822266"/>
      </g>
     </g>
    </g>
    <g id="ytick_16">
     <g id="line2d_58">
      <g>
       <use xlink:href="#mfcda0fea2a" x="454.622573" y="198" style="stroke: #000000; stroke-width: 0.8"/>
      </g>
     </g>
     <g id="text_39">
      <!-- 0.00 -->
      <g transform="translate(425.356948 201.799219) scale(0.1 -0.1)">
       <use xlink:href="#DejaVuSans-30"/>
       <use xlink:href="#DejaVuSans-2e" x="63.623047"/>
       <use xlink:href="#DejaVuSans-30" x="95.410156"/>
       <use xlink:href="#DejaVuSans-30" x="159.033203"/>
      </g>
     </g>
    </g>
    <g id="ytick_17">
     <g id="line2d_59">
      <g>
       <use xlink:href="#mfcda0fea2a" x="454.622573" y="160.56" style="stroke: #000000; stroke-width: 0.8"/>
      </g>
     </g>
     <g id="text_40">
      <!-- 0.05 -->
      <g transform="translate(425.356948 164.359219) scale(0.1 -0.1)">
       <use xlink:href="#DejaVuSans-30"/>
       <use xlink:href="#DejaVuSans-2e" x="63.623047"/>
       <use xlink:href="#DejaVuSans-30" x="95.410156"/>
       <use xlink:href="#DejaVuSans-35" x="159.033203"/>
      </g>
     </g>
    </g>
    <g id="ytick_18">
     <g id="line2d_60">
      <g>
       <use xlink:href="#mfcda0fea2a" x="454.622573" y="123.12" style="stroke: #000000; stroke-width: 0.8"/>
      </g>
     </g>
     <g id="text_41">
      <!-- 0.10 -->
      <g transform="translate(425.356948 126.919219) scale(0.1 -0.1)">
       <use xlink:href="#DejaVuSans-30"/>
       <use xlink:href="#DejaVuSans-2e" x="63.623047"/>
       <use xlink:href="#DejaVuSans-31" x="95.410156"/>
       <use xlink:href="#DejaVuSans-30" x="159.033203"/>
      </g>
     </g>
    </g>
    <g id="ytick_19">
     <g id="line2d_61">
      <g>
       <use xlink:href="#mfcda0fea2a" x="454.622573" y="85.68" style="stroke: #000000; stroke-width: 0.8"/>
      </g>
     </g>
     <g id="text_42">
      <!-- 0.15 -->
      <g transform="translate(425.356948 89.479219) scale(0.1 -0.1)">
       <use xlink:href="#DejaVuSans-30"/>
       <use xlink:href="#DejaVuSans-2e" x="63.623047"/>
       <use xlink:href="#DejaVuSans-31" x="95.410156"/>
       <use xlink:href="#DejaVuSans-35" x="159.033203"/>
      </g>
     </g>
    </g>
    <g id="ytick_20">
     <g id="line2d_62">
      <g>
       <use xlink:href="#mfcda0fea2a" x="454.622573" y="48.24" style="stroke: #000000; stroke-width: 0.8"/>
      </g>
     </g>
     <g id="text_43">
      <!-- 0.20 -->
      <g transform="translate(425.356948 52.039219) scale(0.1 -0.1)">
       <use xlink:href="#DejaVuSans-30"/>
       <use xlink:href="#DejaVuSans-2e" x="63.623047"/>
       <use xlink:href="#DejaVuSans-32" x="95.410156"/>
       <use xlink:href="#DejaVuSans-30" x="159.033203"/>
      </g>
     </g>
    </g>
    <g id="ytick_21">
     <g id="line2d_63">
      <g>
       <use xlink:href="#mfcda0fea2a" x="454.622573" y="10.8" style="stroke: #000000; stroke-width: 0.8"/>
      </g>
     </g>
     <g id="text_44">
      <!-- 0.25 -->
      <g transform="translate(425.356948 14.599219) scale(0.1 -0.1)">
       <use xlink:href="#DejaVuSans-30"/>
       <use xlink:href="#DejaVuSans-2e" x="63.623047"/>
       <use xlink:href="#DejaVuSans-32" x="95.410156"/>
       <use xlink:href="#DejaVuSans-35" x="159.033203"/>
      </g>
     </g>
    </g>
    <g id="text_45">
     <!-- anticipation [$mm$] -->
     <g transform="translate(410.87726 224.08) rotate(-90) scale(0.1 -0.1)">
      <defs>
       <path id="DejaVuSans-6e" d="M 3513 2113 
L 3513 0 
L 2938 0 
L 2938 2094 
Q 2938 2591 2744 2837 
Q 2550 3084 2163 3084 
Q 1697 3084 1428 2787 
Q 1159 2491 1159 1978 
L 1159 0 
L 581 0 
L 581 3500 
L 1159 3500 
L 1159 2956 
Q 1366 3272 1645 3428 
Q 1925 3584 2291 3584 
Q 2894 3584 3203 3211 
Q 3513 2838 3513 2113 
z
" transform="scale(0.015625)"/>
       <path id="DejaVuSans-74" d="M 1172 4494 
L 1172 3500 
L 2356 3500 
L 2356 3053 
L 1172 3053 
L 1172 1153 
Q 1172 725 1289 603 
Q 1406 481 1766 481 
L 2356 481 
L 2356 0 
L 1766 0 
Q 1100 0 847 248 
Q 594 497 594 1153 
L 594 3053 
L 172 3053 
L 172 3500 
L 594 3500 
L 594 4494 
L 1172 4494 
z
" transform="scale(0.015625)"/>
       <path id="DejaVuSans-69" d="M 603 3500 
L 1178 3500 
L 1178 0 
L 603 0 
L 603 3500 
z
M 603 4863 
L 1178 4863 
L 1178 4134 
L 603 4134 
L 603 4863 
z
" transform="scale(0.015625)"/>
       <path id="DejaVuSans-6f" d="M 1959 3097 
Q 1497 3097 1228 2736 
Q 959 2375 959 1747 
Q 959 1119 1226 758 
Q 1494 397 1959 397 
Q 2419 397 2687 759 
Q 2956 1122 2956 1747 
Q 2956 2369 2687 2733 
Q 2419 3097 1959 3097 
z
M 1959 3584 
Q 2709 3584 3137 3096 
Q 3566 2609 3566 1747 
Q 3566 888 3137 398 
Q 2709 -91 1959 -91 
Q 1206 -91 779 398 
Q 353 888 353 1747 
Q 353 2609 779 3096 
Q 1206 3584 1959 3584 
z
" transform="scale(0.015625)"/>
       <path id="DejaVuSans-Oblique-6d" d="M 5747 2113 
L 5338 0 
L 4763 0 
L 5166 2094 
Q 5191 2228 5203 2325 
Q 5216 2422 5216 2491 
Q 5216 2772 5059 2928 
Q 4903 3084 4622 3084 
Q 4203 3084 3875 2770 
Q 3547 2456 3450 1953 
L 3066 0 
L 2491 0 
L 2900 2094 
Q 2925 2209 2937 2307 
Q 2950 2406 2950 2484 
Q 2950 2769 2794 2926 
Q 2638 3084 2363 3084 
Q 1938 3084 1609 2770 
Q 1281 2456 1184 1953 
L 800 0 
L 225 0 
L 909 3500 
L 1484 3500 
L 1375 2956 
Q 1609 3263 1923 3423 
Q 2238 3584 2597 3584 
Q 2978 3584 3223 3384 
Q 3469 3184 3519 2828 
Q 3781 3197 4126 3390 
Q 4472 3584 4856 3584 
Q 5306 3584 5551 3325 
Q 5797 3066 5797 2591 
Q 5797 2488 5784 2364 
Q 5772 2241 5747 2113 
z
" transform="scale(0.015625)"/>
      </defs>
      <use xlink:href="#DejaVuSans-61" transform="translate(0 0.015625)"/>
      <use xlink:href="#DejaVuSans-6e" transform="translate(61.279297 0.015625)"/>
      <use xlink:href="#DejaVuSans-74" transform="translate(124.658203 0.015625)"/>
      <use xlink:href="#DejaVuSans-69" transform="translate(163.867188 0.015625)"/>
      <use xlink:href="#DejaVuSans-63" transform="translate(191.650391 0.015625)"/>
      <use xlink:href="#DejaVuSans-69" transform="translate(246.630859 0.015625)"/>
      <use xlink:href="#DejaVuSans-70" transform="translate(274.414062 0.015625)"/>
      <use xlink:href="#DejaVuSans-61" transform="translate(337.890625 0.015625)"/>
      <use xlink:href="#DejaVuSans-74" transform="translate(399.169922 0.015625)"/>
      <use xlink:href="#DejaVuSans-69" transform="translate(438.378906 0.015625)"/>
      <use xlink:href="#DejaVuSans-6f" transform="translate(466.162109 0.015625)"/>
      <use xlink:href="#DejaVuSans-6e" transform="translate(527.34375 0.015625)"/>
      <use xlink:href="#DejaVuSans-20" transform="translate(590.722656 0.015625)"/>
      <use xlink:href="#DejaVuSans-5b" transform="translate(622.509766 0.015625)"/>
      <use xlink:href="#DejaVuSans-Oblique-6d" transform="translate(661.523438 0.015625)"/>
      <use xlink:href="#DejaVuSans-Oblique-6d" transform="translate(758.935547 0.015625)"/>
      <use xlink:href="#DejaVuSans-5d" transform="translate(856.347656 0.015625)"/>
     </g>
    </g>
   </g>
   <g id="line2d_64">
    <path d="M 454.622573 198 
L 777.6 198 
" clip-path="url(#p740cf6ce3e)" style="fill: none; stroke-dasharray: 1,1.65; stroke-dashoffset: 0; stroke: #808080"/>
   </g>
   <g id="line2d_65">
    <path d="M 469.303365 142.969419 
L 557.690541 128.592459 
L 609.393724 125.372619 
L 646.077717 127.843659 
L 674.532032 131.737419 
L 697.7809 137.278539 
L 717.437538 141.921099 
L 734.464893 147.312459 
L 749.484084 152.104779 
L 762.919208 157.196619 
" clip-path="url(#p740cf6ce3e)" style="fill: none; stroke: #000000; stroke-width: 4; stroke-linecap: square"/>
   </g>
   <g id="line2d_66">
    <path d="M 469.303365 169.252299 
L 557.690541 167.080779 
L 609.393724 176.141259 
L 646.077717 186.250059 
L 674.532032 196.134219 
L 697.7809 206.018379 
L 717.437538 215.303499 
L 734.464893 223.989579 
L 749.484084 232.301259 
L 762.919208 239.564619 
" clip-path="url(#p740cf6ce3e)" style="fill: none; stroke-dasharray: 4,6.6; stroke-dashoffset: 0; stroke: #000000; stroke-width: 4"/>
   </g>
   <g id="patch_13">
    <path d="M 454.622573 347.76 
L 454.622573 10.8 
" style="fill: none; stroke: #000000; stroke-width: 0.8; stroke-linejoin: miter; stroke-linecap: square"/>
   </g>
   <g id="patch_14">
    <path d="M 777.6 347.76 
L 777.6 10.8 
" style="fill: none; stroke: #000000; stroke-width: 0.8; stroke-linejoin: miter; stroke-linecap: square"/>
   </g>
   <g id="patch_15">
    <path d="M 454.622573 347.76 
L 777.6 347.76 
" style="fill: none; stroke: #000000; stroke-width: 0.8; stroke-linejoin: miter; stroke-linecap: square"/>
   </g>
   <g id="patch_16">
    <path d="M 454.622573 10.8 
L 777.6 10.8 
" style="fill: none; stroke: #000000; stroke-width: 0.8; stroke-linejoin: miter; stroke-linecap: square"/>
   </g>
   <g id="legend_1">
    <g id="patch_17">
     <path d="M 589.892187 48.15625 
L 770.6 48.15625 
Q 772.6 48.15625 772.6 46.15625 
L 772.6 17.8 
Q 772.6 15.8 770.6 15.8 
L 589.892187 15.8 
Q 587.892187 15.8 587.892187 17.8 
L 587.892187 46.15625 
Q 587.892187 48.15625 589.892187 48.15625 
z
" style="fill: #ffffff; opacity: 0.8; stroke: #cccccc; stroke-linejoin: miter"/>
    </g>
    <g id="line2d_67">
     <path d="M 591.892187 23.898438 
L 601.892187 23.898438 
L 611.892187 23.898438 
" style="fill: none; stroke: #000000; stroke-width: 4; stroke-linecap: square"/>
    </g>
    <g id="text_46">
     <!-- feedback + forward inhibition -->
     <g transform="translate(619.892187 27.398438) scale(0.1 -0.1)">
      <defs>
       <path id="DejaVuSans-66" d="M 2375 4863 
L 2375 4384 
L 1825 4384 
Q 1516 4384 1395 4259 
Q 1275 4134 1275 3809 
L 1275 3500 
L 2222 3500 
L 2222 3053 
L 1275 3053 
L 1275 0 
L 697 0 
L 697 3053 
L 147 3053 
L 147 3500 
L 697 3500 
L 697 3744 
Q 697 4328 969 4595 
Q 1241 4863 1831 4863 
L 2375 4863 
z
" transform="scale(0.015625)"/>
       <path id="DejaVuSans-64" d="M 2906 2969 
L 2906 4863 
L 3481 4863 
L 3481 0 
L 2906 0 
L 2906 525 
Q 2725 213 2448 61 
Q 2172 -91 1784 -91 
Q 1150 -91 751 415 
Q 353 922 353 1747 
Q 353 2572 751 3078 
Q 1150 3584 1784 3584 
Q 2172 3584 2448 3432 
Q 2725 3281 2906 2969 
z
M 947 1747 
Q 947 1113 1208 752 
Q 1469 391 1925 391 
Q 2381 391 2643 752 
Q 2906 1113 2906 1747 
Q 2906 2381 2643 2742 
Q 2381 3103 1925 3103 
Q 1469 3103 1208 2742 
Q 947 2381 947 1747 
z
" transform="scale(0.015625)"/>
       <path id="DejaVuSans-62" d="M 3116 1747 
Q 3116 2381 2855 2742 
Q 2594 3103 2138 3103 
Q 1681 3103 1420 2742 
Q 1159 2381 1159 1747 
Q 1159 1113 1420 752 
Q 1681 391 2138 391 
Q 2594 391 2855 752 
Q 3116 1113 3116 1747 
z
M 1159 2969 
Q 1341 3281 1617 3432 
Q 1894 3584 2278 3584 
Q 2916 3584 3314 3078 
Q 3713 2572 3713 1747 
Q 3713 922 3314 415 
Q 2916 -91 2278 -91 
Q 1894 -91 1617 61 
Q 1341 213 1159 525 
L 1159 0 
L 581 0 
L 581 4863 
L 1159 4863 
L 1159 2969 
z
" transform="scale(0.015625)"/>
       <path id="DejaVuSans-6b" d="M 581 4863 
L 1159 4863 
L 1159 1991 
L 2875 3500 
L 3609 3500 
L 1753 1863 
L 3688 0 
L 2938 0 
L 1159 1709 
L 1159 0 
L 581 0 
L 581 4863 
z
" transform="scale(0.015625)"/>
       <path id="DejaVuSans-2b" d="M 2944 4013 
L 2944 2272 
L 4684 2272 
L 4684 1741 
L 2944 1741 
L 2944 0 
L 2419 0 
L 2419 1741 
L 678 1741 
L 678 2272 
L 2419 2272 
L 2419 4013 
L 2944 4013 
z
" transform="scale(0.015625)"/>
       <path id="DejaVuSans-72" d="M 2631 2963 
Q 2534 3019 2420 3045 
Q 2306 3072 2169 3072 
Q 1681 3072 1420 2755 
Q 1159 2438 1159 1844 
L 1159 0 
L 581 0 
L 581 3500 
L 1159 3500 
L 1159 2956 
Q 1341 3275 1631 3429 
Q 1922 3584 2338 3584 
Q 2397 3584 2469 3576 
Q 2541 3569 2628 3553 
L 2631 2963 
z
" transform="scale(0.015625)"/>
       <path id="DejaVuSans-77" d="M 269 3500 
L 844 3500 
L 1563 769 
L 2278 3500 
L 2956 3500 
L 3675 769 
L 4391 3500 
L 4966 3500 
L 4050 0 
L 3372 0 
L 2619 2869 
L 1863 0 
L 1184 0 
L 269 3500 
z
" transform="scale(0.015625)"/>
       <path id="DejaVuSans-68" d="M 3513 2113 
L 3513 0 
L 2938 0 
L 2938 2094 
Q 2938 2591 2744 2837 
Q 2550 3084 2163 3084 
Q 1697 3084 1428 2787 
Q 1159 2491 1159 1978 
L 1159 0 
L 581 0 
L 581 4863 
L 1159 4863 
L 1159 2956 
Q 1366 3272 1645 3428 
Q 1925 3584 2291 3584 
Q 2894 3584 3203 3211 
Q 3513 2838 3513 2113 
z
" transform="scale(0.015625)"/>
      </defs>
      <use xlink:href="#DejaVuSans-66"/>
      <use xlink:href="#DejaVuSans-65" x="35.205078"/>
      <use xlink:href="#DejaVuSans-65" x="96.728516"/>
      <use xlink:href="#DejaVuSans-64" x="158.251953"/>
      <use xlink:href="#DejaVuSans-62" x="221.728516"/>
      <use xlink:href="#DejaVuSans-61" x="285.205078"/>
      <use xlink:href="#DejaVuSans-63" x="346.484375"/>
      <use xlink:href="#DejaVuSans-6b" x="401.464844"/>
      <use xlink:href="#DejaVuSans-20" x="459.375"/>
      <use xlink:href="#DejaVuSans-2b" x="491.162109"/>
      <use xlink:href="#DejaVuSans-20" x="574.951172"/>
      <use xlink:href="#DejaVuSans-66" x="606.738281"/>
      <use xlink:href="#DejaVuSans-6f" x="641.943359"/>
      <use xlink:href="#DejaVuSans-72" x="703.125"/>
      <use xlink:href="#DejaVuSans-77" x="744.238281"/>
      <use xlink:href="#DejaVuSans-61" x="826.025391"/>
      <use xlink:href="#DejaVuSans-72" x="887.304688"/>
      <use xlink:href="#DejaVuSans-64" x="926.667969"/>
      <use xlink:href="#DejaVuSans-20" x="990.144531"/>
      <use xlink:href="#DejaVuSans-69" x="1021.931641"/>
      <use xlink:href="#DejaVuSans-6e" x="1049.714844"/>
      <use xlink:href="#DejaVuSans-68" x="1113.09375"/>
      <use xlink:href="#DejaVuSans-69" x="1176.472656"/>
      <use xlink:href="#DejaVuSans-62" x="1204.255859"/>
      <use xlink:href="#DejaVuSans-69" x="1267.732422"/>
      <use xlink:href="#DejaVuSans-74" x="1295.515625"/>
      <use xlink:href="#DejaVuSans-69" x="1334.724609"/>
      <use xlink:href="#DejaVuSans-6f" x="1362.507812"/>
      <use xlink:href="#DejaVuSans-6e" x="1423.689453"/>
     </g>
    </g>
    <g id="line2d_68">
     <path d="M 591.892187 38.576563 
L 601.892187 38.576563 
L 611.892187 38.576563 
" style="fill: none; stroke-dasharray: 4,6.6; stroke-dashoffset: 0; stroke: #000000; stroke-width: 4"/>
    </g>
    <g id="text_47">
     <!-- bipolar only -->
     <g transform="translate(619.892187 42.076563) scale(0.1 -0.1)">
      <defs>
       <path id="DejaVuSans-6c" d="M 603 4863 
L 1178 4863 
L 1178 0 
L 603 0 
L 603 4863 
z
" transform="scale(0.015625)"/>
       <path id="DejaVuSans-79" d="M 2059 -325 
Q 1816 -950 1584 -1140 
Q 1353 -1331 966 -1331 
L 506 -1331 
L 506 -850 
L 844 -850 
Q 1081 -850 1212 -737 
Q 1344 -625 1503 -206 
L 1606 56 
L 191 3500 
L 800 3500 
L 1894 763 
L 2988 3500 
L 3597 3500 
L 2059 -325 
z
" transform="scale(0.015625)"/>
      </defs>
      <use xlink:href="#DejaVuSans-62"/>
      <use xlink:href="#DejaVuSans-69" x="63.476562"/>
      <use xlink:href="#DejaVuSans-70" x="91.259766"/>
      <use xlink:href="#DejaVuSans-6f" x="154.736328"/>
      <use xlink:href="#DejaVuSans-6c" x="215.917969"/>
      <use xlink:href="#DejaVuSans-61" x="243.701172"/>
      <use xlink:href="#DejaVuSans-72" x="304.980469"/>
      <use xlink:href="#DejaVuSans-20" x="346.09375"/>
      <use xlink:href="#DejaVuSans-6f" x="377.880859"/>
      <use xlink:href="#DejaVuSans-6e" x="439.0625"/>
      <use xlink:href="#DejaVuSans-6c" x="502.441406"/>
      <use xlink:href="#DejaVuSans-79" x="530.224609"/>
     </g>
    </g>
   </g>
   <g id="PathCollection_1">
    <defs>
     <path id="m2813f33397" d="M 0 3.872983 
C 1.027127 3.872983 2.012324 3.464901 2.738613 2.738613 
C 3.464901 2.012324 3.872983 1.027127 3.872983 0 
C 3.872983 -1.027127 3.464901 -2.012324 2.738613 -2.738613 
C 2.012324 -3.464901 1.027127 -3.872983 0 -3.872983 
C -1.027127 -3.872983 -2.012324 -3.464901 -2.738613 -2.738613 
C -3.464901 -2.012324 -3.872983 -1.027127 -3.872983 0 
C -3.872983 1.027127 -3.464901 2.012324 -2.738613 2.738613 
C -2.012324 3.464901 -1.027127 3.872983 0 3.872983 
z
" style="stroke: #1f77b4"/>
    </defs>
    <g clip-path="url(#p740cf6ce3e)">
     <use xlink:href="#m2813f33397" x="469.303365" y="142.969419" style="fill: #1f77b4; stroke: #1f77b4"/>
    </g>
   </g>
   <g id="PathCollection_2">
    <g clip-path="url(#p740cf6ce3e)">
     <use xlink:href="#m2813f33397" x="469.303365" y="169.252299" style="fill: #1f77b4; stroke: #1f77b4"/>
    </g>
   </g>
   <g id="PathCollection_3">
    <defs>
     <path id="m21aa6aad8b" d="M 0 3.872983 
C 1.027127 3.872983 2.012324 3.464901 2.738613 2.738613 
C 3.464901 2.012324 3.872983 1.027127 3.872983 0 
C 3.872983 -1.027127 3.464901 -2.012324 2.738613 -2.738613 
C 2.012324 -3.464901 1.027127 -3.872983 0 -3.872983 
C -1.027127 -3.872983 -2.012324 -3.464901 -2.738613 -2.738613 
C -3.464901 -2.012324 -3.872983 -1.027127 -3.872983 0 
C -3.872983 1.027127 -3.464901 2.012324 -2.738613 2.738613 
C -2.012324 3.464901 -1.027127 3.872983 0 3.872983 
z
" style="stroke: #ff7f0e"/>
    </defs>
    <g clip-path="url(#p740cf6ce3e)">
     <use xlink:href="#m21aa6aad8b" x="557.690541" y="128.592459" style="fill: #ff7f0e; stroke: #ff7f0e"/>
    </g>
   </g>
   <g id="PathCollection_4">
    <g clip-path="url(#p740cf6ce3e)">
     <use xlink:href="#m21aa6aad8b" x="557.690541" y="167.080779" style="fill: #ff7f0e; stroke: #ff7f0e"/>
    </g>
   </g>
   <g id="PathCollection_5">
    <defs>
     <path id="mc3f71af55d" d="M 0 3.872983 
C 1.027127 3.872983 2.012324 3.464901 2.738613 2.738613 
C 3.464901 2.012324 3.872983 1.027127 3.872983 0 
C 3.872983 -1.027127 3.464901 -2.012324 2.738613 -2.738613 
C 2.012324 -3.464901 1.027127 -3.872983 0 -3.872983 
C -1.027127 -3.872983 -2.012324 -3.464901 -2.738613 -2.738613 
C -3.464901 -2.012324 -3.872983 -1.027127 -3.872983 0 
C -3.872983 1.027127 -3.464901 2.012324 -2.738613 2.738613 
C -2.012324 3.464901 -1.027127 3.872983 0 3.872983 
z
" style="stroke: #2ca02c"/>
    </defs>
    <g clip-path="url(#p740cf6ce3e)">
     <use xlink:href="#mc3f71af55d" x="609.393724" y="125.372619" style="fill: #2ca02c; stroke: #2ca02c"/>
    </g>
   </g>
   <g id="PathCollection_6">
    <g clip-path="url(#p740cf6ce3e)">
     <use xlink:href="#mc3f71af55d" x="609.393724" y="176.141259" style="fill: #2ca02c; stroke: #2ca02c"/>
    </g>
   </g>
   <g id="PathCollection_7">
    <defs>
     <path id="ma81da10367" d="M 0 3.872983 
C 1.027127 3.872983 2.012324 3.464901 2.738613 2.738613 
C 3.464901 2.012324 3.872983 1.027127 3.872983 0 
C 3.872983 -1.027127 3.464901 -2.012324 2.738613 -2.738613 
C 2.012324 -3.464901 1.027127 -3.872983 0 -3.872983 
C -1.027127 -3.872983 -2.012324 -3.464901 -2.738613 -2.738613 
C -3.464901 -2.012324 -3.872983 -1.027127 -3.872983 0 
C -3.872983 1.027127 -3.464901 2.012324 -2.738613 2.738613 
C -2.012324 3.464901 -1.027127 3.872983 0 3.872983 
z
" style="stroke: #d62728"/>
    </defs>
    <g clip-path="url(#p740cf6ce3e)">
     <use xlink:href="#ma81da10367" x="646.077717" y="127.843659" style="fill: #d62728; stroke: #d62728"/>
    </g>
   </g>
   <g id="PathCollection_8">
    <g clip-path="url(#p740cf6ce3e)">
     <use xlink:href="#ma81da10367" x="646.077717" y="186.250059" style="fill: #d62728; stroke: #d62728"/>
    </g>
   </g>
   <g id="PathCollection_9">
    <defs>
     <path id="m9f2c95118e" d="M 0 3.872983 
C 1.027127 3.872983 2.012324 3.464901 2.738613 2.738613 
C 3.464901 2.012324 3.872983 1.027127 3.872983 0 
C 3.872983 -1.027127 3.464901 -2.012324 2.738613 -2.738613 
C 2.012324 -3.464901 1.027127 -3.872983 0 -3.872983 
C -1.027127 -3.872983 -2.012324 -3.464901 -2.738613 -2.738613 
C -3.464901 -2.012324 -3.872983 -1.027127 -3.872983 0 
C -3.872983 1.027127 -3.464901 2.012324 -2.738613 2.738613 
C -2.012324 3.464901 -1.027127 3.872983 0 3.872983 
z
" style="stroke: #9467bd"/>
    </defs>
    <g clip-path="url(#p740cf6ce3e)">
     <use xlink:href="#m9f2c95118e" x="674.532032" y="131.737419" style="fill: #9467bd; stroke: #9467bd"/>
    </g>
   </g>
   <g id="PathCollection_10">
    <g clip-path="url(#p740cf6ce3e)">
     <use xlink:href="#m9f2c95118e" x="674.532032" y="196.134219" style="fill: #9467bd; stroke: #9467bd"/>
    </g>
   </g>
   <g id="PathCollection_11">
    <defs>
     <path id="m55da3b8ee5" d="M 0 3.872983 
C 1.027127 3.872983 2.012324 3.464901 2.738613 2.738613 
C 3.464901 2.012324 3.872983 1.027127 3.872983 0 
C 3.872983 -1.027127 3.464901 -2.012324 2.738613 -2.738613 
C 2.012324 -3.464901 1.027127 -3.872983 0 -3.872983 
C -1.027127 -3.872983 -2.012324 -3.464901 -2.738613 -2.738613 
C -3.464901 -2.012324 -3.872983 -1.027127 -3.872983 0 
C -3.872983 1.027127 -3.464901 2.012324 -2.738613 2.738613 
C -2.012324 3.464901 -1.027127 3.872983 0 3.872983 
z
" style="stroke: #8c564b"/>
    </defs>
    <g clip-path="url(#p740cf6ce3e)">
     <use xlink:href="#m55da3b8ee5" x="697.7809" y="137.278539" style="fill: #8c564b; stroke: #8c564b"/>
    </g>
   </g>
   <g id="PathCollection_12">
    <g clip-path="url(#p740cf6ce3e)">
     <use xlink:href="#m55da3b8ee5" x="697.7809" y="206.018379" style="fill: #8c564b; stroke: #8c564b"/>
    </g>
   </g>
   <g id="PathCollection_13">
    <defs>
     <path id="md4793e88be" d="M 0 3.872983 
C 1.027127 3.872983 2.012324 3.464901 2.738613 2.738613 
C 3.464901 2.012324 3.872983 1.027127 3.872983 0 
C 3.872983 -1.027127 3.464901 -2.012324 2.738613 -2.738613 
C 2.012324 -3.464901 1.027127 -3.872983 0 -3.872983 
C -1.027127 -3.872983 -2.012324 -3.464901 -2.738613 -2.738613 
C -3.464901 -2.012324 -3.872983 -1.027127 -3.872983 0 
C -3.872983 1.027127 -3.464901 2.012324 -2.738613 2.738613 
C -2.012324 3.464901 -1.027127 3.872983 0 3.872983 
z
" style="stroke: #e377c2"/>
    </defs>
    <g clip-path="url(#p740cf6ce3e)">
     <use xlink:href="#md4793e88be" x="717.437538" y="141.921099" style="fill: #e377c2; stroke: #e377c2"/>
    </g>
   </g>
   <g id="PathCollection_14">
    <g clip-path="url(#p740cf6ce3e)">
     <use xlink:href="#md4793e88be" x="717.437538" y="215.303499" style="fill: #e377c2; stroke: #e377c2"/>
    </g>
   </g>
   <g id="PathCollection_15">
    <defs>
     <path id="m2f0e1d4a0d" d="M 0 3.872983 
C 1.027127 3.872983 2.012324 3.464901 2.738613 2.738613 
C 3.464901 2.012324 3.872983 1.027127 3.872983 0 
C 3.872983 -1.027127 3.464901 -2.012324 2.738613 -2.738613 
C 2.012324 -3.464901 1.027127 -3.872983 0 -3.872983 
C -1.027127 -3.872983 -2.012324 -3.464901 -2.738613 -2.738613 
C -3.464901 -2.012324 -3.872983 -1.027127 -3.872983 0 
C -3.872983 1.027127 -3.464901 2.012324 -2.738613 2.738613 
C -2.012324 3.464901 -1.027127 3.872983 0 3.872983 
z
" style="stroke: #7f7f7f"/>
    </defs>
    <g clip-path="url(#p740cf6ce3e)">
     <use xlink:href="#m2f0e1d4a0d" x="734.464893" y="147.312459" style="fill: #7f7f7f; stroke: #7f7f7f"/>
    </g>
   </g>
   <g id="PathCollection_16">
    <g clip-path="url(#p740cf6ce3e)">
     <use xlink:href="#m2f0e1d4a0d" x="734.464893" y="223.989579" style="fill: #7f7f7f; stroke: #7f7f7f"/>
    </g>
   </g>
   <g id="PathCollection_17">
    <defs>
     <path id="maa8b7c9b04" d="M 0 3.872983 
C 1.027127 3.872983 2.012324 3.464901 2.738613 2.738613 
C 3.464901 2.012324 3.872983 1.027127 3.872983 0 
C 3.872983 -1.027127 3.464901 -2.012324 2.738613 -2.738613 
C 2.012324 -3.464901 1.027127 -3.872983 0 -3.872983 
C -1.027127 -3.872983 -2.012324 -3.464901 -2.738613 -2.738613 
C -3.464901 -2.012324 -3.872983 -1.027127 -3.872983 0 
C -3.872983 1.027127 -3.464901 2.012324 -2.738613 2.738613 
C -2.012324 3.464901 -1.027127 3.872983 0 3.872983 
z
" style="stroke: #bcbd22"/>
    </defs>
    <g clip-path="url(#p740cf6ce3e)">
     <use xlink:href="#maa8b7c9b04" x="749.484084" y="152.104779" style="fill: #bcbd22; stroke: #bcbd22"/>
    </g>
   </g>
   <g id="PathCollection_18">
    <g clip-path="url(#p740cf6ce3e)">
     <use xlink:href="#maa8b7c9b04" x="749.484084" y="232.301259" style="fill: #bcbd22; stroke: #bcbd22"/>
    </g>
   </g>
   <g id="PathCollection_19">
    <defs>
     <path id="m58a59b71cd" d="M 0 3.872983 
C 1.027127 3.872983 2.012324 3.464901 2.738613 2.738613 
C 3.464901 2.012324 3.872983 1.027127 3.872983 0 
C 3.872983 -1.027127 3.464901 -2.012324 2.738613 -2.738613 
C 2.012324 -3.464901 1.027127 -3.872983 0 -3.872983 
C -1.027127 -3.872983 -2.012324 -3.464901 -2.738613 -2.738613 
C -3.464901 -2.012324 -3.872983 -1.027127 -3.872983 0 
C -3.872983 1.027127 -3.464901 2.012324 -2.738613 2.738613 
C -2.012324 3.464901 -1.027127 3.872983 0 3.872983 
z
" style="stroke: #17becf"/>
    </defs>
    <g clip-path="url(#p740cf6ce3e)">
     <use xlink:href="#m58a59b71cd" x="762.919208" y="157.196619" style="fill: #17becf; stroke: #17becf"/>
    </g>
   </g>
   <g id="PathCollection_20">
    <g clip-path="url(#p740cf6ce3e)">
     <use xlink:href="#m58a59b71cd" x="762.919208" y="239.564619" style="fill: #17becf; stroke: #17becf"/>
    </g>
   </g>
  </g>
  <g id="legend_2">
   <g id="patch_18">
    <path d="M 788.442188 154.78125 
L 857 154.78125 
Q 859 154.78125 859 152.78125 
L 859 7 
Q 859 5 857 5 
L 788.442188 5 
Q 786.442188 5 786.442188 7 
L 786.442188 152.78125 
Q 786.442188 154.78125 788.442188 154.78125 
z
" style="fill: #ffffff; opacity: 0.8; stroke: #cccccc; stroke-linejoin: miter"/>
   </g>
   <g id="line2d_69">
    <path d="M 790.442188 13.098438 
L 800.442188 13.098438 
L 810.442188 13.098438 
" style="fill: none; stroke: #1f77b4; stroke-width: 4; stroke-linecap: square"/>
   </g>
   <g id="text_48">
    <!-- v = 0.1 -->
    <g transform="translate(818.442188 16.598438) scale(0.1 -0.1)">
     <defs>
      <path id="DejaVuSans-3d" d="M 678 2906 
L 4684 2906 
L 4684 2381 
L 678 2381 
L 678 2906 
z
M 678 1631 
L 4684 1631 
L 4684 1100 
L 678 1100 
L 678 1631 
z
" transform="scale(0.015625)"/>
     </defs>
     <use xlink:href="#DejaVuSans-76"/>
     <use xlink:href="#DejaVuSans-20" x="59.179688"/>
     <use xlink:href="#DejaVuSans-3d" x="90.966797"/>
     <use xlink:href="#DejaVuSans-20" x="174.755859"/>
     <use xlink:href="#DejaVuSans-30" x="206.542969"/>
     <use xlink:href="#DejaVuSans-2e" x="270.166016"/>
     <use xlink:href="#DejaVuSans-31" x="301.953125"/>
    </g>
   </g>
   <g id="line2d_70">
    <path d="M 790.442188 27.776563 
L 800.442188 27.776563 
L 810.442188 27.776563 
" style="fill: none; stroke: #ff7f0e; stroke-width: 4; stroke-linecap: square"/>
   </g>
   <g id="text_49">
    <!-- v = 0.2 -->
    <g transform="translate(818.442188 31.276563) scale(0.1 -0.1)">
     <use xlink:href="#DejaVuSans-76"/>
     <use xlink:href="#DejaVuSans-20" x="59.179688"/>
     <use xlink:href="#DejaVuSans-3d" x="90.966797"/>
     <use xlink:href="#DejaVuSans-20" x="174.755859"/>
     <use xlink:href="#DejaVuSans-30" x="206.542969"/>
     <use xlink:href="#DejaVuSans-2e" x="270.166016"/>
     <use xlink:href="#DejaVuSans-32" x="301.953125"/>
    </g>
   </g>
   <g id="line2d_71">
    <path d="M 790.442188 42.454688 
L 800.442188 42.454688 
L 810.442188 42.454688 
" style="fill: none; stroke: #2ca02c; stroke-width: 4; stroke-linecap: square"/>
   </g>
   <g id="text_50">
    <!-- v = 0.3 -->
    <g transform="translate(818.442188 45.954688) scale(0.1 -0.1)">
     <use xlink:href="#DejaVuSans-76"/>
     <use xlink:href="#DejaVuSans-20" x="59.179688"/>
     <use xlink:href="#DejaVuSans-3d" x="90.966797"/>
     <use xlink:href="#DejaVuSans-20" x="174.755859"/>
     <use xlink:href="#DejaVuSans-30" x="206.542969"/>
     <use xlink:href="#DejaVuSans-2e" x="270.166016"/>
     <use xlink:href="#DejaVuSans-33" x="301.953125"/>
    </g>
   </g>
   <g id="line2d_72">
    <path d="M 790.442188 57.132813 
L 800.442188 57.132813 
L 810.442188 57.132813 
" style="fill: none; stroke: #d62728; stroke-width: 4; stroke-linecap: square"/>
   </g>
   <g id="text_51">
    <!-- v = 0.4 -->
    <g transform="translate(818.442188 60.632813) scale(0.1 -0.1)">
     <use xlink:href="#DejaVuSans-76"/>
     <use xlink:href="#DejaVuSans-20" x="59.179688"/>
     <use xlink:href="#DejaVuSans-3d" x="90.966797"/>
     <use xlink:href="#DejaVuSans-20" x="174.755859"/>
     <use xlink:href="#DejaVuSans-30" x="206.542969"/>
     <use xlink:href="#DejaVuSans-2e" x="270.166016"/>
     <use xlink:href="#DejaVuSans-34" x="301.953125"/>
    </g>
   </g>
   <g id="line2d_73">
    <path d="M 790.442188 71.810938 
L 800.442188 71.810938 
L 810.442188 71.810938 
" style="fill: none; stroke: #9467bd; stroke-width: 4; stroke-linecap: square"/>
   </g>
   <g id="text_52">
    <!-- v = 0.5 -->
    <g transform="translate(818.442188 75.310938) scale(0.1 -0.1)">
     <use xlink:href="#DejaVuSans-76"/>
     <use xlink:href="#DejaVuSans-20" x="59.179688"/>
     <use xlink:href="#DejaVuSans-3d" x="90.966797"/>
     <use xlink:href="#DejaVuSans-20" x="174.755859"/>
     <use xlink:href="#DejaVuSans-30" x="206.542969"/>
     <use xlink:href="#DejaVuSans-2e" x="270.166016"/>
     <use xlink:href="#DejaVuSans-35" x="301.953125"/>
    </g>
   </g>
   <g id="line2d_74">
    <path d="M 790.442188 86.489063 
L 800.442188 86.489063 
L 810.442188 86.489063 
" style="fill: none; stroke: #8c564b; stroke-width: 4; stroke-linecap: square"/>
   </g>
   <g id="text_53">
    <!-- v = 0.6 -->
    <g transform="translate(818.442188 89.989063) scale(0.1 -0.1)">
     <use xlink:href="#DejaVuSans-76"/>
     <use xlink:href="#DejaVuSans-20" x="59.179688"/>
     <use xlink:href="#DejaVuSans-3d" x="90.966797"/>
     <use xlink:href="#DejaVuSans-20" x="174.755859"/>
     <use xlink:href="#DejaVuSans-30" x="206.542969"/>
     <use xlink:href="#DejaVuSans-2e" x="270.166016"/>
     <use xlink:href="#DejaVuSans-36" x="301.953125"/>
    </g>
   </g>
   <g id="line2d_75">
    <path d="M 790.442188 101.167188 
L 800.442188 101.167188 
L 810.442188 101.167188 
" style="fill: none; stroke: #e377c2; stroke-width: 4; stroke-linecap: square"/>
   </g>
   <g id="text_54">
    <!-- v = 0.7 -->
    <g transform="translate(818.442188 104.667188) scale(0.1 -0.1)">
     <defs>
      <path id="DejaVuSans-37" d="M 525 4666 
L 3525 4666 
L 3525 4397 
L 1831 0 
L 1172 0 
L 2766 4134 
L 525 4134 
L 525 4666 
z
" transform="scale(0.015625)"/>
     </defs>
     <use xlink:href="#DejaVuSans-76"/>
     <use xlink:href="#DejaVuSans-20" x="59.179688"/>
     <use xlink:href="#DejaVuSans-3d" x="90.966797"/>
     <use xlink:href="#DejaVuSans-20" x="174.755859"/>
     <use xlink:href="#DejaVuSans-30" x="206.542969"/>
     <use xlink:href="#DejaVuSans-2e" x="270.166016"/>
     <use xlink:href="#DejaVuSans-37" x="301.953125"/>
    </g>
   </g>
   <g id="line2d_76">
    <path d="M 790.442188 115.845313 
L 800.442188 115.845313 
L 810.442188 115.845313 
" style="fill: none; stroke: #7f7f7f; stroke-width: 4; stroke-linecap: square"/>
   </g>
   <g id="text_55">
    <!-- v = 0.8 -->
    <g transform="translate(818.442188 119.345313) scale(0.1 -0.1)">
     <use xlink:href="#DejaVuSans-76"/>
     <use xlink:href="#DejaVuSans-20" x="59.179688"/>
     <use xlink:href="#DejaVuSans-3d" x="90.966797"/>
     <use xlink:href="#DejaVuSans-20" x="174.755859"/>
     <use xlink:href="#DejaVuSans-30" x="206.542969"/>
     <use xlink:href="#DejaVuSans-2e" x="270.166016"/>
     <use xlink:href="#DejaVuSans-38" x="301.953125"/>
    </g>
   </g>
   <g id="line2d_77">
    <path d="M 790.442188 130.523438 
L 800.442188 130.523438 
L 810.442188 130.523438 
" style="fill: none; stroke: #bcbd22; stroke-width: 4; stroke-linecap: square"/>
   </g>
   <g id="text_56">
    <!-- v = 0.9 -->
    <g transform="translate(818.442188 134.023438) scale(0.1 -0.1)">
     <defs>
      <path id="DejaVuSans-39" d="M 703 97 
L 703 672 
Q 941 559 1184 500 
Q 1428 441 1663 441 
Q 2288 441 2617 861 
Q 2947 1281 2994 2138 
Q 2813 1869 2534 1725 
Q 2256 1581 1919 1581 
Q 1219 1581 811 2004 
Q 403 2428 403 3163 
Q 403 3881 828 4315 
Q 1253 4750 1959 4750 
Q 2769 4750 3195 4129 
Q 3622 3509 3622 2328 
Q 3622 1225 3098 567 
Q 2575 -91 1691 -91 
Q 1453 -91 1209 -44 
Q 966 3 703 97 
z
M 1959 2075 
Q 2384 2075 2632 2365 
Q 2881 2656 2881 3163 
Q 2881 3666 2632 3958 
Q 2384 4250 1959 4250 
Q 1534 4250 1286 3958 
Q 1038 3666 1038 3163 
Q 1038 2656 1286 2365 
Q 1534 2075 1959 2075 
z
" transform="scale(0.015625)"/>
     </defs>
     <use xlink:href="#DejaVuSans-76"/>
     <use xlink:href="#DejaVuSans-20" x="59.179688"/>
     <use xlink:href="#DejaVuSans-3d" x="90.966797"/>
     <use xlink:href="#DejaVuSans-20" x="174.755859"/>
     <use xlink:href="#DejaVuSans-30" x="206.542969"/>
     <use xlink:href="#DejaVuSans-2e" x="270.166016"/>
     <use xlink:href="#DejaVuSans-39" x="301.953125"/>
    </g>
   </g>
   <g id="line2d_78">
    <path d="M 790.442188 145.201563 
L 800.442188 145.201563 
L 810.442188 145.201563 
" style="fill: none; stroke: #17becf; stroke-width: 4; stroke-linecap: square"/>
   </g>
   <g id="text_57">
    <!-- v = 1.0 -->
    <g transform="translate(818.442188 148.701563) scale(0.1 -0.1)">
     <use xlink:href="#DejaVuSans-76"/>
     <use xlink:href="#DejaVuSans-20" x="59.179688"/>
     <use xlink:href="#DejaVuSans-3d" x="90.966797"/>
     <use xlink:href="#DejaVuSans-20" x="174.755859"/>
     <use xlink:href="#DejaVuSans-31" x="206.542969"/>
     <use xlink:href="#DejaVuSans-2e" x="270.166016"/>
     <use xlink:href="#DejaVuSans-30" x="301.953125"/>
    </g>
   </g>
  </g>
 </g>
 <defs>
  <clipPath id="pfa327985f5">
   <rect x="56.16" y="10.8" width="322.977427" height="153.163636"/>
  </clipPath>
  <clipPath id="p7e80393ea7">
   <rect x="56.16" y="194.596364" width="322.977427" height="153.163636"/>
  </clipPath>
  <clipPath id="p740cf6ce3e">
   <rect x="454.622573" y="10.8" width="322.977427" height="336.96"/>
  </clipPath>
 </defs>
</svg>
